<?xml version="1.0" encoding="UTF-8"?>
<svg id="_レイヤー_2" data-name="レイヤー 2" xmlns="http://www.w3.org/2000/svg" viewBox="0 0 232.42 345.03">
  <defs>
    <style>
      .cls-1 {
        fill: #020926;
        stroke-width: 0px;
      }
    </style>
  </defs>
  <g id="_レイヤー_1-2" data-name="レイヤー 1">
    <g>
      <path class="cls-1" d="M68.08,68.33H29.63l-6.74,15.67c-1.66,3.86-2.49,6.74-2.49,8.64,0,1.51.72,2.84,2.16,3.99,1.44,1.15,4.55,1.89,9.34,2.23v2.71H.62v-2.71c4.15-.73,6.84-1.68,8.06-2.86,2.49-2.34,5.25-7.1,8.28-14.28L51.89,0h2.56l34.57,82.62c2.78,6.64,5.31,10.95,7.58,12.93,2.27,1.98,5.43,3.09,9.48,3.33v2.71h-39.18v-2.71c3.96-.19,6.63-.85,8.02-1.98,1.39-1.12,2.09-2.49,2.09-4.1,0-2.15-.98-5.54-2.93-10.18l-6.01-14.28ZM66.03,62.92l-16.85-40.14-17.29,40.14h34.13Z"/>
      <path class="cls-1" d="M150.48,91.92c-6.88,5.32-11.21,8.4-12.96,9.23-2.64,1.22-5.45,1.83-8.42,1.83-4.64,0-8.46-1.59-11.46-4.76-3-3.17-4.5-7.35-4.5-12.52,0-3.27.73-6.1,2.2-8.5,2-3.32,5.48-6.45,10.44-9.38,4.96-2.93,13.19-6.49,24.72-10.69v-2.64c0-6.69-1.06-11.28-3.19-13.77s-5.21-3.74-9.27-3.74c-3.08,0-5.52.83-7.32,2.49-1.86,1.66-2.78,3.56-2.78,5.71l.15,4.25c0,2.25-.57,3.98-1.72,5.2-1.15,1.22-2.65,1.83-4.5,1.83s-3.28-.63-4.43-1.9c-1.15-1.27-1.72-3-1.72-5.2,0-4.2,2.15-8.06,6.45-11.57,4.3-3.52,10.33-5.27,18.09-5.27,5.96,0,10.84,1,14.65,3,2.88,1.51,5,3.88,6.37,7.1.88,2.1,1.32,6.4,1.32,12.89v22.78c0,6.4.12,10.32.37,11.76.24,1.44.65,2.41,1.21,2.89.56.49,1.21.73,1.94.73.78,0,1.46-.17,2.05-.51,1.03-.63,3-2.42,5.93-5.35v4.1c-5.47,7.32-10.69,10.99-15.67,10.99-2.39,0-4.3-.83-5.71-2.49-1.42-1.66-2.15-4.49-2.2-8.5ZM150.48,87.16v-25.56c-7.37,2.93-12.13,5.01-14.28,6.23-3.86,2.15-6.62,4.39-8.28,6.74-1.66,2.34-2.49,4.91-2.49,7.69,0,3.52,1.05,6.43,3.15,8.75,2.1,2.32,4.52,3.48,7.25,3.48,3.71,0,8.59-2.44,14.65-7.32Z"/>
    </g>
    <g>
      <path class="cls-1" d="M14.49,126.84l.18,3.73h-.45c-.09-.66-.2-1.12-.35-1.41-.24-.45-.56-.79-.97-1s-.93-.32-1.59-.32h-2.24v12.14c0,.98.11,1.59.32,1.83.3.33.75.49,1.37.49h.55v.43h-6.74v-.43h.56c.67,0,1.15-.2,1.43-.61.17-.25.26-.82.26-1.71v-12.14h-1.91c-.74,0-1.27.05-1.58.16-.41.15-.75.43-1.04.86s-.46.99-.52,1.71h-.45l.19-3.73h12.97Z"/>
      <path class="cls-1" d="M19.72,131.68v8.62c0,.67.05,1.12.15,1.34s.24.39.43.5.54.16,1.05.16v.42h-5.21v-.42c.52,0,.88-.05,1.05-.15s.32-.27.43-.5.16-.68.16-1.35v-4.14c0-1.16-.04-1.92-.11-2.26-.05-.25-.14-.42-.26-.52s-.28-.15-.48-.15c-.22,0-.48.06-.8.18l-.16-.42,3.23-1.31h.52ZM18.74,126.07c.33,0,.61.12.84.35s.35.51.35.84-.12.61-.35.84-.51.35-.84.35-.61-.12-.84-.35-.35-.52-.35-.84.12-.61.35-.84.51-.35.85-.35Z"/>
      <path class="cls-1" d="M25.87,133.97c.78-.78,1.24-1.23,1.38-1.35.35-.3.73-.53,1.14-.69s.81-.25,1.21-.25c.67,0,1.25.2,1.73.59s.81.96.97,1.7c.8-.94,1.48-1.55,2.04-1.85s1.12-.44,1.71-.44,1.08.15,1.52.44.79.77,1.05,1.44c.17.45.26,1.16.26,2.13v4.62c0,.67.05,1.13.15,1.38.08.17.22.32.43.44s.55.18,1.03.18v.42h-5.3v-.42h.22c.46,0,.82-.09,1.08-.27.18-.12.31-.32.39-.6.03-.13.05-.51.05-1.14v-4.62c0-.88-.11-1.49-.32-1.85-.3-.5-.79-.75-1.46-.75-.41,0-.83.1-1.25.31s-.92.59-1.52,1.15l-.02.13.02.5v5.12c0,.73.04,1.19.12,1.37s.24.33.46.45.61.18,1.16.18v.42h-5.43v-.42c.59,0,1-.07,1.22-.21s.38-.35.46-.63c.04-.13.06-.52.06-1.16v-4.62c0-.88-.13-1.5-.39-1.89-.34-.5-.82-.75-1.44-.75-.42,0-.84.11-1.25.34-.65.34-1.15.73-1.5,1.16v5.75c0,.7.05,1.16.15,1.37s.24.37.43.47.58.16,1.17.16v.42h-5.31v-.42c.49,0,.84-.05,1.03-.16s.34-.27.45-.5.15-.68.15-1.34v-4.1c0-1.18-.04-1.94-.11-2.29-.05-.26-.14-.44-.26-.53s-.28-.15-.48-.15c-.22,0-.48.06-.79.18l-.18-.42,3.23-1.31h.5v2.29Z"/>
      <path class="cls-1" d="M43.15,136.04c0,1.59.38,2.84,1.16,3.75s1.7,1.36,2.75,1.36c.7,0,1.31-.19,1.83-.58s.96-1.05,1.31-1.99l.36.23c-.16,1.07-.64,2.04-1.43,2.92s-1.78,1.32-2.96,1.32c-1.29,0-2.39-.5-3.31-1.51s-1.38-2.35-1.38-4.05c0-1.84.47-3.27,1.41-4.29s2.12-1.54,3.54-1.54c1.2,0,2.19.4,2.96,1.19s1.16,1.85,1.16,3.18h-7.42ZM43.15,135.36h4.97c-.04-.69-.12-1.17-.25-1.45-.2-.44-.49-.78-.87-1.03s-.79-.38-1.21-.38c-.65,0-1.23.25-1.74.76s-.81,1.21-.9,2.1Z"/>
      <path class="cls-1" d="M58.94,131.68v3.66h-.39c-.3-1.15-.68-1.93-1.14-2.34s-1.06-.62-1.78-.62c-.55,0-.99.14-1.32.43s-.5.61-.5.96c0,.44.12.81.38,1.12.24.32.73.66,1.48,1.02l1.71.83c1.59.77,2.38,1.79,2.38,3.06,0,.98-.37,1.76-1.11,2.36s-1.56.9-2.48.9c-.66,0-1.41-.12-2.25-.35-.26-.08-.47-.12-.63-.12-.18,0-.32.1-.42.3h-.39v-3.83h.39c.22,1.09.64,1.92,1.25,2.47s1.31.83,2.07.83c.54,0,.98-.16,1.32-.47s.51-.7.51-1.14c0-.54-.19-.99-.57-1.36s-1.13-.83-2.27-1.39-1.88-1.07-2.23-1.52c-.35-.45-.53-1.01-.53-1.69,0-.88.3-1.62.91-2.21s1.39-.89,2.35-.89c.42,0,.93.09,1.54.27.4.12.66.18.8.18.12,0,.22-.03.29-.08s.15-.18.25-.36h.39Z"/>
      <path class="cls-1" d="M66.27,126.84h4.31l9.71,11.92v-9.16c0-.98-.11-1.59-.33-1.83-.29-.33-.75-.49-1.37-.49h-.55v-.43h5.53v.43h-.56c-.67,0-1.15.2-1.43.61-.17.25-.26.82-.26,1.71v13.39h-.42l-10.48-12.8v9.79c0,.98.11,1.59.32,1.83.3.33.75.49,1.37.49h.56v.43h-5.53v-.43h.55c.68,0,1.16-.2,1.44-.61.17-.25.26-.82.26-1.71v-11.05c-.46-.54-.81-.89-1.05-1.07s-.59-.33-1.05-.48c-.23-.07-.57-.11-1.03-.11v-.43Z"/>
      <path class="cls-1" d="M86.48,136.04c0,1.59.38,2.84,1.16,3.75s1.7,1.36,2.75,1.36c.7,0,1.31-.19,1.83-.58s.96-1.05,1.31-1.99l.36.23c-.16,1.07-.64,2.04-1.43,2.92s-1.78,1.32-2.96,1.32c-1.29,0-2.39-.5-3.31-1.51s-1.38-2.35-1.38-4.05c0-1.84.47-3.27,1.41-4.29s2.12-1.54,3.54-1.54c1.2,0,2.19.4,2.96,1.19s1.16,1.85,1.16,3.18h-7.42ZM86.48,135.36h4.97c-.04-.69-.12-1.17-.25-1.45-.2-.44-.49-.78-.87-1.03s-.79-.38-1.21-.38c-.65,0-1.23.25-1.74.76s-.81,1.21-.9,2.1Z"/>
      <path class="cls-1" d="M94.73,132h4.5v.43c-.41.03-.69.11-.81.22s-.19.29-.19.5c0,.24.07.54.2.88l2.3,6.18,2.31-5.03-.61-1.58c-.19-.47-.43-.79-.74-.97-.17-.11-.49-.18-.96-.2v-.43h5.11v.43c-.56.02-.96.12-1.2.3-.16.12-.23.32-.23.6,0,.16.03.32.09.48l2.44,6.16,2.26-5.94c.16-.42.23-.76.23-1.01,0-.15-.08-.28-.23-.4s-.45-.18-.9-.2v-.43h3.39v.43c-.68.1-1.18.56-1.5,1.38l-3.59,9.25h-.48l-2.68-6.86-3.13,6.86h-.43l-3.45-9.02c-.23-.57-.45-.96-.67-1.15s-.56-.35-1.03-.45v-.43Z"/>
      <path class="cls-1" d="M134.13,142.73h-4.24l-5.38-7.43c-.4.02-.72.02-.97.02-.1,0-.21,0-.33,0s-.24,0-.36-.02v4.62c0,1,.11,1.62.33,1.86.3.34.74.52,1.34.52h.62v.43h-6.81v-.43h.6c.67,0,1.15-.22,1.44-.66.16-.24.25-.82.25-1.72v-10.27c0-1-.11-1.62-.33-1.86-.3-.34-.76-.52-1.36-.52h-.6v-.43h5.79c1.69,0,2.93.12,3.73.37s1.48.7,2.04,1.36.84,1.45.84,2.36c0,.98-.32,1.82-.96,2.54s-1.62,1.23-2.96,1.52l3.28,4.56c.75,1.05,1.39,1.74,1.93,2.09s1.24.56,2.11.66v.43ZM122.84,134.56c.15,0,.28,0,.39,0s.2,0,.27,0c1.52,0,2.66-.33,3.43-.98s1.15-1.49,1.15-2.51-.31-1.8-.93-2.42-1.44-.93-2.47-.93c-.45,0-1.07.07-1.84.22v6.61Z"/>
      <path class="cls-1" d="M139.91,131.68c1.62,0,2.93.62,3.91,1.85.84,1.05,1.25,2.27,1.25,3.63,0,.96-.23,1.93-.69,2.92s-1.1,1.73-1.9,2.23-1.71.75-2.7.75c-1.62,0-2.9-.64-3.86-1.93-.8-1.09-1.21-2.3-1.21-3.66,0-.98.24-1.96.73-2.94s1.13-1.69,1.93-2.16,1.64-.7,2.53-.7ZM139.55,132.44c-.41,0-.83.12-1.25.37s-.76.68-1.01,1.29-.39,1.41-.39,2.38c0,1.56.31,2.91.93,4.04s1.44,1.7,2.46,1.7c.76,0,1.38-.31,1.88-.94s.74-1.7.74-3.22c0-1.91-.41-3.41-1.23-4.5-.55-.75-1.26-1.12-2.12-1.12Z"/>
      <path class="cls-1" d="M149.85,133.97c.78-.78,1.24-1.23,1.38-1.35.35-.3.73-.53,1.14-.69s.81-.25,1.21-.25c.67,0,1.25.2,1.73.59s.81.96.97,1.7c.8-.94,1.48-1.55,2.04-1.85s1.12-.44,1.71-.44,1.08.15,1.52.44.79.77,1.05,1.44c.17.45.26,1.16.26,2.13v4.62c0,.67.05,1.13.15,1.38.08.17.22.32.43.44s.55.18,1.03.18v.42h-5.3v-.42h.22c.46,0,.82-.09,1.08-.27.18-.12.31-.32.39-.6.03-.13.05-.51.05-1.14v-4.62c0-.88-.11-1.49-.32-1.85-.3-.5-.79-.75-1.46-.75-.41,0-.83.1-1.25.31s-.92.59-1.52,1.15l-.02.13.02.5v5.12c0,.73.04,1.19.12,1.37s.24.33.46.45.61.18,1.16.18v.42h-5.43v-.42c.59,0,1-.07,1.22-.21s.38-.35.46-.63c.04-.13.06-.52.06-1.16v-4.62c0-.88-.13-1.5-.39-1.89-.34-.5-.82-.75-1.44-.75-.42,0-.84.11-1.25.34-.65.34-1.15.73-1.5,1.16v5.75c0,.7.05,1.16.15,1.37s.24.37.43.47.58.16,1.17.16v.42h-5.31v-.42c.49,0,.84-.05,1.03-.16s.34-.27.45-.5.15-.68.15-1.34v-4.1c0-1.18-.04-1.94-.11-2.29-.05-.26-.14-.44-.26-.53s-.28-.15-.48-.15c-.22,0-.48.06-.79.18l-.18-.42,3.23-1.31h.5v2.29Z"/>
      <path class="cls-1" d="M171.41,141.19c-1.1.85-1.79,1.34-2.07,1.48-.42.2-.87.29-1.35.29-.74,0-1.35-.25-1.83-.76s-.72-1.18-.72-2c0-.52.12-.98.35-1.36.32-.53.88-1.03,1.67-1.5s2.11-1.04,3.96-1.71v-.42c0-1.07-.17-1.8-.51-2.2s-.83-.6-1.48-.6c-.49,0-.88.13-1.17.4-.3.27-.45.57-.45.91l.02.68c0,.36-.09.64-.28.83s-.42.29-.72.29-.53-.1-.71-.3-.28-.48-.28-.83c0-.67.34-1.29,1.03-1.85s1.65-.84,2.89-.84c.95,0,1.73.16,2.34.48.46.24.8.62,1.02,1.14.14.34.21,1.02.21,2.06v3.64c0,1.02.02,1.65.06,1.88s.1.38.19.46.19.12.31.12c.12,0,.23-.03.33-.08.16-.1.48-.39.95-.86v.66c-.88,1.17-1.71,1.76-2.51,1.76-.38,0-.69-.13-.91-.4s-.34-.72-.35-1.36ZM171.41,140.42v-4.09c-1.18.47-1.94.8-2.29,1-.62.34-1.06.7-1.32,1.08s-.4.79-.4,1.23c0,.56.17,1.03.5,1.4s.72.56,1.16.56c.59,0,1.38-.39,2.34-1.17Z"/>
      <path class="cls-1" d="M179.11,133.96c1.26-1.52,2.46-2.27,3.6-2.27.59,0,1.09.15,1.51.44s.76.78,1.01,1.45c.17.47.26,1.19.26,2.16v4.58c0,.68.05,1.14.16,1.38.09.2.22.35.42.46s.54.16,1.06.16v.42h-5.31v-.42h.22c.5,0,.85-.08,1.05-.23s.34-.38.42-.67c.03-.12.05-.48.05-1.1v-4.39c0-.98-.13-1.69-.38-2.13s-.68-.66-1.28-.66c-.93,0-1.86.51-2.78,1.52v5.66c0,.73.04,1.18.13,1.35.11.23.26.39.45.5s.58.16,1.17.16v.42h-5.31v-.42h.23c.55,0,.92-.14,1.11-.42s.29-.81.29-1.59v-3.98c0-1.29-.03-2.07-.09-2.36s-.15-.47-.27-.57-.28-.15-.49-.15c-.22,0-.48.06-.79.18l-.18-.42,3.23-1.31h.5v2.27Z"/>
    </g>
    <g>
      <path class="cls-1" d="M101.17,238.34c7.8,6,11.55,13.2,11.55,23.4,0,14.1-12.45,27-29.25,33.45-11.1,4.2-25.5,7.5-34.5,7.8-1.65,0-2.55-.75-2.55-1.8,0-1.2.75-1.95,2.25-2.25,11.1-2.1,21.45-4.95,31.95-10.8,9.6-5.4,20.55-16.5,20.55-28.8,0-9.45-2.4-14.4-7.2-18.9-5.25-4.8-11.4-6.45-17.25-7.05-8.25,13.35-17.85,25.5-29.25,36.3,1.2,3.15,2.25,5.25,3.3,7.5.6,1.2,1.05,3,1.05,4.2,0,1.8-1.5,3.45-4.05,3.45-1.8,0-3.3-1.35-5.1-3.75-1.2-1.65-1.95-3.45-2.55-4.95-10.2,8.25-21.45,14.25-28.5,14.25-8.1,0-10.95-5.55-10.95-12.75,0-10.65,7.95-22.5,18-30.3,4.8-3.75,11.55-7.95,17.4-10.5.45-8.7,1.2-15.75,2.25-23.55-3.75.45-7.5.6-9.9.6-9.45,0-14.7-3.75-18.45-9.3-.9-1.35-1.5-3-1.5-3.75,0-.6.6-1.05,1.05-1.05.75,0,1.35.45,2.1,1.05,4.65,4.35,7.8,5.85,15.9,5.85,3.9,0,8.25-.45,12-1.05.6-4.2,1.05-6.9,1.5-10.65.15-1.8.45-3.75.45-5.25,0-3-.9-3.75-3.9-5.25-1.65-.75-3-.9-4.5-1.2-.9-.15-1.5-.75-1.5-1.5s1.05-1.5,1.95-1.8c2.25-.9,4.65-.9,6-.9,2.85,0,6.6,1.35,10.05,3.45,2.55,1.65,5.25,4.05,5.25,6.6,0,1.5-.75,2.85-2.25,3.75-1.8,1.2-2.7,3.75-4.35,11.25,9.15-2.25,17.1-4.8,24.15-8.25,1.95-1.05,4.8-1.8,7.5-1.95,2.85,0,5.85,1.5,5.85,4.2,0,1.95-.9,3-3,4.05-3.75,1.8-9,3.6-16.2,5.55-6.15,1.65-12.6,3.15-20.25,4.5-1.35,7.35-2.55,14.85-2.85,21.6,7.5-2.55,16.35-4.2,25.35-4.95.3-.6.45-1.65.45-2.4,0-2.7-2.4-4.8-4.95-5.85-1.05-.45-1.35-1.05-1.35-1.5,0-.75,1.35-1.5,3.3-1.5,3.75,0,7.35,1.95,11.1,5.85,1.35,1.2,1.95,2.85,1.95,3.45-.15,1.35-.3,1.95-.45,2.4,7.5.9,16.05,3.75,22.35,9ZM35.77,242.69c-11.25,6-26.4,19.65-26.4,32.1,0,4.8,1.5,6.3,4.05,6.3,7.35,0,14.55-4.5,24.6-11.85-1.95-8.7-2.4-17.7-2.25-26.55ZM44.92,263.24c9.45-8.85,17.25-20.25,22.5-29.7-7.5.45-17.1,2.85-24.45,5.7-.15,11.25.3,17.1,1.95,24Z"/>
      <path class="cls-1" d="M180.97,278.24c1.05,2.25,1.8,3.9,2.55,5.55.45.9.75,1.65.75,2.7,0,1.8-1.2,3.45-3.45,3.45-1.65,0-3.45-1.05-5.25-3.75-.45-.6-.9-1.35-1.2-2.25-6.9,5.85-15.75,10.5-21.75,10.5s-9-3.45-9-9.9,3.15-12.75,9.45-19.35c4.95-5.25,12.3-10.2,18.3-12.9.3-5.85.9-11.55,1.8-17.7-3,.3-5.4.45-7.05.45-7.35,0-12.3-3.15-15.45-7.8-.75-1.05-.9-1.8-.9-2.7,0-.6.75-1.35,1.35-1.35s1.05.45,1.65,1.05c3.9,3.6,7.35,4.5,12.15,4.5,3.3,0,5.85-.3,9.15-.75,1.05-6.9,1.5-9.75,1.5-12.6,0-2.25-1.05-3.15-2.7-3.9-1.2-.45-2.55-.6-3.9-.75-.9-.15-1.35-.3-1.35-.9s.45-1.2,1.2-1.65c1.35-.9,3-1.35,4.65-1.35,2.4,0,7.05,1.5,9.6,3.45,1.95,1.35,4.2,3.3,4.2,5.1,0,1.2-1.05,2.4-2.55,3.45-1.35.9-2.25,2.85-3.15,7.8,3.3-.75,6.45-1.5,9-2.4,4.5-1.5,7.5-3.15,9.3-4.2s4.05-1.65,6-1.65c2.85,0,5.25,1.65,5.25,4.05,0,1.35-.75,2.4-2.25,3.3-3,1.65-7.5,3.15-13.65,4.8-4.65,1.2-9.45,2.25-15.3,3.3-.9,5.1-2.1,11.4-2.25,15.75,6-2.1,12.3-3.3,19.5-3.9.3-.6.3-1.2.3-1.8,0-1.8-2.1-3.3-4.2-4.2-.75-.3-1.05-.45-1.05-.9,0-.6,1.05-1.5,3.9-1.5,2.1,0,4.65.9,7.2,3.3,1.95,1.8,2.85,2.7,2.85,4.05,0,.45,0,1.05-.3,1.65,5.55.45,11.85,2.55,17.1,6.75,5.85,4.35,9.45,10.5,9.45,18.75,0,11.7-8.1,19.95-19.95,25.2-10.35,4.5-21.9,6.6-30.3,6.9-1.5,0-2.1-.75-2.1-1.65,0-1.05.6-1.5,1.8-1.8,8.25-1.65,17.85-4.05,26.4-9.3,8.25-4.95,14.1-12.15,14.1-21.75,0-6.15-2.25-10.95-6.6-14.55-3.9-3.15-7.95-4.05-12.3-4.35-5.25,8.85-13.8,19.35-22.5,27.75ZM170.92,257.69c-5.7,3.3-10.35,7.35-13.95,11.85-3.9,4.8-5.55,9.45-5.55,12.75,0,3,1.05,4.05,3.15,4.05,6.15,0,11.1-3.6,17.85-8.55-1.5-6.45-1.5-13.35-1.5-20.1ZM178.72,272.54c6.75-6.45,12.75-14.7,16.8-22.2-5.55.45-12,1.8-18,4.2-.15,5.4.3,12.6,1.2,18Z"/>
    </g>
    <g>
      <path class="cls-1" d="M1.63,343.67c0-.68.13-1.3.13-1.94,0-1.5-.2-2.02-1.69-2.4-.13-.02-.04-.33.09-.31.42.09.66.13.92.13.46,0,.7-.2.95-.64.92-1.94,1.8-4.11,3.08-7.44.04-.13.33,0,.29.13-.81,2.86-1.52,5.1-2.31,7.57-.13.37-.24.99-.24,1.34,0,1.01.7,2.11.7,3.15,0,.95-.4,1.47-1.08,1.47-.53,0-.84-.35-.84-1.08ZM1.83,332.95c-.35-.92-.9-1.69-1.63-2.24-.07-.04,0-.22.09-.2,1.98.31,3.04,1.12,3.04,2.2,0,.53-.33.95-.77.95-.37,0-.55-.2-.73-.7ZM3.08,327.67c-.29-.86-.77-1.56-1.63-2.27-.09-.07.02-.24.13-.22,1.89.35,3.08,1.21,3.08,2.33,0,.55-.35.97-.81.97-.35,0-.57-.22-.77-.81ZM8.51,329.83c0,1.21-.04,2.44-.13,3.65h1.56c.62-.68.73-.77.86-.77.15,0,.31.09.92.64.29.26.37.4.37.53s-.09.22-.51.53c-.13,4.11-.44,6.84-.92,8.41-.2.66-.48,1.14-.95,1.43-.33.24-.75.35-1.17.35-.26,0-.35-.11-.37-.37-.04-.57-.35-.9-1.39-1.28-.11-.04-.09-.29.02-.26.9.11,1.36.15,1.8.15.48,0,.66-.2.86-1.21.35-1.78.64-4.66.68-7.59h-1.83c-.2,2.27-.57,4.11-1.19,5.68-.73,2-1.69,3.63-3.06,5.04-.07.09-.29-.07-.22-.15.95-1.52,1.61-3.17,2.18-5.26.64-2.49.95-5.5.95-9.5h-.79c-.46,0-.84.02-1.41.11l-.22-.84c.64.11,1.03.18,1.61.18h1.36v-2.35c0-.7-.04-1.28-.11-1.98,2.07.22,2.33.4,2.33.64,0,.18-.15.35-.7.57v3.12h.97c.73-.92.88-1.03,1.01-1.03.15,0,.31.11,1.03.75.35.33.44.48.44.62,0,.15-.07.22-.31.22h-3.7ZM14.41,329.01c-.68,1.23-1.54,2.33-2.77,3.45-.09.07-.29-.07-.22-.15,1.1-1.65,1.87-3.48,2.31-5.33.15-.68.24-1.39.29-2.07,1.96.53,2.27.64,2.27.92,0,.22-.18.35-.77.44-.24.79-.51,1.5-.84,2.18h3.21c.81-1.01.99-1.12,1.14-1.12.13,0,.29.11,1.08.84.37.33.46.48.46.62,0,.15-.07.22-.29.22h-5.87ZM16.7,339.04c0,2.4.09,3.41.09,4,0,.68-.24,1.19-.88,1.52-.31.13-.68.22-.99.22-.26,0-.35-.07-.42-.48-.09-.51-.37-.73-1.8-1.1-.13-.04-.13-.35,0-.33,1.03.11,1.67.15,2.2.15.26,0,.37-.09.37-.35v-4.97h-1.87c-.46,0-.77.04-1.32.13l-.22-.84c.62.11.99.15,1.52.15h1.89v-.13c0-1.34-.02-1.87-.11-2.66.51.07.9.11,1.21.15.64-.84.9-1.3,1.25-2.13h-3.17c-.53,0-.88.02-1.43.15l-.24-.86c.66.11,1.08.15,1.61.15h3.17c.62-.77.75-.84.9-.84s.26.07.97.77c.4.4.46.53.46.68,0,.24-.13.31-.9.42-.77.79-1.39,1.32-2.09,1.76.48.09.55.2.55.31,0,.15-.13.29-.75.53v1.69h1.3c.77-.97.92-1.08,1.08-1.08s.31.11,1.17.79c.37.35.48.51.48.64s-.09.2-.29.2h-3.74v1.34Z"/>
      <path class="cls-1" d="M24.88,339.31c0,.46-.31.68-.95.68-.53,0-.66-.2-.66-.57,0-.81.09-2.44.09-7.53,0-2.95-.02-4.47-.13-6.01.77.35,1.12.51,1.83.95h3.39c.68-.75.79-.81.92-.81.15,0,.29.07.97.62.33.26.42.38.42.53,0,.18-.07.29-.55.64v2.9c0,4.93.11,7.55.11,8.27,0,.46-.33.68-.97.68-.46,0-.68-.15-.68-.55v-1.1h-3.79v1.3ZM28.67,327.38h-3.79v4.55h3.79v-4.55ZM24.88,337.46h3.79v-4.97h-3.79v4.97ZM34.03,336.82c-.22,1.19-.51,2.16-.9,2.97-1.01,2.09-2.51,3.74-4.91,5.02-.13.07-.35-.18-.24-.26,1.96-1.61,3.04-3.15,3.83-5.17.75-1.94,1.01-4.31,1.01-9.04,0-2.64-.02-3.59-.15-5.06.84.35,1.19.53,1.94.99h4.82c.7-.75.84-.84.97-.84s.26.09,1.01.7c.33.29.42.4.42.55s-.09.24-.59.59v3.81c0,10.03.09,10.76.09,11.75,0,.88-.26,1.28-.79,1.61-.35.22-.86.33-1.23.33-.33,0-.4-.07-.44-.37-.11-.68-.53-.92-2.4-1.3-.11-.02-.11-.29,0-.29,1.45.09,2.18.11,2.79.11.29,0,.4-.11.4-.42v-5.68h-5.61ZM34.41,331.85c-.02,1.47-.09,2.95-.29,4.42h5.52v-4.42h-5.24ZM39.65,326.81h-5.21v4.49h5.21v-4.49Z"/>
      <path class="cls-1" d="M50.23,340.06h1.72c.73-.88.88-.99,1.01-.99.15,0,.31.11,1.14.75.33.29.44.42.44.55,0,.18-.07.24-.29.24h-4.03c0,1.72.07,3.26.07,3.74s-.29.68-.99.68c-.53,0-.68-.18-.68-.57,0-.31.09-1.39.09-3.32v-.53h-3.04c-.46,0-.84.02-1.39.13l-.22-.84c.62.11,1.03.15,1.61.15h3.04v-2.88h-1.83v.15c0,.46-.31.66-.9.66-.46,0-.64-.18-.64-.59,0-.53.07-1.41.07-4.33,0-1.41,0-2.13-.07-3.04.7.29,1.01.44,1.67.84h1.67v-2.57h-2.84c-.42,0-.77.04-1.3.13l-.24-.84c.62.13,1.01.15,1.54.15h2.84v-.88c0-.88-.02-1.47-.09-2.22,2.09.22,2.31.4,2.31.62,0,.18-.15.33-.68.53v1.96h2.13c.73-.95.88-1.06,1.01-1.06.15,0,.31.11,1.19.84.35.29.46.42.46.55,0,.15-.09.22-.29.22h-4.51v2.57h1.74c.59-.64.73-.73.86-.73.15,0,.29.07.9.57.31.24.4.42.4.55,0,.15-.11.26-.53.57v1.34c0,2.57.04,3.81.04,4.18,0,.44-.31.64-.92.64-.42,0-.62-.15-.62-.51v-.31h-1.87v2.88ZM52.1,331.41h-5.21v2.27h5.21v-2.27ZM46.88,336.62h5.21v-2.4h-5.21v2.4ZM57.07,337.04c-.15.99-.33,1.83-.55,2.57-.68,2.16-1.78,3.63-3.72,5.28-.11.11-.4-.13-.29-.24,1.43-1.67,2.29-3.3,2.73-5.37.42-1.96.59-4.42.59-8.54,0-3.26-.02-4.25-.11-5.46.79.37,1.14.55,1.87.99h3.87c.66-.73.79-.81.92-.81s.29.07.99.64c.35.29.42.44.42.57,0,.18-.09.26-.57.62v3.83c0,9.73.07,10.65.09,11.71,0,.86-.22,1.25-.84,1.58-.31.2-.86.33-1.21.33-.33,0-.35-.11-.44-.46-.13-.62-.66-.9-2.13-1.23-.11-.02-.11-.26,0-.26,1.21.09,2,.13,2.62.13.29,0,.37-.11.37-.4v-5.48h-4.62ZM57.4,331.85c-.02,1.54-.09,3.1-.26,4.64h4.55v-4.64h-4.29ZM61.69,326.83h-4.27v2.4c0,.73,0,1.41-.02,2.07h4.29v-4.47Z"/>
      <path class="cls-1" d="M70.18,335.85c0,5.21.02,7.63.02,8.38,0,.53-.31.77-.95.77-.44,0-.75-.2-.75-.68s.09-2.02.11-7.15c.02-1.39.02-2.75.04-4.14-.77.99-1.63,1.94-2.62,2.84-.11.11-.35-.13-.26-.24,1.74-2.13,3.3-5.26,4.14-8.01.31-.99.51-1.91.62-2.77,1.91.57,2.44.84,2.44,1.06s-.22.35-.84.44c-.75,2.05-1.54,3.76-2.53,5.3,1.06.18,1.23.26,1.23.48,0,.18-.11.31-.66.55v3.17ZM77.46,339.26c.04-1.72.07-3.43.11-6.82-1.65,3.32-3.65,5.76-6.69,7.83-.13.09-.37-.15-.26-.26,2.71-2.55,4.78-5.79,5.99-9.24h-3.46c-.53,0-.88.04-1.45.13l-.22-.84c.66.13,1.06.15,1.63.15h4.38v-2.31c0-1.52-.02-2.05-.13-2.97,2.05.22,2.49.37,2.49.66,0,.2-.15.35-.79.64v3.98h4.25c.97-1.17,1.12-1.28,1.25-1.28.18,0,.29.07,1.23.9.44.4.62.59.62.73s-.09.2-.31.2h-6.82c.81,2.05,2.02,3.65,3.54,5.08,1.32,1.25,2.73,2.11,4.11,2.73.11.04.02.22-.09.24-.46.09-.73.37-.99,1.01-.11.33-.2.4-.4.4-.13,0-.37-.13-.7-.37-1.21-.84-2.24-2.02-3.1-3.21-1.01-1.45-1.98-3.32-2.64-5.54.02,2.71.07,5.44.11,8.16h1.47c.75-.92.92-1.03,1.06-1.03s.29.11,1.12.81c.35.29.44.44.44.57s-.07.2-.29.2h-3.81c.04,2.16.07,3.92.07,4.42s-.31.7-1.03.7c-.53,0-.75-.2-.75-.57,0-.57.02-2.38.07-4.55h-2.22c-.46,0-.81.04-1.39.13l-.22-.84c.62.13,1.01.15,1.56.15h2.27Z"/>
    </g>
  </g>
</svg>