<?xml version="1.0" encoding="UTF-8"?>
<svg id="_レイヤー_2" data-name="レイヤー 2" xmlns="http://www.w3.org/2000/svg" viewBox="0 0 232.69 341.59">
  <defs>
    <style>
      .cls-1 {
        fill: #020926;
        stroke-width: 0px;
      }
    </style>
  </defs>
  <g id="_レイヤー_1-2" data-name="レイヤー 1">
    <g>
      <path class="cls-1" d="M55.09,3.9c1.2,4.05,3.75,10.8,6.6,18.6,7.8,21.9,19.05,51.6,21.6,57.75,4.95,12.3,7.35,13.5,14.1,15.15,2.4.75,3.6,1.5,3.6,2.55s-1.05,1.95-4.8,1.95c-4.95,0-12.3-.75-18.9-.75-4.8,0-6.9.3-10.65.3s-4.65-1.05-4.65-1.8.9-1.95,3.6-2.4c7.2-1.5,6.6-4.5,6-7.65-1.2-6.15-4.95-16.05-8.4-25.65-.15-.6-.75-1.5-5.1-1.5-8.25,0-21.45.15-24.6.6-.6,0-1.35.75-1.65,1.2-3.9,9.75-7.8,22.5-7.8,26.25,0,1.8.6,4.35,7.35,6.45,2.55.75,4.05,1.65,4.05,2.7,0,1.5-2.25,1.95-4.2,1.95-2.55,0-6.3-.45-11.85-.45s-13.35.75-15.6.75c-2.7,0-3.45-.6-3.45-1.5s1.05-2.25,3.3-3c7.5-2.55,9.45-3,13.8-12.75,3.45-7.65,20.55-52.95,26.85-68.25.9-2.1,1.05-3,1.35-3.9.15-.45.45-1.35,1.05-2.55.9-1.5,2.55-4.35,3.6-6,1.05-1.2,1.65-1.95,2.4-1.95.6,0,1.2.6,2.4,3.9ZM59.89,52.5c-2.55-7.65-10.35-30.15-11.7-32.25-.45-.9-.75-1.05-1.2,0-2.7,7.2-10.5,28.2-11.7,32.85-.15.6.15,1.05.75,1.05,6-.15,18.45,0,23.4-.45.15,0,.6-.75.45-1.2Z"/>
      <path class="cls-1" d="M145.84,45.6c2.25,3.15,3,6.15,3,12.45,0,5.85-.6,24.75-.6,26.4,0,6.9,4.8,7.5,6,7.5.6,0,4.05-1.05,5.7-2.25.45-.3.6,0,.9.45.45.45.45,1.35.45,1.5,0,2.85-6.75,9.3-13.5,9.3-3.45,0-7.8-1.95-9.6-7.5,0-.15-.6-.75-.9-.6-5.55,3.9-12,6.45-13.5,6.9-1.65.6-5.25.9-6,.9-5.25,0-10.35-6.45-10.35-13.95,0-2.7,1.2-5.55,2.85-7.65,1.5-1.95,3.75-2.7,6-3.75,2.25-.9,14.25-4.2,17.55-5.25,3.45-1.05,4.35-1.8,4.35-2.7.15-1.35.3-10.5.3-12.3,0-3.75-4.35-10.05-11.7-10.05-3.15,0-5.1.9-6.15,1.65-.9.45-1.35,3.15-1.05,6.15,0,.45-.6,1.35-.9,1.65-1.5,1.2-9,4.95-9.75,4.95-.9,0-1.8-1.2-1.8-1.95,0-4.35,4.2-8.55,11.25-13.2,4.35-3.15,11.1-5.7,13.95-5.7,7.5,0,11.25,3.75,13.5,7.05ZM135.94,90.3c.9-.6,1.8-3.45,1.8-3.75.3-3.6.3-8.7.3-11.7,0-.45-.6-1.2-1.2-1.2-4.2,0-11.4,2.55-15.45,4.5-1.5,1.05-3,2.1-3,5.7,0,6.6,6.3,9,9.45,9,2.25,0,5.25-1.05,8.1-2.55Z"/>
    </g>
    <g>
      <path class="cls-1" d="M12.89,124.95c.48.1.65.12.91.19.1,0,.29.19.29.58.02.58.34,1.73.34,2.64,0,.31-.14.53-.31.53-.14,0-.29-.19-.43-.55-.24-.65-.55-1.22-.91-1.68-.53-.65-1.92-1.49-3.84-1.49-4.1,0-6.53,3.36-6.53,7.15,0,1.7.38,3.22,1.08,4.37,1.27,2.16,3.58,3.31,5.81,3.31.29,0,1.49-.14,2.16-.58.19-.12.5-.94.5-1.25,0-.84-.02-2.21-.07-2.5-.17-.55-.36-1.01-2.16-1.13-.36-.02-.62-.22-.62-.41,0-.17.26-.34.72-.34.43,0,2.18.1,2.88.1.58,0,1.39-.1,2.16-.1.38,0,.65.12.65.31,0,.17-.26.31-.55.41-.72.22-.77.48-.86.74-.1.26-.12,1.99-.12,2.98,0,.38.22.62.34.7.43.24.41.31.41.43,0,.1-.1.26-.36.34-.43.12-1.25.31-2.18.58-1.03.29-2.52.43-3.31.43-2.69,0-4.92-.86-6.38-2.18-1.1-1.06-2.47-3.02-2.47-5.9,0-2.14.74-4.32,2.71-6.05,1.51-1.34,3.82-2.16,6.14-2.16,1.75,0,3.02.31,4.03.53Z"/>
      <path class="cls-1" d="M23.42,131.72c.36.5.48.98.48,1.99,0,.94-.1,3.96-.1,4.22,0,1.1.77,1.2.96,1.2.1,0,.65-.17.91-.36.07-.05.1,0,.14.07.07.07.07.22.07.24,0,.46-1.08,1.49-2.16,1.49-.55,0-1.25-.31-1.54-1.2,0-.02-.1-.12-.14-.1-.89.62-1.92,1.03-2.16,1.1-.26.1-.84.14-.96.14-.84,0-1.66-1.03-1.66-2.23,0-.43.19-.89.46-1.22.24-.31.6-.43.96-.6.36-.14,2.28-.67,2.81-.84.55-.17.7-.29.7-.43.02-.22.05-1.68.05-1.97,0-.6-.7-1.61-1.87-1.61-.5,0-.82.14-.98.26-.14.07-.22.5-.17.98,0,.07-.1.22-.14.26-.24.19-1.44.79-1.56.79-.14,0-.29-.19-.29-.31,0-.7.67-1.37,1.8-2.11.7-.5,1.78-.91,2.23-.91,1.2,0,1.8.6,2.16,1.13ZM21.84,138.88c.14-.1.29-.55.29-.6.05-.58.05-1.39.05-1.87,0-.07-.1-.19-.19-.19-.67,0-1.82.41-2.47.72-.24.17-.48.34-.48.91,0,1.06,1.01,1.44,1.51,1.44.36,0,.84-.17,1.3-.41Z"/>
      <path class="cls-1" d="M27.34,131.43c.79-.26,1.54-.62,1.78-.77.29-.19.41-.29.48-.29.1,0,.22.22.22.29,0,.43-.05.86-.05,1.32,0,.1.12.12.17.1.94-.89,1.99-1.49,2.74-1.49.98,0,1.2.6,1.2.82,0,.05-.07.22-.14.34-.26.38-.84,1.03-.98,1.1-.05.02-.26-.02-.34-.07-.26-.24-.84-.53-1.32-.53-.41,0-.82.07-1.06.34-.17.19-.24.41-.24.53,0,.48.12,4.82.14,5.18.05.7.19,1.15.62,1.22.31.07.74.19,1.1.29.38.12.43.29.43.38,0,.12-.22.22-.58.22-.6,0-1.44-.12-2.83-.12-.72,0-1.01.1-1.58.1-.26,0-.5-.1-.5-.29,0-.14.29-.24.48-.31.94-.31,1.01-.55,1.03-1.99v-4.58c0-.24,0-.55-.26-.72-.58-.46-.82-.55-.82-.65,0-.07.05-.31.31-.41Z"/>
      <path class="cls-1" d="M41.11,131.72c.36.5.48.98.48,1.99,0,.94-.1,3.96-.1,4.22,0,1.1.77,1.2.96,1.2.1,0,.65-.17.91-.36.07-.05.1,0,.14.07.07.07.07.22.07.24,0,.46-1.08,1.49-2.16,1.49-.55,0-1.25-.31-1.54-1.2,0-.02-.1-.12-.14-.1-.89.62-1.92,1.03-2.16,1.1-.26.1-.84.14-.96.14-.84,0-1.66-1.03-1.66-2.23,0-.43.19-.89.46-1.22.24-.31.6-.43.96-.6.36-.14,2.28-.67,2.81-.84.55-.17.7-.29.7-.43.02-.22.05-1.68.05-1.97,0-.6-.7-1.61-1.87-1.61-.5,0-.82.14-.98.26-.14.07-.22.5-.17.98,0,.07-.1.22-.14.26-.24.19-1.44.79-1.56.79-.14,0-.29-.19-.29-.31,0-.7.67-1.37,1.8-2.11.7-.5,1.78-.91,2.23-.91,1.2,0,1.8.6,2.16,1.13ZM39.53,138.88c.14-.1.29-.55.29-.6.05-.58.05-1.39.05-1.87,0-.07-.1-.19-.19-.19-.67,0-1.82.41-2.47.72-.24.17-.48.34-.48.91,0,1.06,1.01,1.44,1.51,1.44.36,0,.84-.17,1.3-.41Z"/>
      <path class="cls-1" d="M45.22,131.46c.48-.19,1.56-.82,1.82-.98.1-.07.14-.1.19-.1.12.02.29.19.29.24,0,.34-.1,1.01-.1,1.25,0,.07.05.24.14.14.6-.48,2.09-1.39,3.22-1.39.86,0,1.44.17,1.87.48.43.31.67.67.77.84.05.1.1.14.19.1.46-.34,1.08-.72,1.7-1.03.55-.26,1.1-.38,1.54-.38.89,0,1.56.29,2.06.82.53.6.74,1.44.79,2.3.1,1.25.05,2.93.05,4.9.02.43.17.89,1.03,1.13.31.1.46.19.46.34,0,.17-.22.26-.67.26-.48,0-1.13-.07-1.73-.07-.72,0-1.08.05-1.63.05-.46,0-.6-.14-.6-.31,0-.14.26-.24.53-.31.77-.24.86-.53.86-1.37,0-.58-.05-3.26-.05-4.06,0-.84-.14-1.18-.38-1.61-.29-.46-.82-.84-1.82-.84-1.08,0-1.51.46-1.85.74-.07.07-.24.53-.24.7s-.05,4.7,0,5.23c.07.77.19,1.01,1.01,1.2.26.07.5.22.5.34,0,.17-.19.29-.58.29-.53,0-1.25-.05-1.8-.05-.5,0-1.2.05-1.7.05-.55,0-.62-.19-.62-.29,0-.07.1-.24.48-.34.82-.19.91-.43.91-1.3v-4.7c0-.7-.14-1.01-.31-1.22-.31-.41-.94-.72-1.8-.72-.79,0-1.34.29-1.92.74-.17.14-.24.34-.26.6-.05.62-.05,3.65-.05,5.47,0,.46.1.84.86,1.08.46.14.65.24.65.43,0,.17-.34.24-.65.24-.1,0-.98-.05-1.9-.05-.79,0-1.27.07-1.8.07-.36,0-.6-.1-.6-.26,0-.1.14-.26.58-.36.77-.19.91-.55,1.01-1.58.05-.7.07-3.1.07-4.75,0-.12.05-.43-.17-.65-.67-.62-.84-.74-.84-.86,0-.14.22-.29.48-.43Z"/>
      <path class="cls-1" d="M72.58,135.49c0,1.99-1.2,3.55-2.09,4.13-.96.7-1.9.96-2.98.96s-2.3-.5-3.19-1.25c-1.03-.84-1.78-2.47-1.78-3.67,0-1.82.77-2.98,1.68-3.74.74-.65,1.94-1.32,3.55-1.32,2.38,0,4.8,1.87,4.8,4.9ZM65.76,132.01c-.62.58-1.18,1.82-1.18,3.07,0,.79.1,1.54.29,2.14.6,1.8,1.97,2.66,3.12,2.66.26,0,.79-.12,1.46-.79.6-.65,1.08-2.14,1.08-3.17,0-1.25-.29-2.62-1.2-3.67-.53-.58-1.39-.94-2.02-.94-.5,0-1.06.26-1.56.7Z"/>
      <path class="cls-1" d="M75.05,131.27c.41-.14,1.27-.46,1.61-.7.24-.14.46-.26.58-.26s.24.26.24.36c0,.41-.1.98-.1,1.2,0,.12.12.07.14.07.96-.65,2.21-1.32,3.22-1.32,1.18,0,1.85.53,2.18.91.53.62.84,1.73.84,2.93,0,.46.05,4.03.07,4.37.05.36.29.67.89.84.46.12.6.24.6.41s-.34.26-.72.26c-.55,0-1.1-.05-1.78-.05-.6,0-1.34.05-1.66.05-.21,0-.55-.1-.55-.29,0-.17.26-.31.55-.41.58-.22.7-.41.74-1.2.05-.79.07-3.7.07-4.39,0-.86-.43-1.56-.72-1.78-.26-.19-.98-.46-1.54-.46-1.06,0-1.68.36-2.14.77-.07.07-.24.36-.24.58,0,.31,0,5.47.02,5.76.02.34.12.53.89.74.24.07.43.22.43.36,0,.17-.26.29-.6.29-.29,0-.96-.02-1.46-.02-.89,0-1.58.07-1.99.07-.36,0-.62-.1-.62-.31,0-.17.24-.29.5-.36.79-.24.94-.48,1.01-1.34.07-.72.12-2.81.12-5.26,0-.26-.05-.5-.58-.94-.31-.22-.46-.34-.46-.41,0-.17.26-.41.43-.48Z"/>
      <path class="cls-1" d="M93.86,130.69c.1.02.17-.14.19-.26.12-.65.05-4.32-.02-4.9-.02-.12-.02-.41-1.13-.98-.22-.12-.24-.17-.24-.22,0-.1.26-.38.41-.41.55-.07,1.82-.43,2.45-.67.14-.05.22-.07.31-.07.07,0,.22.17.19.38-.12,1.27-.22,2.14-.22,9.48,0,4.63.05,5.02.05,5.47.05.89.24.98.38.98.26,0,1.06-.17,1.3-.19.1,0,.14.12.14.14,0,.17-.29.58-.41.6-.46.07-1.7.31-2.16.48-.55.19-.74.24-.86.24-.1,0-.26-.19-.26-.31,0-.22.05-.65.05-.98,0-.1-.1-.14-.14-.14-1.1.98-2.33,1.2-3.12,1.2-1.15,0-2.26-.53-3-1.32-.77-.86-1.15-2.09-1.15-3.29,0-2.35,1.37-3.72,2.54-4.42,1.1-.67,2.52-.91,3.17-.91.86,0,1.25.05,1.54.1ZM89.57,132.23c-.46.46-1.01,1.68-1.01,3.02,0,1.92,1.34,4.13,3.41,4.13.77,0,1.32-.26,1.75-.58.05-.05.36-.82.38-1.58.02-1.54,0-2.86-.07-3.98-.02-.19-.24-.62-.53-.91-.67-.67-1.58-.94-2.06-.94-.77,0-1.44.41-1.87.84Z"/>
      <path class="cls-1" d="M108.7,125.36c-.26,0-.5.1-.7.22-.1.07-.22.36-.24.94-.02.5-.02,3.48-.05,6.24,0,2.18.05,4.18.05,4.78.02,1.56.22,1.75,1.44,2.11.46.12.65.24.65.46s-.43.29-.79.29c-.6,0-1.46-.1-2.52-.1-.7,0-1.68.1-2.42.1-.41,0-.67-.12-.67-.34,0-.17.24-.31.48-.38,1.34-.29,1.61-.77,1.68-1.75.07-1.18.12-3.14.12-4.34,0-.79-.05-5.88-.07-6.65-.02-.86,0-1.2-1.34-1.39-.48-.07-.74-.22-.74-.36,0-.19.24-.31.55-.34.17-.02.58,0,.79,0,.96,0,2.81-.19,4.01-.19,2.18,0,3.6.58,4.49,1.42,1.15,1.1,1.39,2.47,1.39,3.26,0,2.14-.98,3.12-1.68,3.72-.62.53-1.73,1.06-2.76,1.06-.26,0-.89-.02-1.27-.17-.29-.12-.41-.24-.41-.38,0-.1.1-.22.29-.22h.6c1.27,0,3.05-1.13,3.05-3.89,0-2.18-1.66-4.08-3.91-4.08Z"/>
      <path class="cls-1" d="M117.22,131.43c.79-.26,1.54-.62,1.78-.77.29-.19.41-.29.48-.29.1,0,.21.22.21.29,0,.43-.05.86-.05,1.32,0,.1.12.12.17.1.94-.89,1.99-1.49,2.74-1.49.98,0,1.2.6,1.2.82,0,.05-.07.22-.14.34-.26.38-.84,1.03-.98,1.1-.05.02-.26-.02-.34-.07-.26-.24-.84-.53-1.32-.53-.41,0-.82.07-1.06.34-.17.19-.24.41-.24.53,0,.48.12,4.82.14,5.18.05.7.19,1.15.62,1.22.31.07.74.19,1.1.29.38.12.43.29.43.38,0,.12-.22.22-.58.22-.6,0-1.44-.12-2.83-.12-.72,0-1.01.1-1.58.1-.26,0-.5-.1-.5-.29,0-.14.29-.24.48-.31.94-.31,1.01-.55,1.03-1.99v-4.58c0-.24,0-.55-.26-.72-.58-.46-.82-.55-.82-.65,0-.07.05-.31.31-.41Z"/>
      <path class="cls-1" d="M131.71,131.53c.53.5.84,1.18.84,2.02,0,.14-.19.41-.46.41s-4.37,0-5.47-.02c-.07,0-.17.12-.19.19-.07.19-.12.6-.12.84,0,.94.38,2.04.91,2.74.53.72,1.54,1.32,2.69,1.32,1.06,0,1.78-.26,2.18-.86.1-.14.22-.29.31-.29.14,0,.19.17.19.29,0,.19-.1.46-.17.58-.84,1.22-2.11,1.8-3.48,1.8-2.59,0-4.32-1.97-4.32-4.78,0-1.92,1.01-3.84,2.88-4.71.62-.29,1.42-.43,1.82-.43.84,0,1.78.31,2.38.91ZM126.67,133.02c-.05.12.05.26.1.26.62.02,1.9.02,3.1,0,.58,0,.82-.12.82-.6,0-.67-.72-1.44-1.58-1.44-1.08,0-1.99.67-2.42,1.78Z"/>
      <path class="cls-1" d="M134.98,131.46c.48-.19,1.56-.82,1.82-.98.1-.07.14-.1.19-.1.12.02.29.19.29.24,0,.34-.1,1.01-.1,1.25,0,.07.05.24.14.14.6-.48,2.09-1.39,3.22-1.39.86,0,1.44.17,1.87.48.43.31.67.67.77.84.05.1.1.14.19.1.46-.34,1.08-.72,1.7-1.03.55-.26,1.1-.38,1.54-.38.89,0,1.56.29,2.06.82.53.6.74,1.44.79,2.3.1,1.25.05,2.93.05,4.9.02.43.17.89,1.03,1.13.31.1.46.19.46.34,0,.17-.22.26-.67.26-.48,0-1.13-.07-1.73-.07-.72,0-1.08.05-1.63.05-.46,0-.6-.14-.6-.31,0-.14.26-.24.53-.31.77-.24.87-.53.87-1.37,0-.58-.05-3.26-.05-4.06,0-.84-.14-1.18-.38-1.61-.29-.46-.82-.84-1.82-.84-1.08,0-1.51.46-1.85.74-.07.07-.24.53-.24.7s-.05,4.7,0,5.23c.07.77.19,1.01,1.01,1.2.26.07.5.22.5.34,0,.17-.19.29-.58.29-.53,0-1.25-.05-1.8-.05-.5,0-1.2.05-1.7.05-.55,0-.62-.19-.62-.29,0-.07.1-.24.48-.34.82-.19.91-.43.91-1.3v-4.7c0-.7-.14-1.01-.31-1.22-.31-.41-.94-.72-1.8-.72-.79,0-1.34.29-1.92.74-.17.14-.24.34-.26.6-.05.62-.05,3.65-.05,5.47,0,.46.1.84.87,1.08.46.14.65.24.65.43,0,.17-.34.24-.65.24-.1,0-.98-.05-1.9-.05-.79,0-1.27.07-1.8.07-.36,0-.6-.1-.6-.26,0-.1.14-.26.58-.36.77-.19.91-.55,1.01-1.58.05-.7.07-3.1.07-4.75,0-.12.05-.43-.17-.65-.67-.62-.84-.74-.84-.86,0-.14.22-.29.48-.43Z"/>
      <path class="cls-1" d="M152.81,140.39c-.38,0-.62-.1-.62-.26,0-.14.17-.26.58-.38.55-.14.91-.43.96-.67.07-.34.1-1.78.1-2.47s.02-3.46-.02-3.74c-.02-.17-.29-.36-.98-.86-.14-.1-.19-.17-.19-.26,0-.17.22-.36.48-.41.89-.19,2.02-.72,2.38-.82.1,0,.21.24.21.26,0,.26-.14,3.38-.14,4.75s.02,2.35.05,3.19c.02.77.55.82,1.15,1.01.38.12.53.24.53.41,0,.14-.29.24-.55.24-.17,0-1.37-.07-1.87-.07-.79,0-1.63.1-2.04.1ZM155.85,126.9c0,.65-.67,1.18-1.15,1.18-.17,0-.55-.1-.77-.29-.19-.22-.36-.48-.36-.89,0-.22.1-.6.29-.86.24-.22.6-.31.94-.31.65,0,1.06.74,1.06,1.18Z"/>
      <path class="cls-1" d="M165.48,131.53c.53.5.84,1.18.84,2.02,0,.14-.19.41-.46.41s-4.37,0-5.47-.02c-.07,0-.17.12-.19.19-.07.19-.12.6-.12.84,0,.94.38,2.04.91,2.74.53.72,1.54,1.32,2.69,1.32,1.06,0,1.78-.26,2.18-.86.1-.14.22-.29.31-.29.14,0,.19.17.19.29,0,.19-.1.46-.17.58-.84,1.22-2.11,1.8-3.48,1.8-2.59,0-4.32-1.97-4.32-4.78,0-1.92,1.01-3.84,2.88-4.71.62-.29,1.42-.43,1.82-.43.84,0,1.78.31,2.38.91ZM160.44,133.02c-.05.12.05.26.1.26.62.02,1.9.02,3.1,0,.58,0,.82-.12.82-.6,0-.67-.72-1.44-1.58-1.44-1.08,0-1.99.67-2.42,1.78Z"/>
      <path class="cls-1" d="M168.55,131.43c.79-.26,1.54-.62,1.78-.77.29-.19.41-.29.48-.29.1,0,.22.22.22.29,0,.43-.05.86-.05,1.32,0,.1.12.12.17.1.94-.89,1.99-1.49,2.74-1.49.98,0,1.2.6,1.2.82,0,.05-.07.22-.14.34-.26.38-.84,1.03-.98,1.1-.05.02-.26-.02-.34-.07-.26-.24-.84-.53-1.32-.53-.41,0-.82.07-1.05.34-.17.19-.24.41-.24.53,0,.48.12,4.82.14,5.18.05.7.19,1.15.62,1.22.31.07.74.19,1.1.29.38.12.43.29.43.38,0,.12-.22.22-.58.22-.6,0-1.44-.12-2.83-.12-.72,0-1.01.1-1.58.1-.26,0-.5-.1-.5-.29,0-.14.29-.24.48-.31.94-.31,1.01-.55,1.03-1.99v-4.58c0-.24,0-.55-.26-.72-.58-.46-.82-.55-.82-.65,0-.07.05-.31.31-.41Z"/>
      <path class="cls-1" d="M186.05,125.36c-.26,0-.5.1-.7.22-.1.07-.22.36-.24.94-.02.5-.02,3.48-.05,6.24,0,2.18.05,4.18.05,4.78.02,1.56.22,1.75,1.44,2.11.46.12.65.24.65.46s-.43.29-.79.29c-.6,0-1.46-.1-2.52-.1-.7,0-1.68.1-2.42.1-.41,0-.67-.12-.67-.34,0-.17.24-.31.48-.38,1.34-.29,1.61-.77,1.68-1.75.07-1.18.12-3.14.12-4.34,0-.79-.05-5.88-.07-6.65-.02-.86,0-1.2-1.34-1.39-.48-.07-.74-.22-.74-.36,0-.19.24-.31.55-.34.17-.02.58,0,.79,0,.96,0,2.81-.19,4.01-.19,2.18,0,3.6.58,4.49,1.42,1.15,1.1,1.39,2.47,1.39,3.26,0,2.14-.98,3.12-1.68,3.72-.62.53-1.73,1.06-2.76,1.06-.26,0-.89-.02-1.27-.17-.29-.12-.41-.24-.41-.38,0-.1.1-.22.29-.22h.6c1.27,0,3.05-1.13,3.05-3.89,0-2.18-1.66-4.08-3.91-4.08Z"/>
      <path class="cls-1" d="M194.57,131.43c.79-.26,1.54-.62,1.78-.77.29-.19.41-.29.48-.29.1,0,.21.22.21.29,0,.43-.05.86-.05,1.32,0,.1.12.12.17.1.94-.89,1.99-1.49,2.74-1.49.98,0,1.2.6,1.2.82,0,.05-.07.22-.14.34-.26.38-.84,1.03-.98,1.1-.05.02-.26-.02-.34-.07-.26-.24-.84-.53-1.32-.53-.41,0-.82.07-1.06.34-.17.19-.24.41-.24.53,0,.48.12,4.82.14,5.18.05.7.19,1.15.62,1.22.31.07.74.19,1.1.29.38.12.43.29.43.38,0,.12-.22.22-.58.22-.6,0-1.44-.12-2.83-.12-.72,0-1.01.1-1.58.1-.26,0-.5-.1-.5-.29,0-.14.29-.24.48-.31.94-.31,1.01-.55,1.03-1.99v-4.58c0-.24,0-.55-.26-.72-.58-.46-.82-.55-.82-.65,0-.07.05-.31.31-.41Z"/>
      <path class="cls-1" d="M211.99,135.49c0,1.99-1.2,3.55-2.09,4.13-.96.7-1.9.96-2.98.96s-2.3-.5-3.19-1.25c-1.03-.84-1.78-2.47-1.78-3.67,0-1.82.77-2.98,1.68-3.74.74-.65,1.95-1.32,3.55-1.32,2.38,0,4.8,1.87,4.8,4.9ZM205.18,132.01c-.62.58-1.18,1.82-1.18,3.07,0,.79.1,1.54.29,2.14.6,1.8,1.97,2.66,3.12,2.66.26,0,.79-.12,1.46-.79.6-.65,1.08-2.14,1.08-3.17,0-1.25-.29-2.62-1.2-3.67-.53-.58-1.39-.94-2.02-.94-.5,0-1.06.26-1.56.7Z"/>
    </g>
    <g>
      <path class="cls-1" d="M101.47,237.89c7.8,6,11.54,13.21,11.53,23.41,0,14.1-12.47,26.99-29.27,33.43-11.1,4.19-25.5,7.48-34.5,7.78-1.65,0-2.55-.75-2.55-1.8,0-1.2.75-1.95,2.25-2.25,11.1-2.09,21.45-4.94,31.96-10.78,9.6-5.39,20.56-16.48,20.57-28.78,0-9.45-2.39-14.4-7.19-18.9-5.25-4.8-11.39-6.46-17.24-7.06-8.26,13.34-17.87,25.49-29.27,36.28,1.2,3.15,2.25,5.25,3.29,7.5.6,1.2,1.05,3,1.05,4.2,0,1.8-1.5,3.45-4.05,3.45-1.8,0-3.3-1.35-5.1-3.75-1.2-1.65-1.95-3.45-2.55-4.95-10.2,8.24-21.46,14.23-28.51,14.23-8.1,0-10.95-5.56-10.94-12.76,0-10.65,7.96-22.49,18.02-30.29,4.8-3.75,11.56-7.94,17.41-10.49.46-8.7,1.21-15.75,2.27-23.55-3.75.45-7.5.59-9.9.59-9.45,0-14.7-3.76-18.44-9.31-.9-1.35-1.5-3-1.5-3.75,0-.6.6-1.05,1.05-1.05.75,0,1.35.45,2.1,1.05,4.65,4.35,7.8,5.86,15.9,5.86,3.9,0,8.25-.44,12-1.04.6-4.2,1.05-6.9,1.51-10.65.15-1.8.45-3.75.45-5.25,0-3-.9-3.75-3.9-5.25-1.65-.75-3-.9-4.5-1.2-.9-.15-1.5-.75-1.5-1.5s1.05-1.5,1.95-1.8c2.25-.9,4.65-.9,6-.9,2.85,0,6.6,1.35,10.05,3.46,2.55,1.65,5.25,4.05,5.25,6.6,0,1.5-.75,2.85-2.25,3.75-1.8,1.2-2.7,3.75-4.36,11.25,9.15-2.24,17.1-4.79,24.16-8.23,1.95-1.05,4.8-1.8,7.5-1.94,2.85,0,5.85,1.5,5.85,4.2,0,1.95-.9,3-3,4.05-3.75,1.8-9,3.59-16.2,5.54-6.15,1.65-12.6,3.14-20.25,4.48-1.35,7.35-2.56,14.85-2.86,21.6,7.5-2.54,16.35-4.19,25.35-4.93.3-.6.45-1.65.45-2.4,0-2.7-2.4-4.8-4.95-5.85-1.05-.45-1.35-1.05-1.35-1.5,0-.75,1.35-1.5,3.3-1.5,3.75,0,7.35,1.95,11.1,5.86,1.35,1.2,1.95,2.85,1.95,3.45-.15,1.35-.3,1.95-.45,2.4,7.5.91,16.05,3.76,22.34,9.02ZM36.07,242.19c-11.25,5.99-26.41,19.63-26.42,32.08,0,4.8,1.5,6.3,4.05,6.3,7.35,0,14.55-4.49,24.61-11.83-1.94-8.7-2.39-17.7-2.23-26.55ZM45.2,262.75c9.46-8.84,17.26-20.24,22.52-29.68-7.5.44-17.1,2.84-24.45,5.68-.16,11.25.29,17.1,1.93,24Z"/>
      <path class="cls-1" d="M181.24,277.84c1.05,2.25,1.8,3.9,2.55,5.55.45.9.75,1.65.75,2.7,0,1.8-1.2,3.45-3.45,3.45-1.65,0-3.45-1.05-5.25-3.75-.45-.6-.9-1.35-1.2-2.25-6.9,5.84-15.76,10.49-21.76,10.48s-9-3.46-8.99-9.91c0-6.75,3.16-12.75,9.46-19.34,4.95-5.25,12.31-10.19,18.31-12.89.3-5.85.91-11.55,1.81-17.7-3,.3-5.4.45-7.05.45-7.35,0-12.3-3.16-15.44-7.81-.75-1.05-.9-1.8-.9-2.7,0-.6.75-1.35,1.35-1.35s1.05.45,1.65,1.05c3.9,3.6,7.35,4.51,12.15,4.51,3.3,0,5.85-.3,9.15-.74,1.05-6.9,1.51-9.75,1.51-12.6,0-2.25-1.05-3.15-2.7-3.9-1.2-.45-2.55-.6-3.9-.75-.9-.15-1.35-.3-1.35-.9s.45-1.2,1.2-1.65c1.35-.9,3-1.35,4.65-1.35,2.4,0,7.05,1.5,9.6,3.46,1.95,1.35,4.2,3.3,4.2,5.1,0,1.2-1.05,2.4-2.55,3.45-1.35.9-2.25,2.85-3.16,7.8,3.3-.75,6.45-1.5,9-2.39,4.5-1.5,7.5-3.15,9.3-4.19s4.05-1.65,6-1.65c2.85,0,5.25,1.65,5.25,4.05,0,1.35-.75,2.4-2.25,3.3-3,1.65-7.5,3.14-13.65,4.79-4.65,1.2-9.45,2.24-15.3,3.29-.9,5.1-2.11,11.4-2.26,15.75,6-2.1,12.3-3.29,19.5-3.89.3-.6.3-1.2.3-1.8,0-1.8-2.1-3.3-4.2-4.2-.75-.3-1.05-.45-1.05-.9,0-.6,1.05-1.5,3.9-1.5,2.1,0,4.65.9,7.2,3.3,1.95,1.8,2.85,2.7,2.85,4.05,0,.45,0,1.05-.3,1.65,5.55.45,11.85,2.56,17.09,6.76,5.85,4.35,9.44,10.51,9.44,18.76,0,11.7-8.11,19.94-19.97,25.19-10.35,4.49-21.9,6.58-30.3,6.88-1.5,0-2.1-.75-2.1-1.65,0-1.05.6-1.5,1.8-1.8,8.25-1.64,17.85-4.04,26.4-9.28,8.25-4.94,14.11-12.14,14.11-21.74,0-6.15-2.24-10.95-6.59-14.55-3.9-3.15-7.95-4.06-12.3-4.36-5.26,8.85-13.81,19.34-22.52,27.73ZM171.2,257.28c-5.7,3.3-10.35,7.34-13.96,11.84-3.9,4.8-5.56,9.45-5.56,12.75,0,3,1.05,4.05,3.15,4.05,6.15,0,11.1-3.59,17.85-8.54-1.5-6.45-1.49-13.35-1.49-20.1ZM178.99,272.14c6.75-6.44,12.76-14.69,16.82-22.19-5.55.45-12,1.79-18,4.19-.15,5.4.29,12.6,1.19,18Z"/>
    </g>
    <g>
      <path class="cls-1" d="M1.92,340.22c0-.68.13-1.3.13-1.94,0-1.5-.2-2.02-1.69-2.4-.13-.02-.04-.33.09-.31.42.09.66.13.92.13.46,0,.7-.2.95-.64.92-1.94,1.8-4.11,3.08-7.44.04-.13.33,0,.29.13-.81,2.86-1.52,5.1-2.31,7.57-.13.37-.24.99-.24,1.34,0,1.01.7,2.11.7,3.15,0,.95-.4,1.47-1.08,1.47-.53,0-.84-.35-.84-1.08ZM2.12,329.51c-.35-.92-.9-1.69-1.63-2.24-.07-.04,0-.22.09-.2,1.98.31,3.04,1.12,3.04,2.2,0,.53-.33.95-.77.95-.37,0-.55-.2-.73-.7ZM3.37,324.23c-.29-.86-.77-1.56-1.63-2.27-.09-.07.02-.24.13-.22,1.89.35,3.08,1.21,3.08,2.33,0,.55-.35.97-.81.97-.35,0-.57-.22-.77-.81ZM8.81,326.38c0,1.21-.04,2.44-.13,3.65h1.56c.62-.68.73-.77.86-.77.15,0,.31.09.92.64.29.26.37.4.37.53s-.09.22-.51.53c-.13,4.11-.44,6.84-.92,8.41-.2.66-.48,1.14-.95,1.43-.33.24-.75.35-1.17.35-.26,0-.35-.11-.37-.37-.04-.57-.35-.9-1.39-1.28-.11-.04-.09-.29.02-.26.9.11,1.36.15,1.8.15.48,0,.66-.2.86-1.21.35-1.78.64-4.66.68-7.59h-1.83c-.2,2.27-.57,4.11-1.19,5.68-.73,2-1.69,3.63-3.06,5.04-.07.09-.29-.07-.22-.15.95-1.52,1.61-3.17,2.18-5.26.64-2.49.95-5.5.95-9.5h-.79c-.46,0-.84.02-1.41.11l-.22-.84c.64.11,1.03.18,1.61.18h1.36v-2.35c0-.7-.04-1.28-.11-1.98,2.07.22,2.33.4,2.33.64,0,.18-.15.35-.7.57v3.12h.97c.73-.92.88-1.03,1.01-1.03.15,0,.31.11,1.03.75.35.33.44.48.44.62,0,.15-.07.22-.31.22h-3.7ZM14.71,325.57c-.68,1.23-1.54,2.33-2.77,3.45-.09.07-.29-.07-.22-.15,1.1-1.65,1.87-3.48,2.31-5.33.15-.68.24-1.39.29-2.07,1.96.53,2.27.64,2.27.92,0,.22-.18.35-.77.44-.24.79-.51,1.5-.84,2.18h3.21c.81-1.01.99-1.12,1.14-1.12.13,0,.29.11,1.08.84.37.33.46.48.46.62,0,.15-.07.22-.29.22h-5.87ZM16.99,335.6c0,2.4.09,3.41.09,4,0,.68-.24,1.19-.88,1.52-.31.13-.68.22-.99.22-.26,0-.35-.07-.42-.48-.09-.51-.37-.73-1.8-1.1-.13-.04-.13-.35,0-.33,1.03.11,1.67.15,2.2.15.26,0,.37-.09.37-.35v-4.97h-1.87c-.46,0-.77.04-1.32.13l-.22-.84c.62.11.99.15,1.52.15h1.89v-.13c0-1.34-.02-1.87-.11-2.66.51.07.9.11,1.21.15.64-.84.9-1.3,1.25-2.13h-3.17c-.53,0-.88.02-1.43.15l-.24-.86c.66.11,1.08.15,1.61.15h3.17c.62-.77.75-.84.9-.84s.26.07.97.77c.4.4.46.53.46.68,0,.24-.13.31-.9.42-.77.79-1.39,1.32-2.09,1.76.48.09.55.2.55.31,0,.15-.13.29-.75.53v1.69h1.3c.77-.97.92-1.08,1.08-1.08s.31.11,1.17.79c.37.35.48.51.48.64s-.09.2-.29.2h-3.74v1.34Z"/>
      <path class="cls-1" d="M25.18,335.87c0,.46-.31.68-.95.68-.53,0-.66-.2-.66-.57,0-.81.09-2.44.09-7.53,0-2.95-.02-4.47-.13-6.01.77.35,1.12.51,1.83.95h3.39c.68-.75.79-.81.92-.81.15,0,.29.07.97.62.33.26.42.38.42.53,0,.18-.07.29-.55.64v2.9c0,4.93.11,7.55.11,8.27,0,.46-.33.68-.97.68-.46,0-.68-.15-.68-.55v-1.1h-3.79v1.3ZM28.96,323.94h-3.79v4.55h3.79v-4.55ZM25.18,334.02h3.79v-4.97h-3.79v4.97ZM34.33,333.38c-.22,1.19-.51,2.16-.9,2.97-1.01,2.09-2.51,3.74-4.91,5.02-.13.07-.35-.18-.24-.26,1.96-1.61,3.04-3.15,3.83-5.17.75-1.94,1.01-4.31,1.01-9.04,0-2.64-.02-3.59-.15-5.06.84.35,1.19.53,1.94.99h4.82c.7-.75.84-.84.97-.84s.26.09,1.01.7c.33.29.42.4.42.55s-.09.24-.59.59v3.81c0,10.03.09,10.76.09,11.75,0,.88-.26,1.28-.79,1.61-.35.22-.86.33-1.23.33-.33,0-.4-.07-.44-.37-.11-.68-.53-.92-2.4-1.3-.11-.02-.11-.29,0-.29,1.45.09,2.18.11,2.79.11.29,0,.4-.11.4-.42v-5.68h-5.61ZM34.7,328.41c-.02,1.47-.09,2.95-.29,4.42h5.52v-4.42h-5.24ZM39.94,323.37h-5.21v4.49h5.21v-4.49Z"/>
      <path class="cls-1" d="M50.52,336.62h1.72c.73-.88.88-.99,1.01-.99.15,0,.31.11,1.14.75.33.29.44.42.44.55,0,.18-.07.24-.29.24h-4.03c0,1.72.07,3.26.07,3.74s-.29.68-.99.68c-.53,0-.68-.18-.68-.57,0-.31.09-1.39.09-3.32v-.53h-3.04c-.46,0-.84.02-1.39.13l-.22-.84c.62.11,1.03.15,1.61.15h3.04v-2.88h-1.83v.15c0,.46-.31.66-.9.66-.46,0-.64-.18-.64-.59,0-.53.07-1.41.07-4.33,0-1.41,0-2.13-.07-3.04.7.29,1.01.44,1.67.84h1.67v-2.57h-2.84c-.42,0-.77.04-1.3.13l-.24-.84c.62.13,1.01.15,1.54.15h2.84v-.88c0-.88-.02-1.47-.09-2.22,2.09.22,2.31.4,2.31.62,0,.18-.15.33-.68.53v1.96h2.13c.73-.95.88-1.06,1.01-1.06.15,0,.31.11,1.19.84.35.29.46.42.46.55,0,.15-.09.22-.29.22h-4.51v2.57h1.74c.59-.64.73-.73.86-.73.15,0,.29.07.9.57.31.24.4.42.4.55,0,.15-.11.26-.53.57v1.34c0,2.57.04,3.81.04,4.18,0,.44-.31.64-.92.64-.42,0-.62-.15-.62-.51v-.31h-1.87v2.88ZM52.39,327.97h-5.21v2.27h5.21v-2.27ZM47.18,333.18h5.21v-2.4h-5.21v2.4ZM57.36,333.6c-.15.99-.33,1.83-.55,2.57-.68,2.16-1.78,3.63-3.72,5.28-.11.11-.4-.13-.29-.24,1.43-1.67,2.29-3.3,2.73-5.37.42-1.96.59-4.42.59-8.54,0-3.26-.02-4.25-.11-5.46.79.37,1.14.55,1.87.99h3.87c.66-.73.79-.81.92-.81s.29.07.99.64c.35.29.42.44.42.57,0,.18-.09.26-.57.62v3.83c0,9.73.07,10.65.09,11.71,0,.86-.22,1.25-.84,1.58-.31.2-.86.33-1.21.33-.33,0-.35-.11-.44-.46-.13-.62-.66-.9-2.13-1.23-.11-.02-.11-.26,0-.26,1.21.09,2,.13,2.62.13.29,0,.37-.11.37-.4v-5.48h-4.62ZM57.69,328.41c-.02,1.54-.09,3.1-.26,4.64h4.55v-4.64h-4.29ZM61.98,323.39h-4.27v2.4c0,.73,0,1.41-.02,2.07h4.29v-4.47Z"/>
      <path class="cls-1" d="M70.47,332.41c0,5.21.02,7.63.02,8.38,0,.53-.31.77-.95.77-.44,0-.75-.2-.75-.68s.09-2.02.11-7.15c.02-1.39.02-2.75.04-4.14-.77.99-1.63,1.94-2.62,2.84-.11.11-.35-.13-.26-.24,1.74-2.13,3.3-5.26,4.14-8.01.31-.99.51-1.91.62-2.77,1.91.57,2.44.84,2.44,1.06s-.22.35-.84.44c-.75,2.05-1.54,3.76-2.53,5.3,1.06.18,1.23.26,1.23.48,0,.18-.11.31-.66.55v3.17ZM77.76,335.82c.04-1.72.07-3.43.11-6.82-1.65,3.32-3.65,5.76-6.69,7.83-.13.09-.37-.15-.26-.26,2.71-2.55,4.78-5.79,5.99-9.24h-3.46c-.53,0-.88.04-1.45.13l-.22-.84c.66.13,1.06.15,1.63.15h4.38v-2.31c0-1.52-.02-2.05-.13-2.97,2.05.22,2.49.37,2.49.66,0,.2-.15.35-.79.64v3.98h4.25c.97-1.17,1.12-1.28,1.25-1.28.18,0,.29.07,1.23.9.44.4.62.59.62.73s-.09.2-.31.2h-6.82c.81,2.05,2.02,3.65,3.54,5.08,1.32,1.25,2.73,2.11,4.11,2.73.11.04.02.22-.09.24-.46.09-.73.37-.99,1.01-.11.33-.2.4-.4.4-.13,0-.37-.13-.7-.37-1.21-.84-2.24-2.02-3.1-3.21-1.01-1.45-1.98-3.32-2.64-5.54.02,2.71.07,5.44.11,8.16h1.47c.75-.92.92-1.03,1.06-1.03s.29.11,1.12.81c.35.29.44.44.44.57s-.07.2-.29.2h-3.81c.04,2.16.07,3.92.07,4.42s-.31.7-1.03.7c-.53,0-.75-.2-.75-.57,0-.57.02-2.38.07-4.55h-2.22c-.46,0-.81.04-1.39.13l-.22-.84c.62.13,1.01.15,1.56.15h2.27Z"/>
    </g>
  </g>
</svg>