<?xml version="1.0" encoding="UTF-8"?>
<svg id="_レイヤー_2" data-name="レイヤー 2" xmlns="http://www.w3.org/2000/svg" viewBox="0 0 445.96 342.81">
  <defs>
    <style>
      .cls-1 {
        fill: #fff;
        stroke-width: 0px;
      }
    </style>
  </defs>
  <g id="_レイヤー_1-2" data-name="レイヤー 1">
    <g>
      <path class="cls-1" d="M65.03,64.97H27.31l-2.56,6.3c-3.81,9.13-5.71,15.09-5.71,17.87,0,2.98,1.01,5.24,3.04,6.78,2.03,1.54,4.62,2.31,7.8,2.31v3.37H.36v-3.37c4.39-.68,7.67-2.23,9.81-4.65,2.15-2.42,4.74-7.51,7.76-15.27.24-.73,1.42-3.56,3.52-8.5L50.31.88h2.86l33.18,78.88,4.54,10.4c1.03,2.34,2.4,4.19,4.14,5.53,1.73,1.34,4.33,2.19,7.8,2.53v3.37h-39.04v-3.37c4.79,0,8.02-.35,9.71-1.06,1.68-.71,2.53-2.11,2.53-4.21,0-1.07-1.12-4.27-3.37-9.59l-7.62-18.38ZM63.79,61.67l-17.58-42.33-17.5,42.33h35.08Z"/>
      <path class="cls-1" d="M167.94,90.6h2.71c-.44,8.35-4.54,12.52-12.3,12.52-3.32,0-5.95-.88-7.87-2.64-1.93-1.76-3.19-4.37-3.77-7.84-4.88,3.47-9.34,6.08-13.37,7.84-4.03,1.76-7.63,2.64-10.8,2.64-4.05,0-7.54-1.17-10.47-3.52s-4.39-5.44-4.39-9.3c0-5.03,2.45-9.42,7.36-13.18,4.91-3.76,11.68-7.42,20.33-10.99l11.35-4.61v-2.93c0-4.15-.27-7.15-.81-9.01-.54-1.86-1.93-3.52-4.17-4.98-2.25-1.46-5.2-2.2-8.86-2.2-7.32,0-11.4,2.44-12.23,7.32-.78,4.98-2.83,7.47-6.15,7.47-2.98,0-4.47-1.42-4.47-4.25s1.98-5.77,5.93-8.97c3.96-3.2,10.11-4.8,18.46-4.8,6.2,0,11.01.98,14.43,2.93,3.42,1.95,5.68,4.17,6.77,6.67,1.1,2.49,1.65,6.3,1.65,11.43v24.24c0,5.67.29,9.3.88,10.91s1.86,2.42,3.81,2.42c3.22,0,5.22-2.39,6.01-7.18ZM146.7,64.97l-7.98,3.22c-12.6,5.13-18.9,11.57-18.9,19.34,0,3.08.81,5.55,2.42,7.43,1.61,1.88,3.71,2.82,6.3,2.82,2.29,0,4.96-.76,7.98-2.27,3.03-1.51,6.42-3.78,10.18-6.81v-23.73Z"/>
    </g>
    <g>
      <path class="cls-1" d="M326.92,68.33h-38.45l-6.74,15.67c-1.66,3.86-2.49,6.74-2.49,8.64,0,1.51.72,2.84,2.16,3.99,1.44,1.15,4.55,1.89,9.34,2.23v2.71h-31.27v-2.71c4.15-.73,6.84-1.68,8.06-2.86,2.49-2.34,5.25-7.1,8.28-14.28L310.73,0h2.56l34.57,82.62c2.78,6.64,5.31,10.95,7.58,12.93,2.27,1.98,5.43,3.09,9.48,3.33v2.71h-39.18v-2.71c3.96-.19,6.63-.85,8.02-1.98,1.39-1.12,2.09-2.49,2.09-4.1,0-2.15-.98-5.54-2.93-10.18l-6.01-14.28ZM324.87,62.92l-16.85-40.14-17.29,40.14h34.13Z"/>
      <path class="cls-1" d="M409.31,91.92c-6.88,5.32-11.21,8.4-12.96,9.23-2.64,1.22-5.45,1.83-8.42,1.83-4.64,0-8.46-1.59-11.46-4.76-3-3.17-4.5-7.35-4.5-12.52,0-3.27.73-6.1,2.2-8.5,2-3.32,5.48-6.45,10.44-9.38,4.96-2.93,13.19-6.49,24.72-10.69v-2.64c0-6.69-1.06-11.28-3.19-13.77s-5.21-3.74-9.27-3.74c-3.08,0-5.52.83-7.32,2.49-1.86,1.66-2.78,3.56-2.78,5.71l.15,4.25c0,2.25-.57,3.98-1.72,5.2-1.15,1.22-2.65,1.83-4.5,1.83s-3.28-.63-4.43-1.9c-1.15-1.27-1.72-3-1.72-5.2,0-4.2,2.15-8.06,6.45-11.57,4.3-3.52,10.33-5.27,18.09-5.27,5.96,0,10.84,1,14.65,3,2.88,1.51,5,3.88,6.37,7.1.88,2.1,1.32,6.4,1.32,12.89v22.78c0,6.4.12,10.32.37,11.76.24,1.44.65,2.41,1.21,2.89.56.49,1.21.73,1.94.73.78,0,1.46-.17,2.05-.51,1.03-.63,3-2.42,5.93-5.35v4.1c-5.47,7.32-10.69,10.99-15.67,10.99-2.39,0-4.3-.83-5.71-2.49-1.42-1.66-2.15-4.49-2.2-8.5ZM409.31,87.16v-25.56c-7.37,2.93-12.13,5.01-14.28,6.23-3.86,2.15-6.62,4.39-8.28,6.74-1.66,2.34-2.49,4.91-2.49,7.69,0,3.52,1.05,6.43,3.15,8.75,2.1,2.32,4.52,3.48,7.25,3.48,3.71,0,8.59-2.44,14.65-7.32Z"/>
    </g>
    <g>
      <path class="cls-1" d="M7.79,134.18c1.8.13,3.14.58,4.02,1.35s1.31,1.72,1.31,2.87c0,1-.3,1.86-.89,2.58s-1.35,1.2-2.28,1.42-2.17.33-3.72.33H0v-.54h.61c.68,0,1.15-.09,1.41-.26s.43-.44.5-.8.11-1.21.11-2.54v-7.73c0-1.29-.04-2.12-.11-2.5s-.23-.63-.47-.77-.76-.21-1.56-.21H.18v-.54l2.61-.07,2.98-.09c4.34,0,6.52,1.25,6.52,3.75,0,1.03-.37,1.86-1.12,2.48s-1.87,1.05-3.37,1.27ZM4.92,133.96c.2,0,.36.01.49.01,1.69,0,2.84-.27,3.46-.8s.93-1.39.93-2.58c0-.83-.12-1.47-.36-1.92s-.61-.8-1.09-1.05-1.31-.37-2.48-.37c-.3,0-.62.01-.94.04v6.67ZM4.92,134.53v3.54c0,1.51.03,2.46.08,2.87s.2.71.44.93.71.32,1.41.32c1.25,0,2.19-.32,2.81-.96s.94-1.6.94-2.88-.35-2.28-1.06-2.9-1.95-.93-3.73-.93c-.28,0-.58,0-.89.02Z"/>
      <path class="cls-1" d="M24.76,140.97h.43c-.07,1.34-.73,2-1.97,2-.53,0-.95-.14-1.26-.42s-.51-.7-.6-1.25c-.78.55-1.49.97-2.14,1.25s-1.22.42-1.73.42c-.65,0-1.21-.19-1.68-.56s-.7-.87-.7-1.49c0-.8.39-1.51,1.18-2.11s1.87-1.19,3.25-1.76l1.82-.74v-.47c0-.66-.04-1.14-.13-1.44s-.31-.56-.67-.8-.83-.35-1.42-.35c-1.17,0-1.82.39-1.96,1.17-.12.8-.45,1.2-.98,1.2-.48,0-.71-.23-.71-.68s.32-.92.95-1.44,1.62-.77,2.95-.77c.99,0,1.76.16,2.31.47s.91.67,1.08,1.07.26,1.01.26,1.83v3.88c0,.91.05,1.49.14,1.75s.3.39.61.39c.52,0,.84-.38.96-1.15ZM21.36,136.87l-1.28.52c-2.02.82-3.02,1.85-3.02,3.09,0,.49.13.89.39,1.19s.59.45,1.01.45c.37,0,.79-.12,1.28-.36s1.03-.61,1.63-1.09v-3.8Z"/>
      <path class="cls-1" d="M26.41,143.04v-3.15h.46c.53,1.82,1.48,2.73,2.85,2.73.59,0,1.04-.18,1.33-.54s.44-.75.44-1.18c0-.5-.16-.91-.47-1.23-.32-.32-.94-.71-1.86-1.16-.97-.48-1.66-.95-2.09-1.41-.42-.45-.63-1.01-.63-1.68s.23-1.24.68-1.81,1.09-.86,1.91-.86,1.53.34,2.07,1.02c.12-.12.27-.4.46-.86h.43v2.96h-.43c-.16-.71-.46-1.32-.91-1.83s-.98-.77-1.59-.77c-.47,0-.85.14-1.14.43s-.43.62-.43,1.01c0,.42.16.79.48,1.09.31.31.91.67,1.79,1.07,1.33.6,2.14,1.19,2.44,1.76.3.58.45,1.13.45,1.66,0,.84-.28,1.52-.83,2.04s-1.24.79-2.08.79c-.88,0-1.67-.36-2.36-1.09-.21.23-.38.57-.52,1.01h-.46Z"/>
      <path class="cls-1" d="M39.79,133.13h3.87v.54c-.71.02-1.66.55-2.86,1.59-.38.33-.98.81-1.78,1.44l3.42,4.01c.52.6.92.99,1.22,1.18s.6.28.91.3v.54h-4.78v-.54c.8-.02,1.2-.19,1.2-.52,0-.15-.26-.53-.79-1.14l-2.46-2.86-.5.38v1.38c0,1.02.01,1.67.04,1.93s.14.46.33.61.54.22,1.02.22v.54h-4.86v-.54h.36c.56,0,.93-.08,1.1-.24s.26-.35.29-.57.04-.87.04-1.94v-9.62c0-.93-.09-1.52-.26-1.78s-.6-.39-1.27-.39v-.54c.46,0,1.01-.05,1.66-.16s1.08-.22,1.32-.33h.25v10.79l1.01-.7c1.63-1.16,2.45-1.99,2.45-2.5,0-.34-.3-.52-.9-.54v-.54Z"/>
      <path class="cls-1" d="M54.04,136.38h-6.69c-.03.46-.05.8-.05,1.03,0,1.69.26,2.96.79,3.8s1.31,1.27,2.36,1.27c1.42,0,2.43-.64,3.02-1.91h.56c-.25.8-.75,1.42-1.49,1.87s-1.55.67-2.43.67c-.81,0-1.58-.21-2.3-.62s-1.31-.99-1.78-1.74-.69-1.66-.69-2.73c0-1.52.45-2.78,1.34-3.78s2-1.51,3.34-1.51c1.26,0,2.23.38,2.92,1.15s1.05,1.59,1.09,2.48ZM51.98,135.91c.02-.18.04-.34.04-.48,0-.69-.2-1.22-.6-1.6s-.9-.57-1.48-.57c-1.42,0-2.27.88-2.54,2.65h4.59Z"/>
      <path class="cls-1" d="M58.95,135.2c.27-.7.7-1.28,1.29-1.75s1.18-.7,1.75-.7c.52,0,.92.16,1.22.48s.45.65.45.98c0,.23-.08.42-.23.59s-.34.25-.56.25c-.39,0-.69-.29-.89-.87-.14-.39-.35-.59-.63-.59-.34,0-.74.23-1.21.69s-.77.93-.9,1.42-.2,1.17-.2,2.03v1.71c0,1.02.01,1.67.04,1.93s.14.47.33.61.54.21,1.04.21h.33v.54h-5.1v-.54h.25c.47,0,.8-.06,1-.19s.32-.31.36-.54.06-.91.06-2.02v-2.71c0-1.03-.01-1.68-.04-1.94s-.14-.46-.33-.61-.54-.22-1.04-.22h-.25v-.53c.73-.09,1.7-.32,2.88-.69.23.62.35,1.43.38,2.45Z"/>
      <path class="cls-1" d="M69.53,143.12h-.68l-3.41-7.7c-.34-.74-.6-1.21-.8-1.42s-.52-.31-.96-.33v-.54h4.34v.54c-.48,0-.8.04-.98.12s-.26.23-.26.45c0,.17.16.59.47,1.25l2.59,5.82,2.33-5.19c.37-.83.55-1.37.55-1.62,0-.52-.39-.8-1.17-.83v-.54h3.23v.54c-.4.02-.73.19-1,.5s-.65,1-1.13,2.08l-3.12,6.87Z"/>
      <path class="cls-1" d="M78.57,132.75v6.69c0,1.02.02,1.67.05,1.93s.14.47.34.61.54.21,1.04.21h.25v.54h-5.17v-.54h.4c.55,0,.92-.08,1.08-.24s.27-.35.29-.57.04-.87.04-1.94v-2.91c0-1.12-.05-1.81-.16-2.06s-.25-.41-.42-.47-.48-.09-.92-.09h-.32v-.54c1.39-.14,2.47-.35,3.23-.62h.26ZM76.31,127.85c0-.34.12-.62.36-.87s.53-.36.86-.36.62.12.86.36.35.53.35.87-.12.64-.35.88-.52.36-.86.36-.62-.12-.86-.36-.36-.54-.36-.88Z"/>
      <path class="cls-1" d="M84.39,126.62v12.82c0,1.02.01,1.67.04,1.93s.14.47.33.61.54.21,1.04.21h.28v.54h-5.13v-.54h.33c.47,0,.8-.06,1-.19s.32-.31.36-.54.06-.91.06-2.02v-9.49c0-1.01-.09-1.64-.27-1.9s-.62-.39-1.31-.39v-.54c.48,0,1.04-.05,1.68-.16s1.09-.22,1.33-.33h.26Z"/>
      <path class="cls-1" d="M90.14,126.62v12.82c0,1.02.01,1.67.04,1.93s.14.47.33.61.54.21,1.04.21h.28v.54h-5.13v-.54h.33c.47,0,.8-.06,1-.19s.32-.31.36-.54.06-.91.06-2.02v-9.49c0-1.01-.09-1.64-.27-1.9s-.62-.39-1.31-.39v-.54c.48,0,1.04-.05,1.68-.16s1.09-.22,1.33-.33h.26Z"/>
      <path class="cls-1" d="M101.8,136.38h-6.69c-.03.46-.05.8-.05,1.03,0,1.69.26,2.96.79,3.8s1.31,1.27,2.36,1.27c1.42,0,2.43-.64,3.02-1.91h.56c-.25.8-.75,1.42-1.49,1.87s-1.55.67-2.43.67c-.81,0-1.58-.21-2.3-.62s-1.31-.99-1.78-1.74-.69-1.66-.69-2.73c0-1.52.45-2.78,1.34-3.78s2-1.51,3.34-1.51c1.26,0,2.23.38,2.92,1.15s1.05,1.59,1.09,2.48ZM99.75,135.91c.02-.18.04-.34.04-.48,0-.69-.2-1.22-.6-1.6s-.9-.57-1.48-.57c-1.42,0-2.27.88-2.54,2.65h4.59Z"/>
    </g>
    <g>
      <path class="cls-1" d="M273.32,126.84l.18,3.73h-.45c-.09-.66-.2-1.12-.35-1.41-.24-.45-.56-.79-.97-1s-.93-.32-1.59-.32h-2.24v12.14c0,.98.11,1.59.32,1.83.3.33.75.49,1.37.49h.55v.43h-6.74v-.43h.56c.67,0,1.15-.2,1.43-.61.17-.25.26-.82.26-1.71v-12.14h-1.91c-.74,0-1.27.05-1.58.16-.41.15-.75.43-1.04.86s-.46.99-.52,1.71h-.45l.19-3.73h12.97Z"/>
      <path class="cls-1" d="M278.55,131.68v8.62c0,.67.05,1.12.15,1.34s.24.39.43.5.54.16,1.05.16v.42h-5.21v-.42c.52,0,.88-.05,1.05-.15s.32-.27.43-.5.16-.68.16-1.35v-4.14c0-1.16-.04-1.92-.11-2.26-.05-.25-.14-.42-.26-.52s-.28-.15-.48-.15c-.22,0-.48.06-.8.18l-.16-.42,3.23-1.31h.52ZM277.58,126.07c.33,0,.61.12.84.35s.35.51.35.84-.12.61-.35.84-.51.35-.84.35-.61-.12-.84-.35-.35-.52-.35-.84.12-.61.35-.84.51-.35.85-.35Z"/>
      <path class="cls-1" d="M284.7,133.97c.78-.78,1.24-1.23,1.38-1.35.35-.3.73-.53,1.14-.69s.81-.25,1.21-.25c.67,0,1.25.2,1.73.59s.81.96.97,1.7c.8-.94,1.48-1.55,2.04-1.85s1.12-.44,1.71-.44,1.08.15,1.52.44.79.77,1.05,1.44c.17.45.26,1.16.26,2.13v4.62c0,.67.05,1.13.15,1.38.08.17.22.32.43.44s.55.18,1.03.18v.42h-5.3v-.42h.22c.46,0,.82-.09,1.08-.27.18-.12.31-.32.39-.6.03-.13.05-.51.05-1.14v-4.62c0-.88-.11-1.49-.32-1.85-.3-.5-.79-.75-1.46-.75-.41,0-.83.1-1.25.31s-.92.59-1.52,1.15l-.02.13.02.5v5.12c0,.73.04,1.19.12,1.37s.24.33.46.45.61.18,1.16.18v.42h-5.43v-.42c.59,0,1-.07,1.22-.21s.38-.35.46-.63c.04-.13.06-.52.06-1.16v-4.62c0-.88-.13-1.5-.39-1.89-.34-.5-.82-.75-1.44-.75-.42,0-.84.11-1.25.34-.65.34-1.15.73-1.5,1.16v5.75c0,.7.05,1.16.15,1.37s.24.37.43.47.58.16,1.17.16v.42h-5.31v-.42c.49,0,.84-.05,1.03-.16s.34-.27.45-.5.15-.68.15-1.34v-4.1c0-1.18-.04-1.94-.11-2.29-.05-.26-.14-.44-.26-.53s-.28-.15-.48-.15c-.22,0-.48.06-.79.18l-.18-.42,3.23-1.31h.5v2.29Z"/>
      <path class="cls-1" d="M301.99,136.04c0,1.59.38,2.84,1.16,3.75s1.7,1.36,2.75,1.36c.7,0,1.31-.19,1.83-.58s.96-1.05,1.31-1.99l.36.23c-.16,1.07-.64,2.04-1.43,2.92s-1.78,1.32-2.96,1.32c-1.29,0-2.39-.5-3.31-1.51s-1.38-2.35-1.38-4.05c0-1.84.47-3.27,1.41-4.29s2.12-1.54,3.54-1.54c1.2,0,2.19.4,2.96,1.19s1.16,1.85,1.16,3.18h-7.42ZM301.99,135.36h4.97c-.04-.69-.12-1.17-.25-1.45-.2-.44-.49-.78-.87-1.03s-.79-.38-1.21-.38c-.65,0-1.23.25-1.74.76s-.81,1.21-.9,2.1Z"/>
      <path class="cls-1" d="M317.77,131.68v3.66h-.39c-.3-1.15-.68-1.93-1.14-2.34s-1.06-.62-1.78-.62c-.55,0-.99.14-1.32.43s-.5.61-.5.96c0,.44.12.81.38,1.12.24.32.73.66,1.48,1.02l1.71.83c1.59.77,2.38,1.79,2.38,3.06,0,.98-.37,1.76-1.11,2.36s-1.56.9-2.48.9c-.66,0-1.41-.12-2.25-.35-.26-.08-.47-.12-.63-.12-.18,0-.32.1-.42.3h-.39v-3.83h.39c.22,1.09.64,1.92,1.25,2.47s1.31.83,2.07.83c.54,0,.98-.16,1.32-.47s.51-.7.51-1.14c0-.54-.19-.99-.57-1.36s-1.13-.83-2.27-1.39-1.88-1.07-2.23-1.52c-.35-.45-.53-1.01-.53-1.69,0-.88.3-1.62.91-2.21s1.39-.89,2.35-.89c.42,0,.93.09,1.54.27.4.12.66.18.8.18.12,0,.22-.03.29-.08s.15-.18.25-.36h.39Z"/>
      <path class="cls-1" d="M325.11,126.84h4.31l9.71,11.92v-9.16c0-.98-.11-1.59-.33-1.83-.29-.33-.75-.49-1.37-.49h-.55v-.43h5.53v.43h-.56c-.67,0-1.15.2-1.43.61-.17.25-.26.82-.26,1.71v13.39h-.42l-10.48-12.8v9.79c0,.98.11,1.59.32,1.83.3.33.75.49,1.37.49h.56v.43h-5.53v-.43h.55c.68,0,1.16-.2,1.44-.61.17-.25.26-.82.26-1.71v-11.05c-.46-.54-.81-.89-1.05-1.07s-.59-.33-1.05-.48c-.23-.07-.57-.11-1.03-.11v-.43Z"/>
      <path class="cls-1" d="M345.31,136.04c0,1.59.38,2.84,1.16,3.75s1.7,1.36,2.75,1.36c.7,0,1.31-.19,1.83-.58s.96-1.05,1.31-1.99l.36.23c-.16,1.07-.64,2.04-1.43,2.92s-1.78,1.32-2.96,1.32c-1.29,0-2.39-.5-3.31-1.51s-1.38-2.35-1.38-4.05c0-1.84.47-3.27,1.41-4.29s2.12-1.54,3.54-1.54c1.2,0,2.19.4,2.96,1.19s1.16,1.85,1.16,3.18h-7.42ZM345.31,135.36h4.97c-.04-.69-.12-1.17-.25-1.45-.2-.44-.49-.78-.87-1.03s-.79-.38-1.21-.38c-.65,0-1.23.25-1.74.76s-.81,1.21-.9,2.1Z"/>
      <path class="cls-1" d="M353.56,132h4.5v.43c-.41.03-.69.11-.81.22s-.19.29-.19.5c0,.24.07.54.2.88l2.3,6.18,2.31-5.03-.61-1.58c-.19-.47-.43-.79-.74-.97-.17-.11-.49-.18-.96-.2v-.43h5.11v.43c-.56.02-.96.12-1.2.3-.16.12-.23.32-.23.6,0,.16.03.32.09.48l2.44,6.16,2.26-5.94c.16-.42.23-.76.23-1.01,0-.15-.08-.28-.23-.4s-.45-.18-.9-.2v-.43h3.39v.43c-.68.1-1.18.56-1.5,1.38l-3.59,9.25h-.48l-2.68-6.86-3.13,6.86h-.43l-3.45-9.02c-.23-.57-.45-.96-.67-1.15s-.56-.35-1.03-.45v-.43Z"/>
      <path class="cls-1" d="M392.96,142.73h-4.24l-5.38-7.43c-.4.02-.72.02-.97.02-.1,0-.21,0-.33,0s-.24,0-.36-.02v4.62c0,1,.11,1.62.33,1.86.3.34.74.52,1.34.52h.62v.43h-6.81v-.43h.6c.67,0,1.15-.22,1.44-.66.16-.24.25-.82.25-1.72v-10.27c0-1-.11-1.62-.33-1.86-.3-.34-.76-.52-1.36-.52h-.6v-.43h5.79c1.69,0,2.93.12,3.73.37s1.48.7,2.04,1.36.84,1.45.84,2.36c0,.98-.32,1.82-.96,2.54s-1.62,1.23-2.96,1.52l3.28,4.56c.75,1.05,1.39,1.74,1.93,2.09s1.24.56,2.11.66v.43ZM381.68,134.56c.15,0,.28,0,.39,0s.2,0,.27,0c1.52,0,2.66-.33,3.43-.98s1.15-1.49,1.15-2.51-.31-1.8-.93-2.42-1.44-.93-2.47-.93c-.45,0-1.07.07-1.84.22v6.61Z"/>
      <path class="cls-1" d="M398.75,131.68c1.62,0,2.93.62,3.91,1.85.84,1.05,1.25,2.27,1.25,3.63,0,.96-.23,1.93-.69,2.92s-1.1,1.73-1.9,2.23-1.71.75-2.7.75c-1.62,0-2.9-.64-3.86-1.93-.8-1.09-1.21-2.3-1.21-3.66,0-.98.24-1.96.73-2.94s1.13-1.69,1.93-2.16,1.64-.7,2.53-.7ZM398.39,132.44c-.41,0-.83.12-1.25.37s-.76.68-1.01,1.29-.39,1.41-.39,2.38c0,1.56.31,2.91.93,4.04s1.44,1.7,2.46,1.7c.76,0,1.38-.31,1.88-.94s.74-1.7.74-3.22c0-1.91-.41-3.41-1.23-4.5-.55-.75-1.26-1.12-2.12-1.12Z"/>
      <path class="cls-1" d="M408.69,133.97c.78-.78,1.24-1.23,1.38-1.35.35-.3.73-.53,1.14-.69s.81-.25,1.21-.25c.67,0,1.25.2,1.73.59s.81.96.97,1.7c.8-.94,1.48-1.55,2.04-1.85s1.12-.44,1.71-.44,1.08.15,1.52.44.79.77,1.05,1.44c.17.45.26,1.16.26,2.13v4.62c0,.67.05,1.13.15,1.38.08.17.22.32.43.44s.55.18,1.03.18v.42h-5.3v-.42h.22c.46,0,.82-.09,1.08-.27.18-.12.31-.32.39-.6.03-.13.05-.51.05-1.14v-4.62c0-.88-.11-1.49-.32-1.85-.3-.5-.79-.75-1.46-.75-.41,0-.83.1-1.25.31s-.92.59-1.52,1.15l-.02.13.02.5v5.12c0,.73.04,1.19.12,1.37s.24.33.46.45.61.18,1.16.18v.42h-5.43v-.42c.59,0,1-.07,1.22-.21s.38-.35.46-.63c.04-.13.06-.52.06-1.16v-4.62c0-.88-.13-1.5-.39-1.89-.34-.5-.82-.75-1.44-.75-.42,0-.84.11-1.25.34-.65.34-1.15.73-1.5,1.16v5.75c0,.7.05,1.16.15,1.37s.24.37.43.47.58.16,1.17.16v.42h-5.31v-.42c.49,0,.84-.05,1.03-.16s.34-.27.45-.5.15-.68.15-1.34v-4.1c0-1.18-.04-1.94-.11-2.29-.05-.26-.14-.44-.26-.53s-.28-.15-.48-.15c-.22,0-.48.06-.79.18l-.18-.42,3.23-1.31h.5v2.29Z"/>
      <path class="cls-1" d="M430.25,141.19c-1.1.85-1.79,1.34-2.07,1.48-.42.2-.87.29-1.35.29-.74,0-1.35-.25-1.83-.76s-.72-1.18-.72-2c0-.52.12-.98.35-1.36.32-.53.88-1.03,1.67-1.5s2.11-1.04,3.96-1.71v-.42c0-1.07-.17-1.8-.51-2.2s-.83-.6-1.48-.6c-.49,0-.88.13-1.17.4-.3.27-.45.57-.45.91l.02.68c0,.36-.09.64-.28.83s-.42.29-.72.29-.53-.1-.71-.3-.28-.48-.28-.83c0-.67.34-1.29,1.03-1.85s1.65-.84,2.89-.84c.95,0,1.73.16,2.34.48.46.24.8.62,1.02,1.14.14.34.21,1.02.21,2.06v3.64c0,1.02.02,1.65.06,1.88s.1.38.19.46.19.12.31.12c.12,0,.23-.03.33-.08.16-.1.48-.39.95-.86v.66c-.88,1.17-1.71,1.76-2.51,1.76-.38,0-.69-.13-.91-.4s-.34-.72-.35-1.36ZM430.25,140.42v-4.09c-1.18.47-1.94.8-2.29,1-.62.34-1.06.7-1.32,1.08s-.4.79-.4,1.23c0,.56.17,1.03.5,1.4s.72.56,1.16.56c.59,0,1.38-.39,2.34-1.17Z"/>
      <path class="cls-1" d="M437.95,133.96c1.26-1.52,2.46-2.27,3.6-2.27.59,0,1.09.15,1.51.44s.76.78,1.01,1.45c.17.47.26,1.19.26,2.16v4.58c0,.68.05,1.14.16,1.38.09.2.22.35.42.46s.54.16,1.06.16v.42h-5.31v-.42h.22c.5,0,.85-.08,1.05-.23s.34-.38.42-.67c.03-.12.05-.48.05-1.1v-4.39c0-.98-.13-1.69-.38-2.13s-.68-.66-1.28-.66c-.93,0-1.86.51-2.78,1.52v5.66c0,.73.04,1.18.13,1.35.11.23.26.39.45.5s.58.16,1.17.16v.42h-5.31v-.42h.23c.55,0,.92-.14,1.11-.42s.29-.81.29-1.59v-3.98c0-1.29-.03-2.07-.09-2.36s-.15-.47-.27-.57-.28-.15-.49-.15c-.22,0-.48.06-.79.18l-.18-.42,3.23-1.31h.5v2.27Z"/>
    </g>
    <g>
      <path class="cls-1" d="M7.91,195.64c5.85,6.75,10.95,8.85,21,8.85,2.85,0,4.65-.15,8.7-.75.9-6.75,1.65-14.1,1.65-16.65,0-5.4-2.4-7.8-9.75-10.05,1.65-1.35,2.4-1.65,4.35-1.65,3.3,0,9,1.5,13.05,3.45,3.75,1.95,5.55,3.75,5.55,6.15q0,1.35-1.95,3.9c-1.8,2.55-2.85,5.4-4.65,13.5,14.25-3,23.1-6.45,28.2-10.65,1.65-1.5,2.25-1.65,3.75-1.65,2.1,0,5.4.6,7.05,1.2,1.5.6,2.4,1.8,2.4,3.3,0,2.7-3,4.5-12.9,7.95-7.5,2.55-19.05,5.25-30.15,7.05-1.35,6.75-2.55,15.9-2.85,22.65,8.55-2.85,15.9-4.35,24-4.8v-.9c0-2.85-1.2-4.95-4.8-8.25.75-.15,1.35-.3,1.65-.3,3.9,0,8.25,4.05,9.6,9,13.35,1.5,21.6,4.5,29.1,10.65,6.75,5.85,10.2,13.65,10.2,23.7,0,22.8-23.25,39.9-58.5,42.9l-.45-2.4c30.45-7.5,47.4-23.1,47.4-43.95,0-9.15-3.9-16.65-10.95-21.3-4.2-2.7-9.3-4.2-17.4-5.25-2.25,7.65-4.65,12.75-9.45,20.55-5.25,8.25-9.75,13.8-16.05,19.5q1.95,3.75,3.75,6.3c1.05,1.65,1.65,3.6,1.65,6.3,0,4.05-1.35,6.9-3.45,6.9-2.55,0-5.1-4.05-8.7-13.2-9.6,8.7-19.95,14.25-25.95,14.25-3.6,0-5.25-1.65-7.2-6.9-1.05-2.55-1.35-3.15-2.85-5.7-2.25-3.6-2.85-5.7-2.85-9,0-7.8,4.65-15.6,14.1-23.55,5.55-4.5,11.4-8.1,20.25-12q.15-2.25.9-11.1c.15-2.55.45-4.95,1.35-13.35-2.85.15-4.2.3-5.7.3-11.85,0-18.9-3.9-25.05-13.8l1.95-1.2ZM13.16,258.64c-3.15,4.8-4.65,9.45-4.65,14.1,0,5.55,2.25,9.15,5.7,9.15,4.8,0,14.1-5.1,22.35-12.15-1.8-9.75-2.25-14.7-2.25-24.15v-5.4c-11.25,6.6-16.5,11.1-21.15,18.45ZM41.06,241.99c0,8.1.75,15.6,2.1,21.9,11.7-12.15,17.1-20.1,21.45-32.4-8.55.75-14.25,2.1-23.55,5.7v4.8Z"/>
      <path class="cls-1" d="M147.86,215.89c5.25,5.1,8.85,6.6,15.9,6.6,3.3,0,6.15-.3,9.3-.75.15-1.35.3-2.4.45-3,.75-6.6.75-7.2.75-9.3,0-2.55-.6-4.2-1.8-5.55q-1.2-1.35-6.6-2.85c1.8-1.65,2.7-1.95,4.95-1.95,3.6,0,9.9,1.8,12.75,3.45,1.65,1.05,2.85,2.85,2.85,4.2q0,1.05-2.25,4.2c-1.65,2.55-2.1,3.9-3.9,9.75,11.85-2.55,18.75-5.1,22.8-8.55,1.35-1.2,1.95-1.5,3-1.5,3.9,0,8.7,2.7,8.7,4.8,0,1.35-2.1,2.85-6.3,4.35-7.2,2.85-19.5,6-29.7,7.65-1.35,6.3-1.95,10.65-2.25,17.4,8.1-2.1,12.75-3,19.2-3.45-.3-2.7-1.2-4.2-3.75-6.75.75-.15,1.2-.15,1.8-.15,2.4,0,5.55,2.85,7.5,6.9,9,1.2,14.4,2.85,19.5,6.3,7.65,5.25,11.85,12.75,11.85,21.45,0,12.45-7.95,22.5-22.8,28.95-6.9,2.85-13.35,4.35-23.7,5.4l-.45-2.4c23.85-5.7,36.75-17.7,36.75-33.9,0-12.75-7.5-20.4-21.45-21.6-1.5,4.5-3.6,8.4-7.65,14.85-3.6,5.55-6.9,9.45-13.65,16.65q.6,1.35,2.1,3.9c.75,1.2,1.35,3.45,1.35,5.55,0,3.45-1.35,5.85-3.15,5.85-2.55,0-4.65-3.15-6.9-9.75-7.8,6.45-15.3,10.35-19.65,10.35-2.25,0-3.75-.75-4.8-2.55-.75-1.05-.75-1.2-2.55-4.95-.3-.9-1.95-4.05-2.4-4.95-1.05-1.95-1.5-3.3-1.5-5.1,0-4.5,3.15-10.2,8.85-15.9,4.5-4.65,9.9-7.95,19.2-12.45.45-6.9,1.05-13.65,1.8-19.5-2.1.3-3,.3-4.35.3-4.95,0-8.4-.6-11.4-1.65-4.8-2.1-7.35-4.35-9.9-9l1.5-1.35ZM149.66,277.24c0,3.9,2.1,6.9,4.95,6.9,3.75,0,9.3-3,16.8-9-1.05-6.6-1.5-11.7-1.5-19.05v-3.9c-13.2,7.8-20.25,16.65-20.25,25.05ZM177.41,270.04c8.55-8.1,13.65-15.15,17.7-24.45-7.35.45-13.05,1.8-18.9,4.2,0,10.8.3,15.3,1.2,20.25Z"/>
    </g>
    <g>
      <path class="cls-1" d="M1.26,325.18c.59,0,1.61.29,2.22.62.51.29.75.57.75.92,0,.13-.02.26-.11.46-.31.73-.46,1.65-.62,3.61.31.24.53.31,1.03.31.86,0,2.6-.33,4.25-.84.99-.29,1.56-.55,2.16-.95.11-.09.37-.18.46-.18.66,0,1.72.68,1.72,1.1,0,.33-.29.51-1.06.68-2.79.64-5.35,1.01-6.84,1.01-.68,0-1.3-.2-1.76-.57-.09,2.33-.13,3.26-.13,3.74,0,2.66.59,3.28,3.08,3.28,2,0,3.83-.24,5.19-.73.33-.11.46-.13.62-.13.59,0,1.54.75,1.54,1.19,0,.31-.22.48-.77.59-.95.2-3.3.37-5.06.37-2.82,0-4.2-.42-4.99-1.56-.44-.59-.66-1.34-.75-2.55-.02-.53-.04-1.52-.04-3.19v-1.01c.02-.99.02-1.67.02-2,0-1.89-.07-2.55-.26-2.95-.24-.48-.68-.77-1.5-1.03.26-.18.35-.2.86-.2Z"/>
      <path class="cls-1" d="M25.02,341.69c2.18-1.67,3.56-3.04,5.02-4.91,1.78-2.27,3.1-4.67,3.7-6.71-2.13.15-4.11.46-6.4,1.01-1.39.33-1.83.46-2.29.68-.35.18-.44.2-.66.2-.77,0-2.02-1.58-2.02-2.55,0-.15.02-.22.13-.37.51.88,1.1,1.28,1.91,1.28.86,0,4.58-.46,7.44-.95,1.19-.2,1.36-.24,1.8-.51.15-.09.26-.13.35-.13.2,0,.53.22,1.03.66.62.57.88.92.88,1.21,0,.18-.11.35-.33.55-.31.22-.44.42-.81,1.14-2.38,4.49-5.92,8.05-9.55,9.66l-.2-.26ZM24.73,324.66c.75.86,1.41,1.19,2.35,1.19,1.47,0,4.14-.57,4.97-1.06.18-.09.29-.13.46-.13.62,0,1.72.77,1.72,1.21,0,.26-.2.4-.84.48-2.62.4-4.42.57-5.61.57-1.65,0-2.31-.42-3.37-2.07l.31-.2Z"/>
      <path class="cls-1" d="M43.61,329.08c.79.51,1.45.73,2.27.73.86,0,2.31-.31,3.79-.81-.81-3.54-1.17-4.07-2.9-4.18.35-.31.59-.4,1.28-.4.57,0,1.28.09,1.78.22.57.15.86.42.86.77,0,.04,0,.13-.02.22-.07.31-.09.46-.09.68,0,.57.07,1.08.26,2.31,2.07-.75,2.46-.92,3.23-1.47.29-.24.35-.26.53-.26.35,0,.7.09,1.06.22.33.15.48.31.48.51,0,.18-.13.35-.33.46q-.24.13-2.05.73c-.95.31-1.85.59-2.73.84.24,1.25.51,2.51.77,3.52,2.77-.77,3.92-1.19,4.75-1.69.24-.13.29-.15.46-.15.86,0,1.96.53,1.96.95,0,.15-.09.29-.24.35-.2.07-.26.07-1.54.22-.95.09-3.45.66-5.19,1.17l.79,3.12c.46,1.87.57,2.22.79,3.04.18.7.24,1.01.24,1.32,0,.48-.18.73-.51.73-.53,0-1.63-1.21-1.63-1.78t.04-.33c0-.15.02-.42.02-.55,0-.77-.22-2.09-.84-5.19-1.28.35-4.05,1.45-4.55,1.8-.44.24-.75.37-.97.37-.81,0-2.33-1.3-2.33-2,0-.07.02-.13.07-.24.51.51,1.1.79,1.63.79.62,0,1.23-.13,2.84-.64.64-.2,1.06-.33,1.25-.4l1.87-.57c-.37-1.72-.64-2.84-.79-3.5-2.27.62-2.84.73-3.61.73-1.03,0-2.07-.48-2.88-1.36l.18-.24ZM55.84,323.82c.81.46,1.41.88,1.94,1.36.79.73,1.1,1.23,1.1,1.76s-.29.92-.68.92q-.29,0-.97-1.43c-.4-.77-1.08-1.74-1.67-2.31l.29-.31ZM58.08,322.54c.79.35,1.43.75,2.11,1.25.84.64,1.12,1.1,1.12,1.69,0,.53-.22.9-.55.9-.2,0-.33-.11-.51-.42-.77-1.39-1.19-1.96-2.4-3.12l.22-.31Z"/>
      <path class="cls-1" d="M65.98,340.72c2.73-2.05,5.21-4.84,7.35-8.32,1.72-2.77,2.66-4.86,2.66-5.85,0-.66-.33-1.12-1.21-1.72.18-.07.29-.09.48-.09.42,0,1.32.44,2.09,1.01.66.51.99.92.99,1.28,0,.26-.07.37-.37.68-.31.33-.55.68-1.01,1.52-3.12,5.68-6.67,9.59-10.76,11.82l-.22-.33Z"/>
      <path class="cls-1" d="M87.56,337.44q-.04.37-1.23.42c-.2-.02-.26-.09-.31-.33.07-2.18.09-3.5.09-7.08,0-4.31-.02-5.33-.09-6.82.75.42.97.57,1.67,1.06h3.78c.37-.4.48-.53.86-.9.55.42.7.55,1.21.99.15.13.2.2.2.26,0,.11-.15.22-.7.55v8.67c0,.4,0,.92.02,2.51-.04.4-.22.46-1.17.46-.2,0-.29-.07-.31-.26v-1.3h-4.03v1.78ZM91.59,325.18h-4.03v4.66h4.03v-4.66ZM87.56,330.36v4.8h4.03v-4.8h-4.03ZM96.43,334.71c-.29,1.52-.79,2.68-1.74,3.96-1.23,1.72-2.44,2.71-4.8,3.94l-.18-.33c1.67-1.12,2.49-1.87,3.43-3.12,1.8-2.46,2.25-4.67,2.25-11.57,0-1.63-.02-2.75-.11-4.49.75.42.97.57,1.67,1.1h5.28c.37-.42.48-.55.86-.97.64.48.84.62,1.41,1.08.13.13.2.2.2.26,0,.11-.33.37-.77.62v11.33q.02,1.14.04,2.16c0,.97,0,.99.02,1.78,0,.66-.09.95-.35,1.23-.35.37-.88.55-2.29.77-.37-1.21-.68-1.36-3.04-1.58v-.42c1.52.07,1.74.09,3.63.13h.07c.29,0,.33-.07.33-.4v-5.48h-5.92ZM96.78,329.61c-.04,2.42-.13,3.72-.26,4.6h5.83v-4.6h-5.57ZM102.37,329.1v-4.42h-5.54c.02.51.02.88.02,1.14s0,.53-.04,3.28h5.57Z"/>
      <path class="cls-1" d="M113.26,338.03h1.54c.46-.57.59-.75,1.06-1.28.68.59.9.79,1.58,1.45.04.09.09.15.09.22s-.09.11-.24.11h-4.03v.31q0,2.73.02,3.65c-.02.24-.29.31-1.32.31-.2,0-.26-.04-.26-.18.04-1.78.04-2.44.04-3.7v-.4h-2.9c-.62,0-.97.04-1.63.18l-.13-.86c.62.13.99.18,1.76.18h2.9v-2.93h-2.05v1.08c0,.15-.02.18-.18.22-.2.07-.66.11-.92.11-.22,0-.26-.04-.26-.2v-.04c.02-.75.04-1.25.04-1.43,0-5.37,0-5.81-.13-6.91.77.42.99.55,1.69.99h1.8v-2.79h-2.9c-.64,0-1.06.04-1.52.13l-.15-.81c.59.15.92.18,1.67.18h2.9v-.86c0-1.08,0-1.3-.09-2.09,2.2.29,2.49.35,2.49.57,0,.15-.2.26-.88.48v1.89h1.98c.46-.59.62-.77,1.1-1.36.7.66.92.86,1.61,1.54.09.11.13.18.13.22,0,.07-.07.11-.13.11h-4.69v2.79h1.8c.37-.44.51-.57.86-.99.53.42.68.55,1.17.99.18.15.22.22.22.29,0,.11-.18.29-.66.57v1.76c0,1.58.02,2.46.09,4.2v.04c0,.22-.48.35-1.19.35-.24,0-.31-.04-.31-.18v-.86h-1.98v2.93ZM115.24,331.59v-2.16h-5.54v2.16h5.54ZM109.7,332.09v2.51h5.54v-2.51h-5.54ZM120.04,334.6c-.22,1.72-.79,3.3-1.63,4.73-.73,1.23-1.47,2.05-3.17,3.43l-.22-.26c1.8-1.96,2.68-3.46,3.26-5.52.48-1.85.62-3.67.62-9.24,0-2.55-.02-3.19-.09-4.4.77.37,1.01.48,1.74.92h3.78c.35-.44.46-.57.81-.99.53.42.7.55,1.21.99.18.15.24.24.24.33,0,.11-.18.29-.62.57v11.22c0,2.02,0,2.38.09,4.29-.02.64-.13.9-.55,1.21-.44.31-.86.46-1.69.62-.13-.59-.29-.79-.75-1.01-.51-.26-1.21-.44-2.55-.64l.02-.31c1.47.09,2,.11,3.7.13h.04c.15,0,.2-.04.2-.22v-5.85h-4.45ZM120.32,329.58c-.02,2.33-.07,2.86-.22,4.51h4.38v-4.51h-4.16ZM124.48,329.08v-4.31h-4.14v1.32l-.02,2.99h4.16Z"/>
      <path class="cls-1" d="M140.01,337.66c0,2.02.13,2.2,1.85,2.24v.55h-5.5v-.55c1.56-.04,1.69-.2,1.69-2.24v-10.36c0-2.05-.11-2.2-1.69-2.27v-.53h6.05c1.58,0,2.9.22,3.72.59,1.45.68,2.18,1.96,2.18,3.83,0,2.11-.86,3.46-2.66,4.09-.9.33-2.51.53-4.2.53h-1.43v4.11ZM141.57,332.89c1.72,0,2.9-.31,3.59-.92.64-.59,1.01-1.65,1.01-2.95,0-2.57-1.39-3.85-4.18-3.85h-1.98v7.72h1.56Z"/>
      <path class="cls-1" d="M153.19,329.1c.04,1.1.07,1.39.07,1.85v.7c.73-1.67,1.91-2.62,3.21-2.62.95,0,1.67.59,1.67,1.36,0,.55-.46.9-1.17.9-.48,0-.68-.13-.81-.55-.13-.48-.26-.62-.62-.62-.57,0-1.19.48-1.65,1.32-.4.73-.59,1.63-.59,2.79v3.45c0,2.07.11,2.22,1.58,2.27v.48h-5.04v-.48c1.47-.04,1.61-.22,1.61-2.27v-5.9c0-1.65-.26-1.98-1.52-1.98v-.48l3.26-.24Z"/>
      <path class="cls-1" d="M160.8,330.51c.92-.95,2.31-1.47,3.83-1.47,3.21,0,5.33,2.27,5.33,5.72,0,3.67-2.11,5.98-5.46,5.98s-5.3-2.27-5.3-5.68c0-1.83.59-3.52,1.61-4.55ZM164.56,340.21c2.16,0,3.34-1.87,3.34-5.26s-1.23-5.41-3.39-5.41-3.28,1.87-3.28,5.24,1.21,5.44,3.32,5.44Z"/>
      <path class="cls-1" d="M174.55,336.71c0,1.76.07,2.24.31,2.6.26.4.73.57,1.61.59v.55h-4.84v-.55c.84,0,1.3-.18,1.58-.59.31-.42.44-1.28.44-2.97v-8.87c0-2.16-.15-2.38-1.8-2.44v-.53h3.89l9.18,13.16v-9.04c0-1.98-.07-2.62-.33-2.97-.29-.4-.77-.57-1.67-.62v-.53h4.91v.53c-1.65.09-2,.68-2,3.28v12.21h-1.25l-10.01-14.41v10.61Z"/>
    </g>
  </g>
</svg>