<?xml version="1.0" encoding="UTF-8"?>
<svg id="_レイヤー_2" data-name="レイヤー 2" xmlns="http://www.w3.org/2000/svg" viewBox="0 0 241.43 357.93">
  <defs>
    <style>
      .cls-1 {
        fill: #020926;
        stroke-width: 0px;
      }
    </style>
  </defs>
  <g id="_レイヤー_1-2" data-name="レイヤー 1">
    <g>
      <path class="cls-1" d="M1,352.65v-17.52h1.94l6.24,10.56h.05l6.24-10.56h2.02v17.52h-1.92v-14.3h-.05l-5.42,9.1h-1.78l-5.42-9.1h-.05v14.3h-1.85Z"/>
      <path class="cls-1" d="M28.53,335.27c1.66-.26,3.29-.38,4.87-.38,2.18,0,3.83.46,4.96,1.38s1.69,2.24,1.69,3.95c0,1.86-.57,3.26-1.7,4.22-1.14.96-2.78,1.44-4.94,1.44-1.06,0-2.04-.05-2.95-.14v6.91h-1.92v-17.38ZM30.45,344.15c.93.13,1.86.19,2.81.19,1.58,0,2.8-.34,3.64-1.03.84-.69,1.26-1.67,1.26-2.95s-.41-2.25-1.24-2.92c-.82-.66-2.04-1-3.66-1-.88,0-1.82.08-2.81.24v7.46Z"/>
      <path class="cls-1" d="M44.92,335.13v15.89h8.57v1.63h-10.56v-17.52h1.99Z"/>
      <path class="cls-1" d="M63.16,351.25c2.99,0,4.49-1.8,4.49-5.4v-10.73h1.87v10.63c0,2.34-.55,4.11-1.64,5.32-1.1,1.21-2.68,1.81-4.74,1.81s-3.65-.6-4.75-1.81c-1.1-1.21-1.66-2.98-1.66-5.32v-10.63h1.94v10.73c0,3.6,1.5,5.4,4.49,5.4Z"/>
      <path class="cls-1" d="M78.21,336.45c-1.1,0-1.96.24-2.57.73s-.91,1.16-.91,2.03c0,1.55,1.14,2.67,3.41,3.36,1.98.58,3.4,1.3,4.24,2.16.84.86,1.26,1.98,1.26,3.36,0,1.55-.48,2.74-1.45,3.56-.97.82-2.35,1.24-4.14,1.24-1.98,0-3.74-.5-5.28-1.51l.58-1.58c1.39.99,2.96,1.49,4.7,1.49,1.18,0,2.09-.27,2.72-.82.63-.54.95-1.34.95-2.38,0-.96-.27-1.72-.8-2.29-.54-.57-1.48-1.06-2.82-1.48-3.5-1.04-5.26-2.74-5.26-5.11,0-1.31.48-2.36,1.43-3.14.95-.78,2.27-1.18,3.95-1.18,1.81,0,3.49.38,5.04,1.13l-.48,1.49c-1.39-.7-2.91-1.06-4.56-1.06Z"/>
      <path class="cls-1" d="M99.5,352.65v-15.22h-.05l-4.73,4.37-.74-1.56,5.52-5.11h1.92v17.52h-1.92Z"/>
      <path class="cls-1" d="M114.54,352.89c-1.81,0-3.15-.73-4.03-2.18h-.05v7.22h-1.75v-17.76h1.68l.02,2.11h.05c.88-1.57,2.24-2.35,4.08-2.35,1.57,0,2.8.56,3.7,1.67.9,1.11,1.34,2.72,1.34,4.81s-.46,3.64-1.38,4.78c-.92,1.14-2.14,1.7-3.66,1.7ZM117.85,346.41c0-1.63-.32-2.88-.97-3.74-.65-.86-1.56-1.3-2.72-1.3-1.1,0-2,.43-2.68,1.3-.68.86-1.02,2.06-1.02,3.58v.34c0,1.55.34,2.75,1.03,3.6.69.85,1.58,1.27,2.66,1.27s2.04-.44,2.7-1.31c.66-.87,1-2.12,1-3.73Z"/>
    </g>
    <g>
      <path class="cls-1" d="M0,151.65v-17.52h1.94l6.24,10.56h.05l6.24-10.56h2.02v17.52h-1.92v-14.3h-.05l-5.42,9.1h-1.78l-5.42-9.1h-.05v14.3H0Z"/>
      <path class="cls-1" d="M27.53,134.27c1.66-.26,3.29-.38,4.87-.38,2.18,0,3.83.46,4.96,1.38s1.69,2.24,1.69,3.95c0,1.86-.57,3.26-1.7,4.22-1.14.96-2.78,1.44-4.94,1.44-1.06,0-2.04-.05-2.95-.14v6.91h-1.92v-17.38ZM29.45,143.15c.93.13,1.86.19,2.81.19,1.58,0,2.8-.34,3.64-1.03.84-.69,1.26-1.67,1.26-2.95s-.41-2.25-1.24-2.92c-.82-.66-2.04-1-3.66-1-.88,0-1.82.08-2.81.24v7.46Z"/>
      <path class="cls-1" d="M43.92,134.13v15.89h8.57v1.63h-10.56v-17.52h1.99Z"/>
      <path class="cls-1" d="M62.16,150.25c2.99,0,4.49-1.8,4.49-5.4v-10.73h1.87v10.63c0,2.34-.55,4.11-1.64,5.32-1.1,1.21-2.68,1.81-4.74,1.81s-3.65-.6-4.75-1.81c-1.1-1.21-1.66-2.98-1.66-5.32v-10.63h1.94v10.73c0,3.6,1.5,5.4,4.49,5.4Z"/>
      <path class="cls-1" d="M77.21,135.45c-1.1,0-1.96.24-2.57.73s-.91,1.16-.91,2.03c0,1.55,1.14,2.67,3.41,3.36,1.98.58,3.4,1.3,4.24,2.16.84.86,1.26,1.98,1.26,3.36,0,1.55-.48,2.74-1.45,3.56-.97.82-2.35,1.24-4.14,1.24-1.98,0-3.74-.5-5.28-1.51l.58-1.58c1.39.99,2.96,1.49,4.7,1.49,1.18,0,2.09-.27,2.72-.82.63-.54.95-1.34.95-2.38,0-.96-.27-1.72-.8-2.29-.54-.57-1.48-1.06-2.82-1.48-3.5-1.04-5.26-2.74-5.26-5.11,0-1.31.48-2.36,1.43-3.14.95-.78,2.27-1.18,3.95-1.18,1.81,0,3.49.38,5.04,1.13l-.48,1.49c-1.39-.7-2.91-1.06-4.56-1.06Z"/>
      <path class="cls-1" d="M98.5,151.65v-15.22h-.05l-4.73,4.37-.74-1.56,5.52-5.11h1.92v17.52h-1.92Z"/>
      <path class="cls-1" d="M113.54,151.89c-1.81,0-3.15-.73-4.03-2.18h-.05v7.22h-1.75v-17.76h1.68l.02,2.11h.05c.88-1.57,2.24-2.35,4.08-2.35,1.57,0,2.8.56,3.7,1.67.9,1.11,1.34,2.72,1.34,4.81s-.46,3.64-1.38,4.78c-.92,1.14-2.14,1.7-3.66,1.7ZM116.85,145.41c0-1.63-.32-2.88-.97-3.74-.65-.86-1.56-1.3-2.72-1.3-1.1,0-2,.43-2.68,1.3-.68.86-1.02,2.06-1.02,3.58v.34c0,1.55.34,2.75,1.03,3.6.69.85,1.58,1.27,2.66,1.27s2.04-.44,2.7-1.31c.66-.87,1-2.12,1-3.73Z"/>
    </g>
    <g>
      <path class="cls-1" d="M1.06,109.5L41.11,0h13.5l39.9,109.5h-12.75l-11.1-31.95H24.46l-10.95,31.95H1.06ZM27.76,67.95h39.6L47.71,10.8h-.3l-19.65,57.15Z"/>
      <path class="cls-1" d="M139.51,30c10.9,0,18.7,2.25,23.4,6.75,4.7,4.5,7.05,11.9,7.05,22.2v29.55c0,7.1.75,14.1,2.25,21h-10.5c-.8-3.9-1.3-8.5-1.5-13.8h-.3c-2.7,4.8-6.6,8.55-11.7,11.25-5.1,2.7-10.85,4.05-17.25,4.05-7.2,0-12.95-2.03-17.25-6.08-4.3-4.05-6.45-9.52-6.45-16.42,0-8.7,3.8-15.62,11.4-20.78,7.6-5.15,18.4-7.72,32.4-7.72h7.95v-.75c0-7.6-1.42-12.87-4.27-15.83-2.85-2.95-7.93-4.42-15.23-4.42-9.4,0-18.15,2.3-26.25,6.9l-1.95-8.85c8.6-4.7,18-7.05,28.2-7.05ZM118.06,88.05c0,4.5,1.4,8.03,4.2,10.58,2.8,2.55,6.55,3.83,11.25,3.83,6.9,0,12.88-2.48,17.93-7.42,5.05-4.95,7.57-11.03,7.57-18.23v-8.4h-7.95c-10.5,0-18.63,1.78-24.38,5.32-5.75,3.55-8.62,8.33-8.62,14.33Z"/>
    </g>
    <g>
      <path class="cls-1" d="M74.93,305.5c10.9-2.1,19.47-6.15,25.73-12.15,6.25-6,9.38-13.15,9.38-21.45,0-13-6.3-21.95-18.9-26.85-6.6,19.3-16.18,34.6-28.72,45.9-12.55,11.3-25.03,16.95-37.42,16.95-7.8,0-13.9-2.33-18.3-6.98-4.4-4.65-6.6-11.12-6.6-19.42,0-10.2,3.32-19.32,9.97-27.38,6.65-8.05,15.83-14.02,27.53-17.92v-22.2H5.48v-9.6h32.1v-18.9h10.95v18.9h67.05v9.6H48.53v19.35c6.7-1.3,13.35-1.95,19.95-1.95,16.4,0,29.25,3.63,38.55,10.88,9.3,7.25,13.95,17.13,13.95,29.62,0,11.1-3.85,20.5-11.55,28.2-7.7,7.7-18.3,12.8-31.8,15.3l-2.7-9.9ZM37.58,247.15c-8.2,3.4-14.68,8.02-19.42,13.88-4.75,5.85-7.12,12.33-7.12,19.42,0,5.6,1.3,9.93,3.9,12.97,2.6,3.05,6.3,4.58,11.1,4.58,3.8,0,7.65-.8,11.55-2.4v-48.45ZM81.08,242.35c-3.8-.6-8-.9-12.6-.9-7.1,0-13.75.75-19.95,2.25v45.6c6.6-4.8,12.77-11.22,18.52-19.27,5.75-8.05,10.43-17.27,14.03-27.67Z"/>
      <path class="cls-1" d="M203.93,305.8c8.4-1.6,15-4.72,19.8-9.38,4.8-4.65,7.2-10.12,7.2-16.42,0-9.6-4.5-16.3-13.5-20.1-5.4,15.2-13.08,27.22-23.02,36.08-9.95,8.85-19.93,13.27-29.92,13.27-6.4,0-11.48-1.93-15.23-5.77-3.75-3.85-5.62-9.17-5.62-15.98,0-8.2,2.67-15.5,8.03-21.9,5.35-6.4,12.67-11.2,21.97-14.4v-16.8h-25.35v-9h25.35v-14.7h10.2v14.7h52.95v9h-52.95v14.1c4.3-.8,9.35-1.2,15.15-1.2,13.3,0,23.7,2.93,31.2,8.78s11.25,13.83,11.25,23.92c0,8.9-3.1,16.5-9.3,22.8-6.2,6.3-14.7,10.45-25.5,12.45l-2.7-9.45ZM173.63,261.55c-6.1,2.6-10.88,6.1-14.33,10.5-3.45,4.4-5.17,9.2-5.17,14.4,0,4.3,1,7.6,3,9.9,2,2.3,4.8,3.45,8.4,3.45,2.4,0,5.1-.55,8.1-1.65v-36.6ZM207.83,257.35c-2.4-.4-5.35-.6-8.85-.6-5.7,0-10.75.5-15.15,1.5v34.05c10.6-8.2,18.6-19.85,24-34.95Z"/>
    </g>
  </g>
</svg>