<?xml version="1.0" encoding="UTF-8"?>
<svg id="_レイヤー_2" data-name="レイヤー 2" xmlns="http://www.w3.org/2000/svg" viewBox="0 0 1560 640">
  <defs>
    <style>
      .cls-1, .cls-2, .cls-3, .cls-4, .cls-5 {
        stroke-width: 0px;
      }

      .cls-2 {
        fill: #6d6d6d;
      }

      .cls-3 {
        fill: #4395c8;
      }

      .cls-4 {
        fill: silver;
      }

      .cls-5 {
        fill: #fff;
      }
    </style>
  </defs>
  <g id="_レイヤー_1-2" data-name="レイヤー 1">
    <rect class="cls-4" x="1000" y="480" width="40" height="40"/>
    <rect class="cls-1" x="960" y="480" width="40" height="40"/>
    <rect class="cls-1" x="920" y="480" width="40" height="40"/>
    <rect class="cls-1" x="880" y="480" width="40" height="40"/>
    <rect class="cls-1" x="840" y="480" width="40" height="40"/>
    <rect class="cls-1" x="800" y="480" width="40" height="40"/>
    <rect class="cls-1" x="760" y="440" width="40" height="40"/>
    <rect class="cls-4" x="680" y="400" width="80" height="40"/>
    <rect class="cls-4" x="680" y="400" width="40" height="40"/>
    <rect class="cls-4" x="640" y="360" width="120" height="40"/>
    <rect class="cls-4" x="560" y="320" width="280" height="40"/>
    <polygon class="cls-4" points="1520 320 760 320 440 320 440 360 360 360 360 440 720 440 720 480 760 480 1040 480 1040 520 1080 520 1120 520 1160 520 1200 520 1240 520 1280 520 1320 520 1360 520 1400 520 1400 480 1440 480 1440 440 1480 440 1480 400 1520 400 1520 360 1560 360 1560 320 1520 320"/>
    <rect class="cls-4" x="1000" y="440" width="40" height="40"/>
    <polygon class="cls-5" points="880 360 880 400 840 400 840 440 800 440 800 480 760 480 760 520 720 520 720 560 680 560 680 600 640 600 640 640 920 640 920 600 960 600 960 560 1000 560 1000 520 1040 520 1040 480 1080 480 1080 440 1120 440 1120 400 1160 400 1160 360 880 360"/>
    <polygon class="cls-5" points="1520 280 1480 280 1426.67 280 1391.11 280 1391.11 240 1391.11 200 1400 200 1440 200 1440 160 1400 160 1400 120 1360 120 1320 120 1301.33 120 1280 120 1242.67 120 1240 120 1200 120 1184 120 1160 120 1125.33 120 1120 120 1080 120 1066.67 120 1040 120 1008 120 1000 120 960 120 949.33 120 920 120 890.67 120 880 120 840 120 832 120 800 120 773.33 120 714.67 120 656 120 597.33 120 538.67 120 480 120 480 160 480 200 200 200 200 320 520 320 560 320 680 320 724.44 320 733.33 320 786.67 320 840 320 893.33 320 946.67 320 1000 320 1053.33 320 1106.67 320 1160 320 1213.33 320 1266.67 320 1320 320 1373.33 320 1426.67 320 1480 320 1520 320 1560 320 1560 280 1520 280"/>
    <polygon class="cls-3" points="1480 240 1480 200 1440 200 1400 200 1360 200 1360 240 1360 280 1400 280 1440 280 1480 280 1520 280 1520 240 1480 240"/>
    <polygon class="cls-3" points="1280 200 1240 200 1240 240 1240 280 1280 280 1320 280 1320 240 1320 200 1280 200"/>
    <polygon class="cls-3" points="1160 200 1120 200 1120 240 1120 280 1160 280 1200 280 1200 240 1200 200 1160 200"/>
    <polygon class="cls-3" points="1040 200 1000 200 1000 240 1000 280 1040 280 1080 280 1080 240 1080 200 1040 200"/>
    <polygon class="cls-2" points="200 280 200 320 160 320 120 320 120 360 80 360 80 400 40 400 40 440 0 440 0 480 40 480 280 480 320 480 320 440 360 440 360 400 400 400 400 360 440 360 440 320 480 320 480 280 200 280"/>
    <polygon class="cls-2" points="440 160 440 120 400 120 400 80 360 80 360 40 320 40 320 0 280 0 240 0 40 0 0 0 0 40 40 40 40 80 80 80 80 120 120 120 120 160 160 160 200 160 200 200 480 200 480 160 440 160"/>
  </g>
</svg>