<?xml version="1.0" encoding="UTF-8"?>
<svg id="_レイヤー_2" data-name="レイヤー 2" xmlns="http://www.w3.org/2000/svg" viewBox="0 0 224 192">
  <defs>
    <style>
      .cls-1 {
        fill: #e6c71e;
      }

      .cls-1, .cls-2 {
        stroke-width: 0px;
      }

      .cls-2 {
        fill: #020926;
      }
    </style>
  </defs>
  <g id="_レイヤー_1-2" data-name="レイヤー 1">
    <polygon class="cls-1" points="192 64 192 32 160 32 160 0 128 0 96 0 64 0 64 32 32 32 32 64 0 64 0 96 0 128 0 160 0 192 32 192 32 160 64 160 64 192 96 192 96 160 128 160 128 192 160 192 160 160 192 160 192 192 224 192 224 160 224 128 224 96 224 64 192 64"/>
    <rect class="cls-2" x="64" y="64" width="32" height="32"/>
    <rect class="cls-2" x="128" y="64" width="32" height="32"/>
  </g>
</svg>