<?xml version="1.0" encoding="UTF-8"?>
<svg id="_レイヤー_2" data-name="レイヤー 2" xmlns="http://www.w3.org/2000/svg" viewBox="0 0 1735.04 969.87">
  <defs>
    <style>
      .cls-1 {
        fill: #fff;
        stroke-width: 0px;
      }
    </style>
  </defs>
  <g id="_レイヤー_1-2" data-name="レイヤー 1">
    <g>
      <rect class="cls-1" x="518.76" y="542.35" width="28.42" height="7.1"/>
      <rect class="cls-1" x="529.19" y="531.69" width="7.1" height="28.42"/>
    </g>
    <g>
      <rect class="cls-1" x="620.89" y="623.52" width="28.42" height="7.1"/>
      <rect class="cls-1" x="631.32" y="612.86" width="7.1" height="28.42"/>
    </g>
    <g>
      <rect class="cls-1" x="547.3" y="806.82" width="28.42" height="7.1"/>
      <rect class="cls-1" x="557.73" y="796.16" width="7.1" height="28.42"/>
    </g>
    <g>
      <rect class="cls-1" x="459" y="851.86" width="28.42" height="7.1"/>
      <rect class="cls-1" x="469.42" y="841.2" width="7.1" height="28.42"/>
    </g>
    <g>
      <rect class="cls-1" x="670.84" y="873.27" width="28.42" height="7.1"/>
      <rect class="cls-1" x="681.27" y="862.61" width="7.1" height="28.42"/>
    </g>
    <g>
      <rect class="cls-1" x="927.72" y="866.13" width="28.42" height="7.1"/>
      <rect class="cls-1" x="938.15" y="855.48" width="7.1" height="28.42"/>
    </g>
    <g>
      <rect class="cls-1" x="969.65" y="727.88" width="28.42" height="7.1"/>
      <rect class="cls-1" x="980.07" y="717.22" width="7.1" height="28.42"/>
    </g>
    <g>
      <rect class="cls-1" x="1016.03" y="609.25" width="28.42" height="7.1"/>
      <rect class="cls-1" x="1026.45" y="598.59" width="7.1" height="28.42"/>
    </g>
    <g>
      <rect class="cls-1" x="833.62" y="619.95" width="28.42" height="7.1"/>
      <rect class="cls-1" x="844.05" y="609.3" width="7.1" height="28.42"/>
    </g>
    <g>
      <rect class="cls-1" x="1136.89" y="553.05" width="28.42" height="7.1"/>
      <rect class="cls-1" x="1147.31" y="542.4" width="7.1" height="28.42"/>
    </g>
    <g>
      <rect class="cls-1" x="1191.74" y="666.33" width="28.42" height="7.1"/>
      <rect class="cls-1" x="1202.17" y="655.68" width="7.1" height="28.42"/>
    </g>
    <g>
      <rect class="cls-1" x="1075.79" y="824.66" width="28.42" height="7.1"/>
      <rect class="cls-1" x="1086.22" y="814" width="7.1" height="28.42"/>
    </g>
    <g>
      <rect class="cls-1" x="1197.99" y="891.11" width="28.42" height="7.1"/>
      <rect class="cls-1" x="1208.41" y="880.45" width="7.1" height="28.42"/>
    </g>
    <g>
      <rect class="cls-1" x="792.59" y="513.81" width="28.42" height="7.1"/>
      <rect class="cls-1" x="803.02" y="503.15" width="7.1" height="28.42"/>
    </g>
    <g>
      <rect class="cls-1" x="466.58" y="694.88" width="28.42" height="7.1"/>
      <rect class="cls-1" x="477.01" y="684.22" width="7.1" height="28.42"/>
    </g>
    <g>
      <rect class="cls-1" x="761.37" y="761.33" width="28.42" height="7.1"/>
      <rect class="cls-1" x="771.8" y="750.67" width="7.1" height="28.42"/>
    </g>
    <g>
      <rect class="cls-1" x="70.76" y="54.35" width="28.42" height="7.1"/>
      <rect class="cls-1" x="81.19" y="43.69" width="7.1" height="28.42"/>
    </g>
    <g>
      <rect class="cls-1" x="172.89" y="135.52" width="28.42" height="7.1"/>
      <rect class="cls-1" x="183.32" y="124.86" width="7.1" height="28.42"/>
    </g>
    <g>
      <rect class="cls-1" x="99.3" y="318.82" width="28.42" height="7.1"/>
      <rect class="cls-1" x="109.73" y="308.16" width="7.1" height="28.42"/>
    </g>
    <g>
      <rect class="cls-1" x="11" y="363.86" width="28.42" height="7.1"/>
      <rect class="cls-1" x="21.42" y="353.2" width="7.1" height="28.42"/>
    </g>
    <g>
      <rect class="cls-1" x="222.84" y="385.27" width="28.42" height="7.1"/>
      <rect class="cls-1" x="233.27" y="374.61" width="7.1" height="28.42"/>
    </g>
    <g>
      <rect class="cls-1" x="479.72" y="378.13" width="28.42" height="7.1"/>
      <rect class="cls-1" x="490.15" y="367.48" width="7.1" height="28.42"/>
    </g>
    <g>
      <rect class="cls-1" x="521.65" y="239.88" width="28.42" height="7.1"/>
      <rect class="cls-1" x="532.07" y="229.22" width="7.1" height="28.42"/>
    </g>
    <g>
      <rect class="cls-1" x="568.03" y="121.25" width="28.42" height="7.1"/>
      <rect class="cls-1" x="578.45" y="110.59" width="7.1" height="28.42"/>
    </g>
    <g>
      <rect class="cls-1" x="385.62" y="131.95" width="28.42" height="7.1"/>
      <rect class="cls-1" x="396.05" y="121.3" width="7.1" height="28.42"/>
    </g>
    <g>
      <rect class="cls-1" x="688.89" y="65.05" width="28.42" height="7.1"/>
      <rect class="cls-1" x="699.31" y="54.4" width="7.1" height="28.42"/>
    </g>
    <g>
      <rect class="cls-1" x="743.74" y="178.33" width="28.42" height="7.1"/>
      <rect class="cls-1" x="754.17" y="167.68" width="7.1" height="28.42"/>
    </g>
    <g>
      <rect class="cls-1" x="627.79" y="336.66" width="28.42" height="7.1"/>
      <rect class="cls-1" x="638.22" y="326" width="7.1" height="28.42"/>
    </g>
    <g>
      <rect class="cls-1" x="749.99" y="403.11" width="28.42" height="7.1"/>
      <rect class="cls-1" x="760.41" y="392.45" width="7.1" height="28.42"/>
    </g>
    <g>
      <rect class="cls-1" x="344.59" y="25.81" width="28.42" height="7.1"/>
      <rect class="cls-1" x="355.02" y="15.15" width="7.1" height="28.42"/>
    </g>
    <g>
      <rect class="cls-1" x="18.58" y="206.88" width="28.42" height="7.1"/>
      <rect class="cls-1" x="29.01" y="196.22" width="7.1" height="28.42"/>
    </g>
    <g>
      <rect class="cls-1" x="313.37" y="273.33" width="28.42" height="7.1"/>
      <rect class="cls-1" x="323.8" y="262.67" width="7.1" height="28.42"/>
    </g>
    <g>
      <rect class="cls-1" x="59.76" y="549.35" width="28.42" height="7.1"/>
      <rect class="cls-1" x="70.19" y="538.69" width="7.1" height="28.42"/>
    </g>
    <g>
      <rect class="cls-1" x="161.89" y="630.52" width="28.42" height="7.1"/>
      <rect class="cls-1" x="172.32" y="619.86" width="7.1" height="28.42"/>
    </g>
    <g>
      <rect class="cls-1" x="88.3" y="813.82" width="28.42" height="7.1"/>
      <rect class="cls-1" x="98.73" y="803.16" width="7.1" height="28.42"/>
    </g>
    <g>
      <rect class="cls-1" y="858.86" width="28.42" height="7.1"/>
      <rect class="cls-1" x="10.42" y="848.2" width="7.1" height="28.42"/>
    </g>
    <g>
      <rect class="cls-1" x="211.84" y="880.27" width="28.42" height="7.1"/>
      <rect class="cls-1" x="222.27" y="869.61" width="7.1" height="28.42"/>
    </g>
    <g>
      <rect class="cls-1" x="374.62" y="626.95" width="28.42" height="7.1"/>
      <rect class="cls-1" x="385.05" y="616.3" width="7.1" height="28.42"/>
    </g>
    <g>
      <rect class="cls-1" x="333.59" y="520.81" width="28.42" height="7.1"/>
      <rect class="cls-1" x="344.02" y="510.15" width="7.1" height="28.42"/>
    </g>
    <g>
      <rect class="cls-1" x="1072.76" y="318.35" width="28.42" height="7.1"/>
      <rect class="cls-1" x="1083.19" y="307.69" width="7.1" height="28.42"/>
    </g>
    <g>
      <rect class="cls-1" x="1174.89" y="399.52" width="28.42" height="7.1"/>
      <rect class="cls-1" x="1185.32" y="388.86" width="7.1" height="28.42"/>
    </g>
    <g>
      <rect class="cls-1" x="1523.65" y="503.88" width="28.42" height="7.1"/>
      <rect class="cls-1" x="1534.07" y="493.22" width="7.1" height="28.42"/>
    </g>
    <g>
      <rect class="cls-1" x="1387.62" y="395.95" width="28.42" height="7.1"/>
      <rect class="cls-1" x="1398.05" y="385.3" width="7.1" height="28.42"/>
    </g>
    <g>
      <rect class="cls-1" x="1346.59" y="289.81" width="28.42" height="7.1"/>
      <rect class="cls-1" x="1357.02" y="279.15" width="7.1" height="28.42"/>
    </g>
    <g>
      <rect class="cls-1" x="1020.58" y="470.88" width="28.42" height="7.1"/>
      <rect class="cls-1" x="1031.01" y="460.22" width="7.1" height="28.42"/>
    </g>
    <g>
      <rect class="cls-1" x="1071.89" y="684.52" width="28.42" height="7.1"/>
      <rect class="cls-1" x="1082.32" y="673.86" width="7.1" height="28.42"/>
    </g>
    <g>
      <rect class="cls-1" x="1121.84" y="934.27" width="28.42" height="7.1"/>
      <rect class="cls-1" x="1132.27" y="923.61" width="7.1" height="28.42"/>
    </g>
    <g>
      <rect class="cls-1" x="1378.72" y="927.13" width="28.42" height="7.1"/>
      <rect class="cls-1" x="1389.15" y="916.48" width="7.1" height="28.42"/>
    </g>
    <g>
      <rect class="cls-1" x="1420.65" y="788.88" width="28.42" height="7.1"/>
      <rect class="cls-1" x="1431.07" y="778.22" width="7.1" height="28.42"/>
    </g>
    <g>
      <rect class="cls-1" x="1467.03" y="670.25" width="28.42" height="7.1"/>
      <rect class="cls-1" x="1477.45" y="659.59" width="7.1" height="28.42"/>
    </g>
    <g>
      <rect class="cls-1" x="1284.62" y="680.95" width="28.42" height="7.1"/>
      <rect class="cls-1" x="1295.05" y="670.3" width="7.1" height="28.42"/>
    </g>
    <g>
      <rect class="cls-1" x="1587.89" y="614.05" width="28.42" height="7.1"/>
      <rect class="cls-1" x="1598.31" y="603.4" width="7.1" height="28.42"/>
    </g>
    <g>
      <rect class="cls-1" x="1642.74" y="727.33" width="28.42" height="7.1"/>
      <rect class="cls-1" x="1653.17" y="716.68" width="7.1" height="28.42"/>
    </g>
    <g>
      <rect class="cls-1" x="1526.79" y="885.66" width="28.42" height="7.1"/>
      <rect class="cls-1" x="1537.22" y="875" width="7.1" height="28.42"/>
    </g>
    <g>
      <rect class="cls-1" x="1648.99" y="952.11" width="28.42" height="7.1"/>
      <rect class="cls-1" x="1659.41" y="941.45" width="7.1" height="28.42"/>
    </g>
    <g>
      <rect class="cls-1" x="1243.59" y="574.81" width="28.42" height="7.1"/>
      <rect class="cls-1" x="1254.02" y="564.15" width="7.1" height="28.42"/>
    </g>
    <g>
      <rect class="cls-1" x="1212.37" y="822.33" width="28.42" height="7.1"/>
      <rect class="cls-1" x="1222.8" y="811.67" width="7.1" height="28.42"/>
    </g>
    <g>
      <rect class="cls-1" x="1471.58" y="531.88" width="28.42" height="7.1"/>
      <rect class="cls-1" x="1482.01" y="521.22" width="7.1" height="28.42"/>
    </g>
    <g>
      <rect class="cls-1" x="1033.72" y="154.13" width="28.42" height="7.1"/>
      <rect class="cls-1" x="1044.15" y="143.48" width="7.1" height="28.42"/>
    </g>
    <g>
      <rect class="cls-1" x="1181.79" y="112.66" width="28.42" height="7.1"/>
      <rect class="cls-1" x="1192.22" y="102" width="7.1" height="28.42"/>
    </g>
    <g>
      <rect class="cls-1" x="1303.99" y="179.11" width="28.42" height="7.1"/>
      <rect class="cls-1" x="1314.41" y="168.45" width="7.1" height="28.42"/>
    </g>
    <g>
      <rect class="cls-1" x="1391.76" y="216.35" width="28.42" height="7.1"/>
      <rect class="cls-1" x="1402.19" y="205.69" width="7.1" height="28.42"/>
    </g>
    <g>
      <rect class="cls-1" x="1493.89" y="297.52" width="28.42" height="7.1"/>
      <rect class="cls-1" x="1504.32" y="286.86" width="7.1" height="28.42"/>
    </g>
    <g>
      <rect class="cls-1" x="1706.62" y="293.95" width="28.42" height="7.1"/>
      <rect class="cls-1" x="1717.05" y="283.3" width="7.1" height="28.42"/>
    </g>
    <g>
      <rect class="cls-1" x="1665.59" y="187.81" width="28.42" height="7.1"/>
      <rect class="cls-1" x="1676.02" y="177.15" width="7.1" height="28.42"/>
    </g>
    <g>
      <rect class="cls-1" x="1352.72" y="52.13" width="28.42" height="7.1"/>
      <rect class="cls-1" x="1363.15" y="41.48" width="7.1" height="28.42"/>
    </g>
    <g>
      <rect class="cls-1" x="1500.79" y="10.66" width="28.42" height="7.1"/>
      <rect class="cls-1" x="1511.22" width="7.1" height="28.42"/>
    </g>
    <g>
      <rect class="cls-1" x="1622.99" y="77.11" width="28.42" height="7.1"/>
      <rect class="cls-1" x="1633.41" y="66.45" width="7.1" height="28.42"/>
    </g>
    <g>
      <rect class="cls-1" x="867.37" y="49.33" width="28.42" height="7.1"/>
      <rect class="cls-1" x="877.8" y="38.67" width="7.1" height="28.42"/>
    </g>
    <g>
      <rect class="cls-1" x="928.62" y="402.95" width="28.42" height="7.1"/>
      <rect class="cls-1" x="939.05" y="392.3" width="7.1" height="28.42"/>
    </g>
    <g>
      <rect class="cls-1" x="887.59" y="296.81" width="28.42" height="7.1"/>
      <rect class="cls-1" x="898.02" y="286.15" width="7.1" height="28.42"/>
    </g>
    <g>
      <rect class="cls-1" x="7.58" y="701.88" width="28.42" height="7.1"/>
      <rect class="cls-1" x="18.01" y="691.22" width="7.1" height="28.42"/>
    </g>
    <g>
      <rect class="cls-1" x="302.37" y="768.33" width="28.42" height="7.1"/>
      <rect class="cls-1" x="312.8" y="757.67" width="7.1" height="28.42"/>
    </g>
  </g>
</svg>