<?xml version="1.0" encoding="UTF-8"?>
<svg id="_レイヤー_1" data-name="レイヤー 1" xmlns="http://www.w3.org/2000/svg" viewBox="0 0 1920 1132">
  <defs>
    <style>
      .cls-1 {
        fill: #46a339;
      }

      .cls-1, .cls-2, .cls-3, .cls-4 {
        stroke-width: 0px;
      }

      .cls-2 {
        fill: #636262;
      }

      .cls-3 {
        fill: #4395c8;
      }

      .cls-4 {
        fill: #d32c16;
      }
    </style>
  </defs>
  <rect class="cls-1" x="78" y="1123.25" width="6" height="9"/>
  <rect class="cls-1" x="84" y="1117.25" width="6" height="6"/>
  <rect class="cls-1" x="115.5" y="1126.25" width="6" height="6"/>
  <rect class="cls-1" x="121.5" y="1120.25" width="6" height="6"/>
  <rect class="cls-1" x="97.5" y="1120.25" width="6" height="6"/>
  <rect class="cls-1" x="103.5" y="1126.25" width="6" height="6"/>
  <rect class="cls-1" x="90" y="1111.25" width="6" height="6"/>
  <rect class="cls-1" x="72" y="1117.25" width="6" height="6"/>
  <rect class="cls-1" x="66" y="1111.25" width="6" height="6"/>
  <rect class="cls-1" x="1250.3" y="1123.25" width="6" height="9"/>
  <rect class="cls-1" x="1256.3" y="1117.25" width="6" height="6"/>
  <rect class="cls-1" x="1287.8" y="1126.25" width="6" height="6"/>
  <rect class="cls-1" x="1293.8" y="1120.25" width="6" height="6"/>
  <rect class="cls-1" x="1269.8" y="1120.25" width="6" height="6"/>
  <rect class="cls-1" x="1275.8" y="1126.25" width="6" height="6"/>
  <rect class="cls-1" x="1262.3" y="1111.25" width="6" height="6"/>
  <rect class="cls-1" x="1244.3" y="1117.25" width="6" height="6"/>
  <rect class="cls-1" x="1238.3" y="1111.25" width="6" height="6"/>
  <polygon class="cls-2" points="935.3 1126.25 935.3 1120.25 929.3 1120.25 923.3 1120.25 923.3 1114.25 917.3 1114.25 911.3 1114.25 911.3 1120.25 905.3 1120.25 905.3 1126.25 899.3 1126.25 899.3 1132.25 905.3 1132.25 911.3 1132.25 917.3 1132.25 923.3 1132.25 935.3 1132.25 941.3 1132.25 941.3 1126.25 935.3 1126.25"/>
  <polygon class="cls-2" points="497.4 1126.25 497.4 1120.25 491.4 1120.25 485.4 1120.25 485.4 1114.25 479.4 1114.25 473.4 1114.25 473.4 1120.25 467.4 1120.25 467.4 1126.25 461.4 1126.25 461.4 1132.25 467.4 1132.25 473.4 1132.25 479.4 1132.25 485.4 1132.25 497.4 1132.25 503.4 1132.25 503.4 1126.25 497.4 1126.25"/>
  <rect class="cls-1" x="869" y="1126.25" width="6" height="6"/>
  <rect class="cls-4" x="863" y="1108.25" width="12" height="6"/>
  <rect class="cls-4" x="845" y="1108.25" width="12" height="6"/>
  <rect class="cls-1" x="857" y="1126.25" width="6" height="6"/>
  <rect class="cls-1" x="857" y="1114.25" width="6" height="18"/>
  <rect class="cls-4" x="851" y="1114.25" width="6" height="6"/>
  <rect class="cls-4" x="851" y="1114.25" width="18" height="6"/>
  <rect class="cls-4" x="863" y="1114.25" width="6" height="6"/>
  <rect class="cls-4" x="851" y="1108.25" width="6" height="6"/>
  <rect class="cls-4" x="863" y="1108.25" width="6" height="6"/>
  <rect class="cls-4" x="851" y="1102.25" width="6" height="18"/>
  <rect class="cls-4" x="851" y="1102.25" width="18" height="6"/>
  <rect class="cls-4" x="863" y="1102.25" width="6" height="18"/>
  <rect class="cls-1" x="845" y="1126.25" width="6" height="6"/>
  <rect class="cls-1" x="1664" y="1126.25" width="6" height="6"/>
  <rect class="cls-4" x="1658" y="1108.25" width="12" height="6"/>
  <rect class="cls-4" x="1640" y="1108.25" width="12" height="6"/>
  <rect class="cls-1" x="1652" y="1126.25" width="6" height="6"/>
  <rect class="cls-1" x="1652" y="1114.25" width="6" height="18"/>
  <rect class="cls-4" x="1646" y="1114.25" width="6" height="6"/>
  <rect class="cls-4" x="1646" y="1114.25" width="18" height="6"/>
  <rect class="cls-4" x="1658" y="1114.25" width="6" height="6"/>
  <rect class="cls-4" x="1646" y="1108.25" width="6" height="6"/>
  <rect class="cls-4" x="1658" y="1108.25" width="6" height="6"/>
  <rect class="cls-4" x="1646" y="1102.25" width="6" height="18"/>
  <rect class="cls-4" x="1646" y="1102.25" width="18" height="6"/>
  <rect class="cls-4" x="1658" y="1102.25" width="6" height="18"/>
  <rect class="cls-1" x="1640" y="1126.25" width="6" height="6"/>
  <rect class="cls-1" x="1714" y="1126.25" width="6" height="6"/>
  <rect class="cls-3" x="1708" y="1108.25" width="12" height="6"/>
  <rect class="cls-3" x="1690" y="1108.25" width="12" height="6"/>
  <rect class="cls-1" x="1702" y="1126.25" width="6" height="6"/>
  <rect class="cls-1" x="1702" y="1114.25" width="6" height="18"/>
  <rect class="cls-4" x="1696" y="1114.25" width="6" height="6"/>
  <rect class="cls-3" x="1696" y="1114.25" width="18" height="6"/>
  <rect class="cls-3" x="1696" y="1102.25" width="6" height="18"/>
  <rect class="cls-3" x="1696" y="1102.25" width="18" height="6"/>
  <rect class="cls-3" x="1708" y="1102.25" width="6" height="18"/>
  <rect class="cls-1" x="1690" y="1126.25" width="6" height="6"/>
</svg>