<?xml version="1.0" encoding="utf-8"?>
<!-- Generator: Adobe Illustrator 28.2.0, SVG Export Plug-In . SVG Version: 6.00 Build 0)  -->
<svg version="1.1" id="レイヤー_1" xmlns="http://www.w3.org/2000/svg" xmlns:xlink="http://www.w3.org/1999/xlink" x="0px"
	 y="0px" viewBox="0 0 2021 1011" style="enable-background:new 0 0 2021 1011;" xml:space="preserve">
<style type="text/css">
	.st0{fill:#020926;}
</style>
<g>
	<g>
		<rect x="101" class="st0" width="102" height="102"/>
	</g>
	<g>
		<rect x="1111" class="st0" width="102" height="102"/>
	</g>
	<g>
		<rect x="1010" y="101" class="st0" width="102" height="102"/>
	</g>
	<g>
		<rect x="303" y="202" class="st0" width="102" height="102"/>
	</g>
	<g>
		<rect x="1111" y="303" class="st0" width="102" height="102"/>
	</g>
	<g>
		<rect x="808" y="404" class="st0" width="102" height="102"/>
	</g>
	<g>
		<rect x="909" y="404" class="st0" width="102" height="102"/>
	</g>
	<g>
		<rect x="1010" y="404" class="st0" width="102" height="102"/>
	</g>
	<g>
		<rect x="1111" y="404" class="st0" width="102" height="102"/>
	</g>
	<g>
		<rect x="1818" y="404" class="st0" width="102" height="102"/>
	</g>
	<g>
		<rect x="606" y="505" class="st0" width="102" height="102"/>
	</g>
	<g>
		<rect x="1010" y="505" class="st0" width="102" height="102"/>
	</g>
	<g>
		<rect x="1212" y="505" class="st0" width="102" height="102"/>
	</g>
	<g>
		<rect x="1313" y="505" class="st0" width="102" height="102"/>
	</g>
	<g>
		<rect x="303" y="606" class="st0" width="102" height="102"/>
	</g>
	<g>
		<rect x="1414" y="606" class="st0" width="102" height="102"/>
	</g>
	<g>
		<rect x="909" y="707" class="st0" width="102" height="102"/>
	</g>
	<g>
		<rect x="1616" y="808" class="st0" width="102" height="102"/>
	</g>
	<g>
		<rect x="1919" y="808" class="st0" width="102" height="102"/>
	</g>
	<g>
		<rect x="606" y="909" class="st0" width="102" height="102"/>
	</g>
</g>
<g>
	<g>
		<rect x="404" class="st0" width="102" height="102"/>
	</g>
	<g>
		<rect x="1717" class="st0" width="102" height="102"/>
	</g>
	<g>
		<rect x="0" y="101" class="st0" width="102" height="102"/>
	</g>
	<g>
		<rect x="404" y="303" class="st0" width="102" height="102"/>
	</g>
	<g>
		<rect x="1515" y="303" class="st0" width="102" height="102"/>
	</g>
	<g>
		<rect x="707" y="404" class="st0" width="102" height="102"/>
	</g>
	<g>
		<rect x="1212" y="404" class="st0" width="102" height="102"/>
	</g>
	<g>
		<rect x="1313" y="404" class="st0" width="102" height="102"/>
	</g>
	<g>
		<rect x="101" y="505" class="st0" width="102" height="102"/>
	</g>
	<g>
		<rect x="808" y="505" class="st0" width="102" height="102"/>
	</g>
	<g>
		<rect x="909" y="505" class="st0" width="102" height="102"/>
	</g>
	<g>
		<rect x="1111" y="505" class="st0" width="102" height="102"/>
	</g>
	<g>
		<rect x="505" y="606" class="st0" width="102" height="102"/>
	</g>
	<g>
		<rect x="707" y="606" class="st0" width="102" height="102"/>
	</g>
	<g>
		<rect x="1313" y="606" class="st0" width="102" height="102"/>
	</g>
	<g>
		<rect x="1919" y="606" class="st0" width="102" height="102"/>
	</g>
	<g>
		<rect x="1212" y="707" class="st0" width="102" height="102"/>
	</g>
	<g>
		<rect x="202" y="808" class="st0" width="102" height="102"/>
	</g>
	<g>
		<rect x="1111" y="909" class="st0" width="102" height="102"/>
	</g>
	<g>
		<rect x="1717" y="909" class="st0" width="102" height="102"/>
	</g>
</g>
<g>
	<g>
		<rect x="1414" class="st0" width="102" height="102"/>
	</g>
	<g>
		<rect x="1616" class="st0" width="102" height="102"/>
	</g>
	<g>
		<rect x="505" y="202" class="st0" width="102" height="102"/>
	</g>
	<g>
		<rect x="1616" y="202" class="st0" width="102" height="102"/>
	</g>
	<g>
		<rect x="808" y="303" class="st0" width="102" height="102"/>
	</g>
	<g>
		<rect x="909" y="303" class="st0" width="102" height="102"/>
	</g>
	<g>
		<rect x="1313" y="303" class="st0" width="102" height="102"/>
	</g>
	<g>
		<rect x="404" y="404" class="st0" width="102" height="102"/>
	</g>
	<g>
		<rect x="0" y="505" class="st0" width="102" height="102"/>
	</g>
	<g>
		<rect x="505" y="505" class="st0" width="102" height="102"/>
	</g>
	<g>
		<rect x="1414" y="505" class="st0" width="102" height="102"/>
	</g>
	<g>
		<rect x="1616" y="505" class="st0" width="102" height="102"/>
	</g>
	<g>
		<rect x="404" y="606" class="st0" width="102" height="102"/>
	</g>
	<g>
		<rect x="808" y="606" class="st0" width="102" height="102"/>
	</g>
	<g>
		<rect x="1111" y="606" class="st0" width="102" height="102"/>
	</g>
	<g>
		<rect x="1717" y="606" class="st0" width="102" height="102"/>
	</g>
	<g>
		<rect x="707" y="707" class="st0" width="102" height="102"/>
	</g>
	<g>
		<rect x="1111" y="808" class="st0" width="102" height="102"/>
	</g>
	<g>
		<rect x="101" y="909" class="st0" width="102" height="102"/>
	</g>
	<g>
		<rect x="808" y="909" class="st0" width="102" height="102"/>
	</g>
</g>
<g>
	<g>
		<rect x="505" class="st0" width="102" height="102"/>
	</g>
	<g>
		<rect x="808" class="st0" width="102" height="102"/>
	</g>
	<g>
		<rect x="606" y="101" class="st0" width="102" height="102"/>
	</g>
	<g>
		<rect x="1717" y="101" class="st0" width="102" height="102"/>
	</g>
	<g>
		<rect x="1212" y="202" class="st0" width="102" height="102"/>
	</g>
	<g>
		<rect x="1313" y="202" class="st0" width="102" height="102"/>
	</g>
	<g>
		<rect x="202" y="303" class="st0" width="102" height="102"/>
	</g>
	<g>
		<rect x="606" y="303" class="st0" width="102" height="102"/>
	</g>
	<g>
		<rect x="1717" y="303" class="st0" width="102" height="102"/>
	</g>
	<g>
		<rect x="1414" y="404" class="st0" width="102" height="102"/>
	</g>
	<g>
		<rect x="303" y="505" class="st0" width="102" height="102"/>
	</g>
	<g>
		<rect x="707" y="505" class="st0" width="102" height="102"/>
	</g>
	<g>
		<rect x="1515" y="505" class="st0" width="102" height="102"/>
	</g>
	<g>
		<rect x="1919" y="505" class="st0" width="102" height="102"/>
	</g>
	<g>
		<rect x="606" y="606" class="st0" width="102" height="102"/>
	</g>
	<g>
		<rect x="404" y="707" class="st0" width="102" height="102"/>
	</g>
	<g>
		<rect x="1313" y="707" class="st0" width="102" height="102"/>
	</g>
	<g>
		<rect x="606" y="808" class="st0" width="102" height="102"/>
	</g>
	<g>
		<rect x="1313" y="909" class="st0" width="102" height="102"/>
	</g>
	<g>
		<rect x="1515" y="909" class="st0" width="102" height="102"/>
	</g>
</g>
<g>
	<g>
		<rect x="606" class="st0" width="102" height="102"/>
	</g>
	<g>
		<rect x="1919" class="st0" width="102" height="102"/>
	</g>
	<g>
		<rect x="303" y="101" class="st0" width="102" height="102"/>
	</g>
	<g>
		<rect x="909" y="101" class="st0" width="102" height="102"/>
	</g>
	<g>
		<rect x="1313" y="101" class="st0" width="102" height="102"/>
	</g>
	<g>
		<rect x="909" y="202" class="st0" width="102" height="102"/>
	</g>
	<g>
		<rect x="1515" y="202" class="st0" width="102" height="102"/>
	</g>
	<g>
		<rect x="1818" y="202" class="st0" width="102" height="102"/>
	</g>
	<g>
		<rect x="0" y="303" class="st0" width="102" height="102"/>
	</g>
	<g>
		<rect x="303" y="404" class="st0" width="102" height="102"/>
	</g>
	<g>
		<rect x="606" y="404" class="st0" width="102" height="102"/>
	</g>
	<g>
		<rect x="202" y="606" class="st0" width="102" height="102"/>
	</g>
	<g>
		<rect x="909" y="606" class="st0" width="102" height="102"/>
	</g>
	<g>
		<rect x="1616" y="606" class="st0" width="102" height="102"/>
	</g>
	<g>
		<rect x="0" y="707" class="st0" width="102" height="102"/>
	</g>
	<g>
		<rect x="303" y="707" class="st0" width="102" height="102"/>
	</g>
	<g>
		<rect x="1010" y="707" class="st0" width="102" height="102"/>
	</g>
	<g>
		<rect x="1818" y="707" class="st0" width="102" height="102"/>
	</g>
	<g>
		<rect x="1414" y="808" class="st0" width="102" height="102"/>
	</g>
	<g>
		<rect x="1818" y="909" class="st0" width="102" height="102"/>
	</g>
</g>
<g>
	<g>
		<rect x="1212" class="st0" width="102" height="102"/>
	</g>
	<g>
		<rect x="1313" class="st0" width="102" height="102"/>
	</g>
	<g>
		<rect x="404" y="101" class="st0" width="102" height="102"/>
	</g>
	<g>
		<rect x="808" y="101" class="st0" width="102" height="102"/>
	</g>
	<g>
		<rect x="1919" y="101" class="st0" width="102" height="102"/>
	</g>
	<g>
		<rect x="101" y="202" class="st0" width="102" height="102"/>
	</g>
	<g>
		<rect x="707" y="202" class="st0" width="102" height="102"/>
	</g>
	<g>
		<rect x="1414" y="303" class="st0" width="102" height="102"/>
	</g>
	<g>
		<rect x="1919" y="303" class="st0" width="102" height="102"/>
	</g>
	<g>
		<rect x="0" y="404" class="st0" width="102" height="102"/>
	</g>
	<g>
		<rect x="505" y="404" class="st0" width="102" height="102"/>
	</g>
	<g>
		<rect x="1616" y="404" class="st0" width="102" height="102"/>
	</g>
	<g>
		<rect x="1818" y="505" class="st0" width="102" height="102"/>
	</g>
	<g>
		<rect x="101" y="606" class="st0" width="102" height="102"/>
	</g>
	<g>
		<rect x="1515" y="707" class="st0" width="102" height="102"/>
	</g>
	<g>
		<rect x="1717" y="707" class="st0" width="102" height="102"/>
	</g>
	<g>
		<rect x="0" y="808" class="st0" width="102" height="102"/>
	</g>
	<g>
		<rect x="202" y="909" class="st0" width="102" height="102"/>
	</g>
	<g>
		<rect x="505" y="909" class="st0" width="102" height="102"/>
	</g>
	<g>
		<rect x="909" y="909" class="st0" width="102" height="102"/>
	</g>
</g>
<g>
	<g>
		<rect x="0" class="st0" width="102" height="102"/>
	</g>
	<g>
		<rect x="909" class="st0" width="102" height="102"/>
	</g>
	<g>
		<rect x="1010" class="st0" width="102" height="102"/>
	</g>
	<g>
		<rect x="101" y="101" class="st0" width="102" height="102"/>
	</g>
	<g>
		<rect x="1414" y="101" class="st0" width="102" height="102"/>
	</g>
	<g>
		<rect x="1111" y="202" class="st0" width="102" height="102"/>
	</g>
	<g>
		<rect x="1717" y="202" class="st0" width="102" height="102"/>
	</g>
	<g>
		<rect x="303" y="303" class="st0" width="102" height="102"/>
	</g>
	<g>
		<rect x="707" y="303" class="st0" width="102" height="102"/>
	</g>
	<g>
		<rect x="1010" y="303" class="st0" width="102" height="102"/>
	</g>
	<g>
		<rect x="1515" y="404" class="st0" width="102" height="102"/>
	</g>
	<g>
		<rect x="1212" y="606" class="st0" width="102" height="102"/>
	</g>
	<g>
		<rect x="1515" y="606" class="st0" width="102" height="102"/>
	</g>
	<g>
		<rect x="101" y="707" class="st0" width="102" height="102"/>
	</g>
	<g>
		<rect x="1919" y="707" class="st0" width="102" height="102"/>
	</g>
	<g>
		<rect x="505" y="808" class="st0" width="102" height="102"/>
	</g>
	<g>
		<rect x="707" y="808" class="st0" width="102" height="102"/>
	</g>
	<g>
		<rect x="1010" y="808" class="st0" width="102" height="102"/>
	</g>
	<g>
		<rect x="303" y="909" class="st0" width="102" height="102"/>
	</g>
	<g>
		<rect x="1212" y="909" class="st0" width="102" height="102"/>
	</g>
</g>
<g>
	<g>
		<rect x="202" class="st0" width="102" height="102"/>
	</g>
	<g>
		<rect x="303" class="st0" width="102" height="102"/>
	</g>
	<g>
		<rect x="1515" y="101" class="st0" width="102" height="102"/>
	</g>
	<g>
		<rect x="202" y="202" class="st0" width="102" height="102"/>
	</g>
	<g>
		<rect x="606" y="202" class="st0" width="102" height="102"/>
	</g>
	<g>
		<rect x="1212" y="303" class="st0" width="102" height="102"/>
	</g>
	<g>
		<rect x="1616" y="303" class="st0" width="102" height="102"/>
	</g>
	<g>
		<rect x="1818" y="303" class="st0" width="102" height="102"/>
	</g>
	<g>
		<rect x="202" y="404" class="st0" width="102" height="102"/>
	</g>
	<g>
		<rect x="1919" y="404" class="st0" width="102" height="102"/>
	</g>
	<g>
		<rect x="404" y="505" class="st0" width="102" height="102"/>
	</g>
	<g>
		<rect x="1717" y="505" class="st0" width="102" height="102"/>
	</g>
	<g>
		<rect x="808" y="707" class="st0" width="102" height="102"/>
	</g>
	<g>
		<rect x="1111" y="707" class="st0" width="102" height="102"/>
	</g>
	<g>
		<rect x="404" y="808" class="st0" width="102" height="102"/>
	</g>
	<g>
		<rect x="1515" y="808" class="st0" width="102" height="102"/>
	</g>
	<g>
		<rect x="1717" y="808" class="st0" width="102" height="102"/>
	</g>
	<g>
		<rect x="0" y="909" class="st0" width="102" height="102"/>
	</g>
	<g>
		<rect x="707" y="909" class="st0" width="102" height="102"/>
	</g>
	<g>
		<rect x="1414" y="909" class="st0" width="102" height="102"/>
	</g>
</g>
<g>
	<g>
		<rect x="1515" class="st0" width="102" height="102"/>
	</g>
	<g>
		<rect x="505" y="101" class="st0" width="102" height="102"/>
	</g>
	<g>
		<rect x="707" y="101" class="st0" width="102" height="102"/>
	</g>
	<g>
		<rect x="1616" y="101" class="st0" width="102" height="102"/>
	</g>
	<g>
		<rect x="1818" y="101" class="st0" width="102" height="102"/>
	</g>
	<g>
		<rect x="0" y="202" class="st0" width="102" height="102"/>
	</g>
	<g>
		<rect x="808" y="202" class="st0" width="102" height="102"/>
	</g>
	<g>
		<rect x="1010" y="202" class="st0" width="102" height="102"/>
	</g>
	<g>
		<rect x="505" y="303" class="st0" width="102" height="102"/>
	</g>
	<g>
		<rect x="101" y="404" class="st0" width="102" height="102"/>
	</g>
	<g>
		<rect x="1717" y="404" class="st0" width="102" height="102"/>
	</g>
	<g>
		<rect x="1010" y="606" class="st0" width="102" height="102"/>
	</g>
	<g>
		<rect x="202" y="707" class="st0" width="102" height="102"/>
	</g>
	<g>
		<rect x="505" y="707" class="st0" width="102" height="102"/>
	</g>
	<g>
		<rect x="1616" y="707" class="st0" width="102" height="102"/>
	</g>
	<g>
		<rect x="303" y="808" class="st0" width="102" height="102"/>
	</g>
	<g>
		<rect x="909" y="808" class="st0" width="102" height="102"/>
	</g>
	<g>
		<rect x="1212" y="808" class="st0" width="102" height="102"/>
	</g>
	<g>
		<rect x="1010" y="909" class="st0" width="102" height="102"/>
	</g>
	<g>
		<rect x="1919" y="909" class="st0" width="102" height="102"/>
	</g>
</g>
<g>
	<g>
		<rect x="707" class="st0" width="102" height="102"/>
	</g>
	<g>
		<rect x="1818" class="st0" width="102" height="102"/>
	</g>
	<g>
		<rect x="202" y="101" class="st0" width="102" height="102"/>
	</g>
	<g>
		<rect x="1111" y="101" class="st0" width="102" height="102"/>
	</g>
	<g>
		<rect x="1212" y="101" class="st0" width="102" height="102"/>
	</g>
	<g>
		<rect x="404" y="202" class="st0" width="102" height="102"/>
	</g>
	<g>
		<rect x="1414" y="202" class="st0" width="102" height="102"/>
	</g>
	<g>
		<rect x="1919" y="202" class="st0" width="102" height="102"/>
	</g>
	<g>
		<rect x="101" y="303" class="st0" width="102" height="102"/>
	</g>
	<g>
		<rect x="202" y="505" class="st0" width="102" height="102"/>
	</g>
	<g>
		<rect x="0" y="606" class="st0" width="102" height="102"/>
	</g>
	<g>
		<rect x="1818" y="606" class="st0" width="102" height="102"/>
	</g>
	<g>
		<rect x="606" y="707" class="st0" width="102" height="102"/>
	</g>
	<g>
		<rect x="1414" y="707" class="st0" width="102" height="102"/>
	</g>
	<g>
		<rect x="101" y="808" class="st0" width="102" height="102"/>
	</g>
	<g>
		<rect x="808" y="808" class="st0" width="102" height="102"/>
	</g>
	<g>
		<rect x="1313" y="808" class="st0" width="102" height="102"/>
	</g>
	<g>
		<rect x="1818" y="808" class="st0" width="102" height="102"/>
	</g>
	<g>
		<rect x="404" y="909" class="st0" width="102" height="102"/>
	</g>
	<g>
		<rect x="1616" y="909" class="st0" width="102" height="102"/>
	</g>
</g>
</svg>
