<?xml version="1.0" encoding="UTF-8"?>
<svg id="_レイヤー_2" data-name="レイヤー 2" xmlns="http://www.w3.org/2000/svg" viewBox="0 0 1450.57 407.72">
  <defs>
    <style>
      .cls-1 {
        fill: #b3b3b3;
        stroke-width: 0px;
      }
    </style>
  </defs>
  <g id="_レイヤー_1-2" data-name="レイヤー 1">
    <g>
      <rect class="cls-1" x="1277.37" y="387.43" width="10.15" height="10.15"/>
      <rect class="cls-1" x="1287.52" y="397.57" width="64.54" height="10.15"/>
      <rect class="cls-1" x="1287.52" y="377.28" width="10.15" height="30.44"/>
      <rect class="cls-1" x="1277.37" y="387.43" width="71.04" height="10.15"/>
      <rect class="cls-1" x="1348.25" y="397.57" width="10.15" height="10.15"/>
      <rect class="cls-1" x="1287.19" y="387.45" width="61.07" height="20.27"/>
      <rect class="cls-1" x="1297.66" y="367.13" width="20.3" height="40.59"/>
      <rect class="cls-1" x="1288.45" y="377.28" width="49.8" height="30.44"/>
    </g>
    <g>
      <rect class="cls-1" x="885.8" y="80.67" width="10.15" height="10.15"/>
      <rect class="cls-1" x="895.94" y="90.81" width="64.54" height="10.15"/>
      <rect class="cls-1" x="895.94" y="70.52" width="10.15" height="30.44"/>
      <rect class="cls-1" x="885.8" y="80.67" width="71.04" height="10.15"/>
      <rect class="cls-1" x="956.67" y="90.81" width="10.15" height="10.15"/>
      <rect class="cls-1" x="895.61" y="80.69" width="61.07" height="20.27"/>
      <rect class="cls-1" x="906.09" y="60.37" width="20.3" height="40.59"/>
      <rect class="cls-1" x="896.88" y="70.52" width="49.8" height="30.44"/>
    </g>
    <g>
      <rect class="cls-1" x="210.94" y="249.07" width="10.15" height="10.15"/>
      <rect class="cls-1" x="221.09" y="259.22" width="64.54" height="10.15"/>
      <rect class="cls-1" x="221.09" y="238.92" width="10.15" height="30.44"/>
      <rect class="cls-1" x="210.94" y="249.07" width="71.04" height="10.15"/>
      <rect class="cls-1" x="281.82" y="259.22" width="10.15" height="10.15"/>
      <rect class="cls-1" x="220.76" y="249.1" width="61.07" height="20.27"/>
      <rect class="cls-1" x="231.24" y="228.77" width="20.3" height="40.59"/>
      <rect class="cls-1" x="222.03" y="238.92" width="49.8" height="30.44"/>
    </g>
    <g>
      <rect class="cls-1" x="1320.66" y="54.53" width="16.27" height="16.27"/>
      <rect class="cls-1" x="1336.93" y="70.8" width="103.47" height="16.27"/>
      <rect class="cls-1" x="1336.93" y="38.26" width="16.27" height="48.81"/>
      <rect class="cls-1" x="1320.66" y="54.53" width="113.9" height="16.27"/>
      <rect class="cls-1" x="1434.3" y="70.8" width="16.27" height="16.27"/>
      <rect class="cls-1" x="1353.2" y="21.99" width="32.54" height="65.08"/>
      <rect class="cls-1" x="1338.64" y="38.26" width="79.64" height="48.81"/>
      <rect class="cls-1" x="1402.21" y="54.35" width="32.54" height="32.73"/>
    </g>
    <g>
      <rect class="cls-1" x="1000.66" y="265.16" width="16.27" height="16.27"/>
      <rect class="cls-1" x="1016.93" y="281.43" width="103.47" height="16.27"/>
      <rect class="cls-1" x="1016.93" y="248.89" width="16.27" height="48.81"/>
      <rect class="cls-1" x="1000.66" y="265.16" width="113.9" height="16.27"/>
      <rect class="cls-1" x="1114.3" y="281.43" width="16.27" height="16.27"/>
      <rect class="cls-1" x="1033.2" y="232.62" width="32.54" height="65.08"/>
      <rect class="cls-1" x="1018.64" y="248.89" width="79.64" height="48.81"/>
      <rect class="cls-1" x="1082.21" y="264.97" width="32.54" height="32.73"/>
    </g>
    <g>
      <rect class="cls-1" x="646.13" y="332.41" width="16.27" height="16.27"/>
      <rect class="cls-1" x="662.4" y="348.68" width="103.47" height="16.27"/>
      <rect class="cls-1" x="662.4" y="316.13" width="16.27" height="48.81"/>
      <rect class="cls-1" x="646.13" y="332.41" width="113.9" height="16.27"/>
      <rect class="cls-1" x="759.77" y="348.68" width="16.27" height="16.27"/>
      <rect class="cls-1" x="678.67" y="299.86" width="32.54" height="65.08"/>
      <rect class="cls-1" x="664.11" y="316.13" width="79.64" height="48.81"/>
      <rect class="cls-1" x="727.68" y="332.22" width="32.54" height="32.73"/>
    </g>
    <g>
      <rect class="cls-1" x="395.65" y="62.68" width="16.27" height="16.27"/>
      <rect class="cls-1" x="411.92" y="78.95" width="103.47" height="16.27"/>
      <rect class="cls-1" x="411.92" y="46.4" width="16.27" height="48.81"/>
      <rect class="cls-1" x="395.65" y="62.68" width="113.9" height="16.27"/>
      <rect class="cls-1" x="509.29" y="78.95" width="16.27" height="16.27"/>
      <rect class="cls-1" x="428.19" y="30.13" width="32.54" height="65.08"/>
      <rect class="cls-1" x="413.63" y="46.4" width="79.64" height="48.81"/>
      <rect class="cls-1" x="477.2" y="62.49" width="32.54" height="32.73"/>
    </g>
    <g>
      <rect class="cls-1" y="32.54" width="16.27" height="16.27"/>
      <rect class="cls-1" x="16.27" y="48.81" width="103.47" height="16.27"/>
      <rect class="cls-1" x="16.27" y="16.27" width="16.27" height="48.81"/>
      <rect class="cls-1" y="32.54" width="113.9" height="16.27"/>
      <rect class="cls-1" x="113.64" y="48.81" width="16.27" height="16.27"/>
      <rect class="cls-1" x="32.54" width="32.54" height="65.08"/>
      <rect class="cls-1" x="17.98" y="16.27" width="79.64" height="48.81"/>
      <rect class="cls-1" x="81.55" y="32.36" width="32.54" height="32.73"/>
    </g>
  </g>
</svg>