<?xml version="1.0" encoding="UTF-8"?>
<svg id="_レイヤー_2" data-name="レイヤー 2" xmlns="http://www.w3.org/2000/svg" viewBox="0 0 300 300">
  <defs>
    <style>
      .cls-1 {
        fill: #fff;
      }

      .cls-1, .cls-2 {
        stroke-width: 0px;
      }

      .cls-2 {
        fill: #0058b3;
      }
    </style>
  </defs>
  <g id="_レイヤー_1-2" data-name="レイヤー 1">
    <polygon class="cls-2" points="270 90 270 60 240 60 240 30 210 30 210 0 180 0 150 0 120 0 90 0 90 30 60 30 60 60 30 60 30 90 0 90 0 120 0 150 0 180 0 210 30 210 30 240 60 240 60 270 90 270 90 300 120 300 150 300 180 300 210 300 210 270 240 270 240 240 270 240 270 210 300 210 300 180 300 150 300 120 300 90 270 90"/>
    <rect class="cls-1" x="30" y="60" width="60" height="30"/>
    <rect class="cls-1" y="90" width="60" height="30"/>
    <rect class="cls-1" y="90" width="30" height="60"/>
    <rect class="cls-1" x="30" y="60" width="30" height="60"/>
    <g>
      <rect class="cls-1" x="120" y="90" width="30" height="30"/>
      <rect class="cls-1" x="90" y="120" width="30" height="30"/>
      <rect class="cls-1" x="150" y="60" width="30" height="30"/>
    </g>
    <g>
      <rect class="cls-1" x="60" y="180" width="30" height="30"/>
      <rect class="cls-1" x="90" y="210" width="90" height="60"/>
      <rect class="cls-1" x="150" y="180" width="30" height="120"/>
      <rect class="cls-1" x="90" y="210" width="30" height="90"/>
    </g>
    <g>
      <rect class="cls-1" x="210" y="210" width="30" height="30"/>
      <rect class="cls-1" x="240" y="180" width="30" height="30"/>
    </g>
  </g>
</svg>