<?xml version="1.0" encoding="UTF-8"?>
<svg id="_レイヤー_2" data-name="レイヤー 2" xmlns="http://www.w3.org/2000/svg" viewBox="0 0 619.21 557.17">
  <defs>
    <style>
      .cls-1 {
        fill: #cc9965;
      }

      .cls-1, .cls-2, .cls-3 {
        stroke-width: 0px;
      }

      .cls-2 {
        fill: #fecd99;
      }

      .cls-3 {
        fill: #fff;
      }
    </style>
  </defs>
  <g id="_レイヤー_1-2" data-name="レイヤー 1">
    <rect class="cls-2" x="205.29" y="174.71" width="80" height="381" transform="translate(-150.46 173.06) rotate(-30.21)"/>
    <rect class="cls-2" x="231.63" y="180.2" width="80" height="381" transform="translate(-149.65 187.06) rotate(-30.21)"/>
    <polygon class="cls-2" points="322.25 99.94 240.16 147.75 171.02 188.01 372.83 534.53 441.96 494.27 524.05 446.46 322.25 99.94"/>
    <rect class="cls-2" x="371.61" y="71.42" width="95" height="340" transform="translate(-64.55 243.71) rotate(-30.21)"/>
    <rect class="cls-2" x="468.75" y="228.99" width="95" height="120" transform="translate(-75.3 299.06) rotate(-30.21)"/>
    <rect class="cls-2" x="509.67" y="202.02" width="95" height="80" transform="translate(-46.1 313.27) rotate(-30.21)"/>
    <rect class="cls-2" x="523.02" y="158.14" width="60" height="80" transform="translate(-24.58 305.23) rotate(-30.21)"/>
    <rect class="cls-2" x="500.71" y="189.57" width="60" height="20" transform="translate(-28.33 294.19) rotate(-30.21)"/>
    <rect class="cls-3" x="468.46" y="39.97" width="20" height="100" transform="translate(19.72 253) rotate(-30.21)"/>
    <rect class="cls-3" x="503.02" y="-5.16" width="20" height="150" transform="translate(34.55 267.66) rotate(-30.21)"/>
    <rect class="cls-3" x="70.95" y="271.47" width="20" height="100" transform="translate(312.68 558.52) rotate(149.79)"/>
    <rect class="cls-3" x="36.38" y="266.6" width="20" height="150" transform="translate(258.37 613.44) rotate(149.79)"/>
    <g>
      <polygon class="cls-1" points="283.61 470.76 266.33 480.82 286.46 515.39 306.59 549.95 323.87 539.89 303.74 505.32 283.61 470.76"/>
      <polygon class="cls-1" points="226.07 411.69 205.94 377.13 185.81 342.56 165.68 307.99 145.55 273.43 124.92 238 107.64 248.06 128.27 283.49 148.4 318.06 168.53 352.63 188.66 387.19 208.79 421.76 228.92 456.32 249.05 490.89 266.33 480.82 246.2 446.26 226.07 411.69"/>
      <polygon class="cls-1" points="176.77 207.8 196.9 242.37 217.03 276.94 237.16 311.5 257.29 346.07 274.57 336 254.44 301.44 234.31 266.87 214.18 232.31 194.05 197.74 183.99 180.46 149.42 200.59 114.85 220.72 124.92 238 159.49 217.87 176.77 207.8"/>
      <polygon class="cls-1" points="235.83 150.26 245.9 167.54 266.03 202.11 286.16 236.68 306.29 271.24 326.42 305.81 343.7 295.74 323.57 261.18 303.44 226.61 283.31 192.05 263.18 157.48 253.12 140.2 287.68 120.07 304.97 110 324.59 143.7 344.72 178.27 364.85 212.84 395.55 265.55 412.83 255.48 382.14 202.77 362.01 168.2 341.88 133.64 332.31 117.22 384.16 87.03 374.1 69.74 322.25 99.94 321.75 99.07 312.18 82.65 277.62 102.78 243.05 122.91 225.77 132.98 208.49 143.04 173.92 163.17 183.99 180.46 218.55 160.33 235.83 150.26"/>
      <polygon class="cls-1" points="541.53 158.55 506.97 178.67 517.03 195.96 551.6 175.83 591.86 244.96 574.58 255.02 584.64 272.31 619.21 252.18 609.14 234.89 568.88 165.76 558.82 148.48 541.53 158.55"/>
      <polygon class="cls-1" points="503.92 411.89 513.99 429.18 531.27 419.11 521.2 401.83 538.49 391.76 528.42 374.48 493.86 394.61 503.92 411.89"/>
      <rect class="cls-1" x="520.67" y="345.77" width="40" height="20" transform="translate(-105.59 320.43) rotate(-30.21)"/>
      <rect class="cls-1" x="545.17" y="308.36" width="40" height="20" transform="translate(-83.43 327.67) rotate(-30.21)"/>
      <rect class="cls-1" x="571.03" y="275.98" width="20" height="20" transform="translate(-64.98 331.25) rotate(-30.21)"/>
      <rect class="cls-1" x="503.42" y="199.63" width="20" height="20" transform="translate(-35.74 286.86) rotate(-30.21)"/>
      <polygon class="cls-1" points="424.42 156.16 444.55 190.72 475.25 243.44 485.32 260.72 519.88 240.59 509.82 223.31 492.53 233.37 461.84 180.66 441.71 146.09 421.58 111.53 401.45 76.96 384.16 87.03 404.29 121.59 424.42 156.16"/>
      <polygon class="cls-1" points="427.57 479.5 393.01 499.63 358.44 519.76 323.87 539.89 333.94 557.17 368.5 537.04 403.07 516.91 437.64 496.78 472.2 476.65 524.05 446.46 513.99 429.18 462.14 459.37 427.57 479.5"/>
    </g>
  </g>
</svg>