<svg display="none">
    <defs>
        <!--▼ html_icon ****************************************▼-->
        <symbol id="html" viewBox="0 0 352 384">
            <rect x="64" y="288" width="32" height="32"/>
            <rect x="32" y="256" width="32" height="32"/>
            <polygon points="320 0 288 0 256 0 224 0 192 0 160 0 128 0 96 0 64 0 32 0 0 0 0 32 0 64 0 96 0 128 0 160 0 192 0 224 0 256 32 256 32 224 32 192 32 160 32 128 32 96 32 64 32 32 64 32 96 32 128 32 160 32 192 32 224 32 256 32 288 32 320 32 320 64 320 96 320 128 320 160 320 192 320 224 320 256 352 256 352 224 352 192 352 160 352 128 352 96 352 64 352 32 352 0 320 0"/>
            <rect x="288" y="256" width="32" height="32"/>
            <rect x="256" y="288" width="32" height="32"/>
            <rect x="96" y="320" width="32" height="32"/>
            <rect x="224" y="320" width="32" height="32"/>
            <polygon points="160 352 128 352 128 384 160 384 192 384 224 384 224 352 192 352 160 352"/>
            <rect x="198" y="140" width="24" height="24"/>
            <polygon points="106 212 82 212 82 188 82 164 82 140 82 116 82 92 58 92 58 116 58 140 58 164 58 188 58 212 58 236 82 236 106 236 130 236 154 236 154 212 130 212 106 212"/>
            <polygon points="222 212 198 212 198 188 174 188 174 212 174 236 198 236 222 236 246 236 270 236 294 236 294 212 294 188 270 188 246 188 246 212 222 212"/>
            <polygon points="246 92 222 92 198 92 174 92 174 116 174 140 198 140 198 116 222 116 246 116 270 116 270 140 294 140 294 116 294 92 270 92 246 92"/>
            <rect x="222" y="164" width="24" height="24"/>
        </symbol>
        <!--▲ html_icon ****************************************▲-->

        <!--▼ css_icon ****************************************▼-->
        <symbol id="css" viewBox="0 0 352 384">
        <rect x="64" y="288" width="32" height="32"/>
            <rect x="32" y="256" width="32" height="32"/>
            <polygon points="320 0 288 0 256 0 224 0 192 0 160 0 128 0 96 0 64 0 32 0 0 0 0 32 0 64 0 96 0 128 0 160 0 192 0 224 0 256 32 256 32 224 32 192 32 160 32 128 32 96 32 64 32 32 64 32 96 32 128 32 160 32 192 32 224 32 256 32 288 32 320 32 320 64 320 96 320 128 320 160 320 192 320 224 320 256 352 256 352 224 352 192 352 160 352 128 352 96 352 64 352 32 352 0 320 0"/>
            <rect x="288" y="256" width="32" height="32"/>
            <rect x="256" y="288" width="32" height="32"/>
            <rect x="96" y="320" width="32" height="32"/>
            <rect x="224" y="320" width="32" height="32"/>
            <polygon points="160 352 128 352 128 384 160 384 192 384 224 384 224 352 192 352 160 352"/>
            <polygon points="200 80 176 80 152 80 128 80 104 80 104 104 128 104 152 104 176 104 200 104 224 104 224 128 224 152 200 152 176 152 152 152 128 152 104 152 104 176 128 176 152 176 176 176 200 176 224 176 224 200 224 224 200 224 176 224 152 224 128 224 104 224 104 248 128 248 152 248 176 248 200 248 224 248 248 248 248 224 248 200 248 176 248 152 248 128 248 104 248 80 224 80 200 80"/>
        </symbol>
        <!--▲ css_icon ****************************************▲-->

        <!--▼ js_icon ****************************************▼-->
        <symbol id="js" viewBox="0 0 352 384">
        <rect x="64" y="288" width="32" height="32"/>
            <rect x="32" y="256" width="32" height="32"/>
            <polygon points="320 0 288 0 256 0 224 0 192 0 160 0 128 0 96 0 64 0 32 0 0 0 0 32 0 64 0 96 0 128 0 160 0 192 0 224 0 256 32 256 32 224 32 192 32 160 32 128 32 96 32 64 32 32 64 32 96 32 128 32 160 32 192 32 224 32 256 32 288 32 320 32 320 64 320 96 320 128 320 160 320 192 320 224 320 256 352 256 352 224 352 192 352 160 352 128 352 96 352 64 352 32 352 0 320 0"/>
            <rect x="288" y="256" width="32" height="32"/>
            <rect x="256" y="288" width="32" height="32"/>
            <rect x="96" y="320" width="32" height="32"/>
            <rect x="224" y="320" width="32" height="32"/>
            <polygon points="160 352 128 352 128 384 160 384 192 384 224 384 224 352 192 352 160 352"/>
            <rect x="128" y="129" width="24" height="24"/>
            <polygon points="200 201 200 223 176 223 152 223 128 223 128 199 104 199 104 223 104 247 128 247 152 247 176 247 200 247 224 247 248 247 248 223 248 199 224 199 200 199 200 177 176 177 176 201 200 201"/>
            <polygon points="200 81 176 81 152 81 128 81 104 81 104 105 104 129 128 129 128 105 152 105 176 105 200 105 224 105 224 129 248 129 248 105 248 81 224 81 200 81"/>
            <rect x="152" y="153" width="24" height="24"/>
        </symbol>
        <!--▲ js_icon ****************************************▲-->

        <!--▼ wp_icon ****************************************▼-->
        <symbol id="wp" viewBox="0 0 384 384">
        <polygon points="120 208 120 184 120 160 120 136 120 112 96 112 96 136 96 160 96 184 96 208 96 232 96 256 120 256 120 232 120 208"/>
            <polygon points="264 136 264 160 264 184 264 208 264 232 264 256 288 256 288 232 288 208 288 184 288 160 288 136 288 112 264 112 264 136"/>
            <polygon points="216 256 207 256 207 232 207 208 207 184 207 160 183 160 183 184 183 208 183 232 183 256 168 256 144 256 120 256 120 280 144 280 168 280 192 280 216 280 240 280 264 280 264 256 240 256 216 256"/>
            <rect x="96" y="32" width="32" height="32"/>
            <rect x="256" y="32" width="32" height="32"/>
            <rect x="256" y="320" width="32" height="32"/>
            <rect x="96" y="320" width="32" height="32"/>
            <rect x="64" y="64" width="32" height="32"/>
            <rect x="288" y="64" width="32" height="32"/>
            <rect x="288" y="288" width="32" height="32"/>
            <rect x="64" y="288" width="32" height="32"/>
            <rect x="32" y="96" width="32" height="32"/>
            <rect x="320" y="96" width="32" height="32"/>
            <rect x="320" y="256" width="32" height="32"/>
            <rect x="32" y="256" width="32" height="32"/>
            <polygon points="32 192 32 160 32 128 0 128 0 160 0 192 0 224 0 256 32 256 32 224 32 192"/>
            <polygon points="352 128 352 160 352 192 352 224 352 256 384 256 384 224 384 192 384 160 384 128 352 128"/>
            <polygon points="192 32 224 32 256 32 256 0 224 0 192 0 160 0 128 0 128 32 160 32 192 32"/>
            <polygon points="192 352 160 352 128 352 128 384 160 384 192 384 224 384 256 384 256 352 224 352 192 352"/>
        </symbol>
        <!--▲ wp_icon ****************************************▲-->

        <!--▼ photoshop_icon ****************************************▼-->
        <symbol id="ps" viewBox="0 0 384 384">
        <rect x="214" y="172" width="24" height="24"/>
            <path d="m122,124h-48v144h24v-72h72v-72h-48Zm24,48h-48v-24h48v24Z"/>
            <polygon points="238 244 214 244 214 220 190 220 190 244 190 268 214 268 238 268 262 268 286 268 310 268 310 244 310 220 286 220 262 220 262 244 238 244"/>
            <polygon points="262 124 238 124 214 124 190 124 190 148 190 172 214 172 214 148 238 148 262 148 286 148 286 172 310 172 310 148 310 124 286 124 262 124"/>
            <rect x="238" y="196" width="24" height="24"/>
            <rect x="32" y="32" width="32" height="32"/>
            <polygon points="128 32 160 32 192 32 224 32 256 32 288 32 320 32 320 0 288 0 256 0 224 0 192 0 160 0 128 0 96 0 64 0 64 32 96 32 128 32"/>
            <polygon points="352 64 352 96 352 128 352 160 352 192 352 224 352 256 352 288 352 320 384 320 384 288 384 256 384 224 384 192 384 160 384 128 384 96 384 64 352 64"/>
            <rect x="320" y="32" width="32" height="32"/>
            <rect x="320" y="320" width="32" height="32"/>
            <rect x="32" y="320" width="32" height="32"/>
            <polygon points="32 256 32 224 32 192 32 160 32 128 32 96 32 64 0 64 0 96 0 128 0 160 0 192 0 224 0 256 0 288 0 320 32 320 32 288 32 256"/>
            <polygon points="256 352 224 352 192 352 160 352 128 352 96 352 64 352 64 384 96 384 128 384 160 384 192 384 224 384 256 384 288 384 320 384 320 352 288 352 256 352"/>
        </symbol>
        <!--▲ photoshop_icon ****************************************▲-->

        <!--▼ Illustrator_icon ****************************************▼-->
        <symbol id="ai" viewBox="0 0 384 384">
        <rect x="238" y="124" width="24" height="24"/>
            <path d="m146,124h-48v144h24v-72h48v72h24V124h-48Zm24,48h-48v-24h48v24Z"/>
            <polygon points="262 220 262 196 262 172 238 172 214 172 214 196 238 196 238 220 238 244 214 244 214 268 238 268 262 268 286 268 286 244 262 244 262 220"/>
            <rect x="32" y="32" width="32" height="32"/>
            <polygon points="128 32 160 32 192 32 224 32 256 32 288 32 320 32 320 0 288 0 256 0 224 0 192 0 160 0 128 0 96 0 64 0 64 32 96 32 128 32"/>
            <polygon points="352 64 352 96 352 128 352 160 352 192 352 224 352 256 352 288 352 320 384 320 384 288 384 256 384 224 384 192 384 160 384 128 384 96 384 64 352 64"/>
            <rect x="320" y="32" width="32" height="32"/>
            <rect x="320" y="320" width="32" height="32"/>
            <rect x="32" y="320" width="32" height="32"/>
            <polygon points="32 256 32 224 32 192 32 160 32 128 32 96 32 64 0 64 0 96 0 128 0 160 0 192 0 224 0 256 0 288 0 320 32 320 32 288 32 256"/>
            <polygon points="256 352 224 352 192 352 160 352 128 352 96 352 64 352 64 384 96 384 128 384 160 384 192 384 224 384 256 384 288 384 320 384 320 352 288 352 256 352"/>
        </symbol>
        <!--▲ Illustrator_icon ****************************************▲-->

        <!--▼ figma_icon ****************************************▼-->
        <symbol id="fig" viewBox="0 0 384 384">
        <polygon points="192 112 168 112 144 112 144 136 144 160 144 184 144 208 144 232 144 256 144 280 168 280 168 256 168 232 168 208 192 208 216 208 240 208 240 184 216 184 192 184 168 184 168 160 168 136 192 136 216 136 240 136 240 112 216 112 192 112"/>
            <rect x="32" y="32" width="32" height="32"/>
            <polygon points="128 32 160 32 192 32 224 32 256 32 288 32 320 32 320 0 288 0 256 0 224 0 192 0 160 0 128 0 96 0 64 0 64 32 96 32 128 32"/>
            <polygon points="352 64 352 96 352 128 352 160 352 192 352 224 352 256 352 288 352 320 384 320 384 288 384 256 384 224 384 192 384 160 384 128 384 96 384 64 352 64"/>
            <rect x="320" y="32" width="32" height="32"/>
            <rect x="320" y="320" width="32" height="32"/>
            <rect x="32" y="320" width="32" height="32"/>
            <polygon points="32 256 32 224 32 192 32 160 32 128 32 96 32 64 0 64 0 96 0 128 0 160 0 192 0 224 0 256 0 288 0 320 32 320 32 288 32 256"/>
            <polygon points="256 352 224 352 192 352 160 352 128 352 96 352 64 352 64 384 96 384 128 384 160 384 192 384 224 384 256 384 288 384 320 384 320 352 288 352 256 352"/>
        </symbol>
        <!--▲ figma_icon ****************************************▲-->

        <!--▼ other_icon ****************************************▼-->
        <symbol id="other" viewBox="0 0 384 384">
        <polygon points="228 132 204 132 180 132 156 132 156 156 180 156 204 156 228 156 252 156 276 156 276 132 252 132 228 132"/>
            <rect x="108" y="132" width="24" height="24"/>
            <polygon points="228 180 204 180 180 180 156 180 156 204 180 204 204 204 228 204 252 204 276 204 276 180 252 180 228 180"/>
            <rect x="108" y="180" width="24" height="24"/>
            <polygon points="228 228 204 228 180 228 156 228 156 252 180 252 204 252 228 252 252 252 276 252 276 228 252 228 228 228"/>
            <rect x="108" y="228" width="24" height="24"/>
            <rect x="96" y="32" width="32" height="32"/>
            <rect x="256" y="32" width="32" height="32"/>
            <rect x="256" y="320" width="32" height="32"/>
            <rect x="96" y="320" width="32" height="32"/>
            <rect x="64" y="64" width="32" height="32"/>
            <rect x="288" y="64" width="32" height="32"/>
            <rect x="288" y="288" width="32" height="32"/>
            <rect x="64" y="288" width="32" height="32"/>
            <rect x="32" y="96" width="32" height="32"/>
            <rect x="320" y="96" width="32" height="32"/>
            <rect x="320" y="256" width="32" height="32"/>
            <rect x="32" y="256" width="32" height="32"/>
            <polygon points="32 192 32 160 32 128 0 128 0 160 0 192 0 224 0 256 32 256 32 224 32 192"/>
            <polygon points="352 128 352 160 352 192 352 224 352 256 384 256 384 224 384 192 384 160 384 128 352 128"/>
            <polygon points="192 32 224 32 256 32 256 0 224 0 192 0 160 0 128 0 128 32 160 32 192 32"/>
            <polygon points="192 352 160 352 128 352 128 384 160 384 192 384 224 384 256 384 256 352 224 352 192 352"/>
        </symbol>
        <!--▲ other_icon ****************************************▲-->


        <!--▼ airplane ****************************************▼-->
        <symbol id="airplane" viewBox="0 0 1560 640">
            <rect class="c-airplane__cls-4" x="1000" y="480" width="40" height="40"/>
            <rect class="c-airplane__cls-1" x="960" y="480" width="40" height="40"/>
            <rect class="c-airplane__cls-1" x="920" y="480" width="40" height="40"/>
            <rect class="c-airplane__cls-1" x="880" y="480" width="40" height="40"/>
            <rect class="c-airplane__cls-1" x="840" y="480" width="40" height="40"/>
            <rect class="c-airplane__cls-1" x="800" y="480" width="40" height="40"/>
            <rect class="c-airplane__cls-1" x="760" y="440" width="40" height="40"/>
            <rect class="c-airplane__cls-4" x="680" y="400" width="80" height="40"/>
            <rect class="c-airplane__cls-4" x="680" y="400" width="40" height="40"/>
            <rect class="c-airplane__cls-4" x="640" y="360" width="120" height="40"/>
            <rect class="c-airplane__cls-4" x="560" y="320" width="280" height="40"/>
            <polygon class="c-airplane__cls-4" points="1520 320 760 320 440 320 440 360 360 360 360 440 720 440 720 480 760 480 1040 480 1040 520 1080 520 1120 520 1160 520 1200 520 1240 520 1280 520 1320 520 1360 520 1400 520 1400 480 1440 480 1440 440 1480 440 1480 400 1520 400 1520 360 1560 360 1560 320 1520 320"/>
            <rect class="c-airplane__cls-4" x="1000" y="440" width="40" height="40"/>
            <polygon class="c-airplane__cls-5" points="880 360 880 400 840 400 840 440 800 440 800 480 760 480 760 520 720 520 720 560 680 560 680 600 640 600 640 640 920 640 920 600 960 600 960 560 1000 560 1000 520 1040 520 1040 480 1080 480 1080 440 1120 440 1120 400 1160 400 1160 360 880 360"/>
            <polygon class="c-airplane__cls-5" points="1520 280 1480 280 1426.67 280 1391.11 280 1391.11 240 1391.11 200 1400 200 1440 200 1440 160 1400 160 1400 120 1360 120 1320 120 1301.33 120 1280 120 1242.67 120 1240 120 1200 120 1184 120 1160 120 1125.33 120 1120 120 1080 120 1066.67 120 1040 120 1008 120 1000 120 960 120 949.33 120 920 120 890.67 120 880 120 840 120 832 120 800 120 773.33 120 714.67 120 656 120 597.33 120 538.67 120 480 120 480 160 480 200 200 200 200 320 520 320 560 320 680 320 724.44 320 733.33 320 786.67 320 840 320 893.33 320 946.67 320 1000 320 1053.33 320 1106.67 320 1160 320 1213.33 320 1266.67 320 1320 320 1373.33 320 1426.67 320 1480 320 1520 320 1560 320 1560 280 1520 280"/>
            <polygon class="c-airplane__cls-3" points="1480 240 1480 200 1440 200 1400 200 1360 200 1360 240 1360 280 1400 280 1440 280 1480 280 1520 280 1520 240 1480 240"/>
            <polygon class="c-airplane__cls-3" points="1280 200 1240 200 1240 240 1240 280 1280 280 1320 280 1320 240 1320 200 1280 200"/>
            <polygon class="c-airplane__cls-3" points="1160 200 1120 200 1120 240 1120 280 1160 280 1200 280 1200 240 1200 200 1160 200"/>
            <polygon class="c-airplane__cls-3" points="1040 200 1000 200 1000 240 1000 280 1040 280 1080 280 1080 240 1080 200 1040 200"/>
            <polygon class="c-airplane__cls-2" points="200 280 200 320 160 320 120 320 120 360 80 360 80 400 40 400 40 440 0 440 0 480 40 480 280 480 320 480 320 440 360 440 360 400 400 400 400 360 440 360 440 320 480 320 480 280 200 280"/>
            <polygon class="c-airplane__cls-2" points="440 160 440 120 400 120 400 80 360 80 360 40 320 40 320 0 280 0 240 0 40 0 0 0 0 40 40 40 40 80 80 80 80 120 120 120 120 160 160 160 200 160 200 200 480 200 480 160 440 160"/>
        </symbol>
        <!--▲ airplane ****************************************▲-->

        <!--▼ contact ****************************************▼-->
        <symbol id="mail" viewBox="0 0 167.31 167.3">
            <g>
            <path class="p-contact__mail-color" d="m52.86,20.01c.47-.23.83-.49,1.06-.79.24-.29.38-.6.43-.93.05-.33.03-.66-.06-1.01-.09-.35-.22-.69-.39-1.03l-.16-.34,2.47-1.21.16.34c.76,1.56.94,2.96.53,4.2-.41,1.24-1.39,2.24-2.95,3-1.5.73-2.9.85-4.22.37-1.32-.48-2.4-1.6-3.26-3.35l-1.43-2.92c-.41-.84-.66-1.64-.76-2.42-.1-.78-.05-1.5.15-2.16.2-.66.54-1.26,1.02-1.8s1.09-.99,1.84-1.35c.77-.38,1.52-.6,2.22-.67.71-.07,1.37.01,1.98.24s1.17.59,1.67,1.09c.5.5.93,1.12,1.3,1.87l.16.34-2.47,1.21-.16-.34c-.15-.31-.34-.6-.57-.88-.23-.28-.49-.5-.79-.66-.3-.16-.63-.25-1.01-.26-.38,0-.79.1-1.24.31-.41.2-.73.45-.95.75-.22.3-.37.64-.44,1-.07.37-.06.75.02,1.15s.21.8.4,1.18l1.61,3.29c.21.42.44.79.7,1.11.26.31.55.55.86.73s.66.25,1.04.25c.38,0,.78-.12,1.22-.33Z"/>
            <path class="p-contact__mail-color" d="m57.93,10.42c-.51-1.82-.44-3.36.2-4.62.64-1.26,1.76-2.11,3.38-2.56,1.62-.45,3.02-.3,4.22.45,1.2.75,2.05,2.03,2.55,3.85l.87,3.13c.52,1.87.46,3.42-.19,4.66-.64,1.23-1.78,2.07-3.39,2.52s-3.02.31-4.21-.41c-1.19-.72-2.04-2.02-2.56-3.89l-.87-3.13Zm6.97,5.02c.48-.13.86-.32,1.14-.57.28-.24.48-.53.6-.87.12-.34.17-.71.14-1.12s-.11-.85-.24-1.32l-.96-3.45c-.12-.44-.29-.84-.49-1.21-.2-.36-.44-.66-.72-.88-.28-.23-.6-.38-.97-.45-.37-.08-.78-.05-1.23.07-.45.13-.82.32-1.09.57-.27.26-.47.55-.6.89-.12.34-.18.71-.16,1.13.01.41.08.84.21,1.28l.96,3.45c.13.47.29.88.48,1.25.19.37.42.66.7.89.28.23.6.37.96.43.36.06.79.03,1.27-.1Z"/>
            <path class="p-contact__mail-color" d="m79.65,13.79l.37-.03-1.17-13.15,2.74-.24,1.29,14.52-5.35.48-2.87-13-.37.03,1.17,13.15-2.74.24-1.3-14.52,5.35-.48,2.87,13Z"/>
            <path class="p-contact__mail-color" d="m86.45.35l10.45.95-.24,2.61-3.86-.35-1.08,11.9-2.74-.25,1.08-11.9-3.86-.35.24-2.61Z"/>
            <path class="p-contact__mail-color" d="m105.88,15.27l-4.77-1.34-1.52,2.82-2.77-.78,7.28-13.1,4.97,1.39-.58,14.97-2.77-.78.16-3.2Zm-3.5-3.71l3.63,1.02.39-7.63-.36-.1-3.66,6.72Z"/>
            <path class="p-contact__mail-color" d="m115.35,20.11c.47.23.9.35,1.27.36.38,0,.71-.07,1-.23.29-.16.54-.38.76-.67.22-.29.41-.6.58-.94l.17-.34,2.47,1.21-.17.34c-.76,1.56-1.76,2.56-2.99,3-1.23.44-2.62.28-4.18-.49-1.5-.73-2.46-1.77-2.88-3.11-.43-1.34-.21-2.88.65-4.62l1.43-2.92c.41-.83.89-1.53,1.44-2.09.55-.56,1.15-.96,1.8-1.21.65-.25,1.33-.35,2.05-.29.72.05,1.45.26,2.2.63.77.38,1.4.83,1.89,1.35.49.52.83,1.09,1.03,1.71s.25,1.28.16,1.98-.32,1.42-.68,2.17l-.17.34-2.47-1.21.17-.34c.15-.31.27-.64.35-.99.08-.35.09-.69.04-1.02-.05-.33-.19-.65-.41-.96s-.56-.56-1.01-.78c-.41-.2-.81-.3-1.18-.29-.38,0-.73.1-1.06.27-.33.17-.63.41-.9.72s-.5.66-.69,1.04l-1.62,3.29c-.21.42-.36.83-.44,1.23-.09.4-.1.77-.04,1.13s.21.68.44.97c.23.29.57.55,1.01.76Z"/>
            <path class="p-contact__mail-color" d="m129.52,13.76l8.43,6.25-1.56,2.11-3.11-2.31-7.12,9.6-2.21-1.64,7.12-9.6-3.11-2.31,1.56-2.11Z"/>
            <path class="p-contact__mail-color" d="m138.54,34.79l4.35-3.63,3.63,4.35-4.35,3.63-3.63-4.35Z"/>
            <path class="p-contact__mail-color" d="m147.87,52.6c.23.47.5.83.79,1.06.29.23.6.38.93.42.33.05.66.03,1.01-.07s.69-.22,1.03-.39l.34-.17,1.22,2.46-.34.17c-1.56.77-2.96.95-4.2.55-1.24-.4-2.25-1.38-3.02-2.94-.74-1.49-.87-2.9-.39-4.22.48-1.32,1.59-2.41,3.33-3.27l2.91-1.44c.83-.41,1.64-.67,2.42-.77s1.5-.06,2.16.14,1.26.54,1.8,1.02c.54.48.99,1.09,1.36,1.84.38.77.61,1.51.68,2.22.07.71,0,1.37-.23,1.98s-.58,1.17-1.08,1.67-1.12.93-1.87,1.3l-.34.17-1.22-2.47.34-.17c.31-.15.6-.34.88-.57.27-.23.49-.49.66-.79.16-.3.25-.63.26-1.01,0-.38-.1-.79-.32-1.24-.2-.41-.46-.73-.76-.95-.3-.22-.64-.37-1-.43-.37-.07-.75-.06-1.15.02-.4.08-.79.22-1.18.41l-3.29,1.62c-.42.21-.79.44-1.1.71-.31.26-.55.55-.72.87-.17.32-.25.66-.24,1.04,0,.38.12.78.33,1.22Z"/>
            <path class="p-contact__mail-color" d="m157.48,57.63c1.82-.51,3.36-.45,4.62.18,1.26.63,2.12,1.76,2.58,3.37.46,1.62.31,3.02-.43,4.22-.74,1.2-2.02,2.05-3.84,2.57l-3.13.88c-1.87.53-3.42.47-4.66-.17-1.23-.64-2.08-1.77-2.54-3.38-.46-1.62-.33-3.02.39-4.21.72-1.19,2.01-2.05,3.88-2.58l3.13-.88Zm-4.99,6.99c.14.48.33.86.57,1.14s.53.48.87.6c.34.12.71.17,1.12.14.41-.03.85-.11,1.32-.24l3.45-.97c.44-.12.84-.29,1.2-.49.36-.2.65-.44.88-.72.22-.28.37-.6.45-.97.08-.37.05-.78-.08-1.23-.13-.45-.32-.82-.58-1.09s-.55-.47-.89-.59-.71-.17-1.13-.16-.84.09-1.28.21l-3.45.97c-.47.13-.88.29-1.25.48-.37.19-.66.42-.88.7-.22.28-.37.6-.43.97-.06.36-.03.79.11,1.27Z"/>
            <path class="p-contact__mail-color" d="m154.2,79.39l.04.37,13.15-1.22.25,2.74-14.51,1.35-.5-5.35,12.99-2.92-.03-.37-13.15,1.22-.25-2.74,14.51-1.35.5,5.35-12.99,2.92Z"/>
            <path class="p-contact__mail-color" d="m167.66,86.1l-.91,10.46-2.61-.23.34-3.86-11.91-1.04.24-2.74,11.91,1.04.34-3.86,2.61.23Z"/>
            <path class="p-contact__mail-color" d="m152.81,105.62l1.32-4.78-2.82-1.51.77-2.77,13.12,7.24-1.38,4.98-14.98-.53.77-2.77,3.2.15Zm3.69-3.52l-1,3.63,7.64.36.1-.36-6.73-3.63Z"/>
            <path class="p-contact__mail-color" d="m148,115.12c-.23.47-.35.9-.35,1.27,0,.38.07.71.23.99.16.29.39.54.67.76.29.22.6.41.94.57l.34.16-1.2,2.47-.34-.16c-1.56-.76-2.56-1.75-3.01-2.98-.44-1.23-.29-2.62.47-4.18.73-1.5,1.76-2.46,3.1-2.89,1.34-.43,2.88-.22,4.63.63l2.92,1.42c.84.41,1.53.89,2.09,1.44.56.55.96,1.15,1.21,1.79.25.65.35,1.33.3,2.05s-.25,1.45-.62,2.2c-.38.77-.82,1.41-1.34,1.9-.52.49-1.09.83-1.71,1.03-.62.2-1.28.26-1.98.17-.7-.08-1.42-.31-2.17-.67l-.34-.16,1.2-2.47.34.16c.31.15.64.27.99.34.35.08.69.09,1.02.04.33-.05.65-.19.96-.42s.56-.56.78-1.01c.2-.41.3-.81.29-1.18,0-.38-.1-.73-.27-1.06-.17-.33-.41-.63-.72-.9-.31-.27-.66-.5-1.05-.68l-3.29-1.6c-.42-.21-.84-.35-1.23-.44s-.77-.1-1.13-.04c-.35.06-.68.21-.97.44-.29.24-.54.57-.76,1.01Z"/>
            <path class="p-contact__mail-color" d="m154.41,129.24l-6.22,8.45-2.11-1.56,2.3-3.12-9.63-7.09,1.63-2.21,9.62,7.09,2.3-3.12,2.11,1.56Z"/>
            <path class="p-contact__mail-color" d="m133.41,138.34l3.65,4.33-4.33,3.65-3.65-4.33,4.33-3.65Z"/>
            <path class="p-contact__mail-color" d="m115.64,147.74c-.47.23-.83.5-1.06.79s-.37.6-.42.93c-.05.33-.02.66.07,1.01s.23.69.39,1.03l.17.33-2.46,1.23-.17-.34c-.77-1.55-.96-2.95-.57-4.2s1.37-2.25,2.92-3.03c1.49-.74,2.9-.88,4.22-.4,1.32.47,2.42,1.58,3.28,3.32l1.45,2.91c.41.83.67,1.64.78,2.41s.06,1.5-.13,2.16c-.2.66-.53,1.27-1.01,1.8s-1.09.99-1.83,1.37c-.77.38-1.51.61-2.22.69-.71.07-1.37,0-1.98-.22-.61-.22-1.17-.58-1.67-1.07-.5-.49-.94-1.11-1.31-1.86l-.17-.34,2.46-1.23.17.34c.15.31.35.6.58.88.23.27.49.49.79.65s.63.25,1.01.25c.38,0,.79-.1,1.23-.32.41-.2.73-.46.95-.76.22-.3.37-.64.43-1.01s.06-.75-.03-1.15c-.08-.4-.22-.79-.41-1.18l-1.63-3.28c-.21-.42-.45-.79-.71-1.1-.26-.31-.55-.55-.87-.72-.32-.17-.66-.25-1.04-.24-.38,0-.78.12-1.22.34Z"/>
            <path class="p-contact__mail-color" d="m110.65,157.36c.52,1.81.47,3.35-.16,4.62-.63,1.26-1.75,2.13-3.36,2.59-1.61.46-3.02.32-4.22-.42-1.2-.74-2.06-2.02-2.58-3.83l-.9-3.12c-.54-1.87-.49-3.42.15-4.66.64-1.24,1.76-2.09,3.38-2.55,1.62-.46,3.02-.34,4.21.38,1.19.71,2.06,2,2.59,3.87l.89,3.12Zm-7.01-4.97c-.48.14-.86.33-1.13.57-.28.25-.47.54-.59.88-.12.34-.16.71-.13,1.12.03.41.11.85.25,1.32l.99,3.44c.13.44.29.84.5,1.2s.45.65.73.88c.28.22.6.37.97.45s.78.05,1.23-.08c.45-.13.82-.32,1.09-.58s.47-.56.59-.89c.12-.34.17-.71.15-1.13-.02-.41-.09-.84-.22-1.28l-.99-3.44c-.13-.47-.3-.88-.49-1.25-.19-.36-.43-.66-.71-.88-.28-.22-.6-.37-.97-.43-.36-.06-.79-.02-1.27.11Z"/>
            <path class="p-contact__mail-color" d="m88.89,154.17l-.37.04,1.27,13.14-2.74.26-1.4-14.51,5.35-.52,2.97,12.98.37-.04-1.27-13.14,2.74-.26,1.4,14.51-5.35.52-2.97-12.98Z"/>
            <path class="p-contact__mail-color" d="m82.2,167.65l-10.46-.88.22-2.61,3.86.32,1-11.91,2.74.23-1,11.91,3.86.32-.22,2.62Z"/>
            <path class="p-contact__mail-color" d="m62.64,152.88l4.78,1.3,1.5-2.83,2.77.75-7.18,13.15-4.98-1.36.47-14.98,2.77.76-.14,3.2Zm3.53,3.68l-3.64-.99-.33,7.64.36.1,3.61-6.75Z"/>
            <path class="p-contact__mail-color" d="m53.12,148.1c-.47-.23-.9-.34-1.28-.35s-.71.08-.99.24c-.29.16-.54.39-.75.68-.22.29-.41.6-.57.94l-.16.34-2.48-1.19.16-.34c.75-1.56,1.74-2.57,2.97-3.02,1.23-.45,2.62-.3,4.18.46,1.5.72,2.47,1.75,2.9,3.09s.23,2.88-.61,4.63l-1.41,2.93c-.4.84-.88,1.54-1.43,2.1s-1.14.97-1.79,1.22c-.64.25-1.33.36-2.04.31-.72-.04-1.45-.25-2.2-.61-.78-.37-1.41-.82-1.9-1.33-.49-.51-.84-1.08-1.04-1.7-.2-.62-.26-1.28-.18-1.98.08-.7.31-1.42.67-2.17l.16-.34,2.48,1.19-.16.34c-.15.31-.26.64-.34.99-.08.35-.09.69-.03,1.02s.19.65.42.95c.23.3.56.56,1.01.78.41.2.81.29,1.18.28.38-.01.73-.1,1.06-.28.33-.17.63-.41.89-.73.27-.31.49-.66.68-1.05l1.59-3.3c.21-.43.35-.84.43-1.24.08-.4.1-.77.04-1.13-.06-.35-.21-.68-.45-.97-.24-.29-.57-.54-1.01-.75Z"/>
            <path class="p-contact__mail-color" d="m39.02,154.56l-8.48-6.19,1.55-2.12,3.13,2.29,7.05-9.65,2.22,1.62-7.05,9.65,3.13,2.29-1.55,2.12Z"/>
            <path class="p-contact__mail-color" d="m29.84,133.6l-4.32,3.67-3.67-4.32,4.32-3.67,3.66,4.32Z"/>
            <path class="p-contact__mail-color" d="m20.38,115.87c-.24-.47-.5-.82-.8-1.06-.29-.23-.61-.37-.93-.42-.33-.05-.66-.02-1.01.08-.35.1-.69.23-1.02.4l-.33.17-1.23-2.46.33-.17c1.55-.78,2.95-.97,4.19-.58,1.25.39,2.26,1.36,3.04,2.91.75,1.49.89,2.89.42,4.22-.47,1.32-1.57,2.42-3.31,3.29l-2.9,1.46c-.83.42-1.63.68-2.41.79-.78.11-1.5.07-2.16-.12-.66-.19-1.27-.53-1.81-1-.54-.47-1-1.08-1.37-1.83-.39-.77-.62-1.51-.69-2.22-.08-.71,0-1.37.21-1.98.22-.62.58-1.17,1.07-1.68.49-.5,1.11-.94,1.85-1.32l.33-.17,1.23,2.46-.33.17c-.31.16-.6.35-.87.58s-.49.5-.65.79c-.16.3-.24.64-.25,1.01,0,.38.1.79.33,1.23.21.41.46.72.77.94.31.22.64.36,1.01.43.37.06.75.05,1.15-.03.4-.08.79-.22,1.18-.42l3.27-1.65c.42-.21.79-.45,1.1-.71.31-.26.55-.56.72-.87.17-.32.25-.66.24-1.04,0-.38-.12-.78-.34-1.21Z"/>
            <path class="p-contact__mail-color" d="m10.73,110.89c-1.81.53-3.35.48-4.62-.14-1.26-.62-2.13-1.74-2.6-3.35-.47-1.61-.33-3.02.4-4.22s2.01-2.07,3.82-2.59l3.12-.91c1.87-.54,3.42-.5,4.66.13,1.24.63,2.09,1.75,2.56,3.37.47,1.61.35,3.02-.36,4.21-.71,1.2-2,2.06-3.86,2.61l-3.12.91Zm4.94-7.03c-.14-.48-.33-.86-.58-1.13s-.54-.47-.88-.59-.71-.16-1.12-.13c-.41.03-.85.12-1.31.25l-3.44,1c-.44.13-.84.29-1.2.5-.36.21-.65.45-.87.73-.22.28-.37.61-.44.97s-.04.78.09,1.23c.13.45.33.82.59,1.09.26.27.56.47.9.59.34.12.71.17,1.13.15.41-.02.84-.09,1.28-.22l3.44-1c.47-.13.88-.3,1.25-.49.36-.19.66-.43.88-.71.22-.28.36-.6.42-.97s.02-.79-.12-1.27Z"/>
            <path class="p-contact__mail-color" d="m13.85,89.13l-.04-.37-13.14,1.32-.27-2.74,14.5-1.46.54,5.35-12.97,3.02.04.37,13.14-1.32.27,2.74-14.5,1.46-.54-5.35,12.97-3.02Z"/>
            <path class="p-contact__mail-color" d="m.34,82.48l.84-10.46,2.62.21-.31,3.86,11.92.95-.22,2.74-11.92-.95-.31,3.86-2.62-.21Z"/>
            <path class="p-contact__mail-color" d="m15.04,62.89l-1.28,4.79,2.83,1.49-.74,2.78-13.18-7.13,1.34-4.99,14.98.42-.74,2.78-3.2-.12Zm-3.67,3.54l.98-3.64-7.64-.3-.1.36,6.76,3.58Z"/>
            <path class="p-contact__mail-color" d="m19.78,53.35c.23-.48.34-.9.34-1.28s-.08-.71-.24-.99c-.16-.29-.39-.54-.68-.75-.29-.21-.6-.4-.94-.56l-.34-.16,1.18-2.48.34.16c1.57.75,2.58,1.73,3.03,2.96.45,1.22.31,2.62-.44,4.19-.72,1.5-1.74,2.48-3.08,2.92-1.33.44-2.88.24-4.63-.59l-2.93-1.4c-.84-.4-1.54-.87-2.1-1.42-.56-.55-.97-1.14-1.23-1.78-.25-.64-.36-1.33-.32-2.04.04-.72.24-1.45.6-2.21.37-.78.81-1.41,1.32-1.91s1.08-.84,1.7-1.05c.62-.2,1.28-.27,1.98-.19.7.08,1.43.3,2.18.66l.34.16-1.18,2.48-.34-.16c-.31-.15-.64-.26-.99-.34-.35-.07-.69-.08-1.02-.03s-.65.2-.95.42c-.3.23-.56.57-.77,1.02-.2.41-.29.81-.28,1.18.01.38.11.73.28,1.06.17.33.42.63.73.89.31.26.66.49,1.05.67l3.31,1.58c.43.2.84.35,1.24.43.4.08.77.09,1.13.03.35-.06.67-.21.97-.45s.54-.58.75-1.02Z"/>
            <path class="p-contact__mail-color" d="m13.27,39.28l6.16-8.5,2.12,1.54-2.27,3.14,9.68,7.01-1.61,2.23-9.68-7.01-2.27,3.14-2.12-1.54Z"/>
            <path class="p-contact__mail-color" d="m34.22,30l-3.68-4.31,4.31-3.68,3.68,4.31-4.31,3.68Z"/>
            <animateTransform  accumulate="none" additive="replace" attributeName="transform" attributeType="XML" calcMode="linear" dur="20s" fill="remove" from="0 83.5 83.5" repeatCount="indefinite" restart="always" to="360 83.5 83.5" type="rotate">
            </animateTransform>
            </g>
            <g>
                <polygon class="p-contact__mail-color" points="50.4 60.67 50.4 62.33 54.6 62.33 54.6 64 58.8 64 58.8 65.67 63 65.67 63 67.33 67.2 67.33 67.2 69 71.4 69 71.4 70.67 75.6 70.67 75.6 72.33 79.8 72.33 79.8 77.33 84 77.33 88.2 77.33 88.2 72.33 92.4 72.33 92.4 70.67 96.6 70.67 96.6 69 100.8 69 100.8 67.33 105 67.33 105 65.67 109.2 65.67 109.2 64 113.4 64 113.4 62.33 117.6 62.33 117.6 60.67 121.8 60.67 121.8 59 46.2 59 46.2 60.67 50.4 60.67"/>
                <polygon class="p-contact__mail-color" points="46.2 100.67 50.4 100.67 50.4 97.33 54.6 97.33 54.6 94 58.8 94 58.8 90.67 63 90.67 63 87.33 67.2 87.33 67.2 84 71.4 84 71.4 80.67 75.6 80.67 75.6 77.33 75.6 75.67 71.4 75.67 71.4 74 67.2 74 67.2 72.33 63 72.33 63 70.67 58.8 70.67 58.8 69 54.6 69 54.6 67.33 50.4 67.33 50.4 65.67 46.2 65.67 46.2 64 42 64 42 104 46.2 104 46.2 100.67"/>
                <polygon class="p-contact__mail-color" points="117.6 105.67 117.6 102.33 113.4 102.33 113.4 99 109.2 99 109.2 95.67 105 95.67 105 92.33 100.8 92.33 100.8 89 96.6 89 96.6 85.67 92.4 85.67 92.4 82.33 88.2 82.33 88.2 85.67 84 85.67 79.8 85.67 79.8 82.33 75.6 82.33 75.6 85.67 71.4 85.67 71.4 89 67.2 89 67.2 92.33 63 92.33 63 95.67 58.8 95.67 58.8 99 54.6 99 54.6 102.33 50.4 102.33 50.4 105.67 46.2 105.67 46.2 109 121.8 109 121.8 105.67 117.6 105.67"/>
                <polygon class="p-contact__mail-color" points="121.8 65.67 117.6 65.67 117.6 67.33 113.4 67.33 113.4 69 109.2 69 109.2 70.67 105 70.67 105 72.33 100.8 72.33 100.8 74 96.6 74 96.6 75.67 92.4 75.67 92.4 77.33 92.4 80.67 96.6 80.67 96.6 84 100.8 84 100.8 87.33 105 87.33 105 90.67 109.2 90.67 109.2 94 113.4 94 113.4 97.33 117.6 97.33 117.6 100.67 121.8 100.67 121.8 104 126 104 126 64 121.8 64 121.8 65.67"/>
            </g>
        </symbol>
        <!--▲ contact ****************************************▲-->

        <!--▼ robot ****************************************▼-->
        <symbol id="robot" viewBox="0 0 170 350">
            <polygon class="p-contact__robot-gray" points="70 330 70 310 70 290 50 290 50 310 50 350 70 350 110 350 110 330 70 330">
            <animateTransform values="60 60 290;0 60 290;60 60 290;"  accumulate="none" additive="replace" attributeName="transform" calcMode="linear" dur="5s" fill="remove" repeatCount="indefinite" restart="always" type="rotate">
            </animateTransform>
            </polygon>
            <rect class="p-contact__robot-body" x="0" y="60" width="120" height="130"/>
            <rect class="p-contact__robot-body" x="40" y="60" width="40" height="40"/>
            <rect class="p-contact__robot-body" x="80" y="60" width="40" height="40"/>
            <rect class="p-contact__robot-body" x="0" y="100" width="40" height="40"/>
            <rect class="p-contact__robot-body" x="40" y="100" width="40" height="40"/>
            <rect class="p-contact__robot-body" x="80" y="100" width="40" height="40"/>
            <rect class="p-contact__robot-eye" x="80" y="90" width="40" height="40"/>
            <rect class="p-contact__robot-body" x="0" y="140" width="40" height="40"/>
            <rect class="p-contact__robot-body" x="40" y="140" width="40" height="40"/>
            <rect class="p-contact__robot-body" x="80" y="140" width="40" height="40"/>
            <rect class="p-contact__robot-body" x="0" y="190" width="120" height="120"/>
            <rect class="p-contact__robot-body" x="40" y="190" width="40" height="40"/>
            <rect class="p-contact__robot-body" x="80" y="190" width="40" height="40"/>
            <rect class="p-contact__robot-body" x="0" y="230" width="40" height="40"/>
            <rect class="p-contact__robot-body" x="40" y="230" width="40" height="40"/>
            <rect class="p-contact__robot-body" x="80" y="230" width="40" height="40"/>
            <rect class="p-contact__robot-body" x="0" y="270" width="40" height="40"/>
            <rect class="p-contact__robot-body" x="40" y="270" width="40" height="40"/>
            <rect class="p-contact__robot-red" x="50" y="20" width="20" height="20">
            <animate
            attributeName="y"
            dur="1"
            repeatCount="indefinite"
            values="20;10"
            />
            </rect>
            <rect class="p-contact__robot-gray" x="50" y="40" width="20" height="20"/>
            <rect class="p-contact__robot-body" x="80" y="270" width="40" height="40"/>
            <rect class="p-contact__robot-neck" x="0" y="180" width="120" height="10"/>
            <rect class="p-contact__robot-gray" x="50" y="190" width="20" height="60"/>
            <rect class="p-contact__robot-red" x="130" y="200" width="20" height="40"/>
            <rect class="p-contact__robot-red" x="130" y="200" width="40" height="10"/>
            <rect class="p-contact__robot-red" x="130" y="230" width="40" height="10"/>
            <rect class="p-contact__robot-gray" x="50" y="210" width="80" height="20"/>
            <rect class="p-contact__robot-red" x="80" y="143" width="40" height="10"/>
            <polygon class="p-contact__robot-gray" points="70 330 70 310 70 290 50 290 50 310 50 350 70 350 110 350 110 330 70 330">
            <animateTransform values="0 60 290;60 60 290;0 60 290;"  accumulate="none" additive="replace" attributeName="transform" calcMode="linear" dur="5s" fill="remove" repeatCount="indefinite" restart="always" type="rotate">
            </animateTransform>
            </polygon>
        </symbol>
        <!--▲ robot ****************************************▲-->

        <!--▼ planet ****************************************▼-->
        <symbol id="planet" viewBox="0 0 170 350">
            <rect class="p-page-about__cls-1" x="96" y="160" width="32" height="32"/>
            <rect class="p-page-about__cls-1" x="128" y="160" width="32" height="32"/>
            <rect class="p-page-about__cls-1" x="160" y="160" width="32" height="32"/>
            <rect class="p-page-about__cls-1" x="192" y="160" width="32" height="32"/>
            <polygon class="p-page-about__cls-4" points="224 32 224 0 192 0 160 0 128 0 96 0 96 32 64 32 64 64 64 96 64 128 64 160 96 160 96 192 128 192 160 192 192 192 224 192 224 160 256 160 256 128 256 96 256 64 256 32 224 32"/>
            <polygon class="p-page-about__cls-2" points="288 80 256 80 224 80 192 80 160 80 128 80 96 80 64 80 32 80 0 80 0 112 32 112 64 112 96 112 128 112 160 112 192 112 224 112 256 112 288 112 320 112 320 80 288 80"/>
            <rect class="p-page-about__cls-3" y="80" width="32" height="32">
            <animate
            attributeName="x"
            dur="5"
            repeatCount="indefinite"
            values="0;32;64;96;128;160;192;224;256;288;"
            />
            </rect>
        </symbol>
        <!--▲ planet ****************************************▲-->
    </defs>
</svg>