<?xml version="1.0" encoding="UTF-8"?>
<svg id="_レイヤー_2" data-name="レイヤー 2" xmlns="http://www.w3.org/2000/svg" viewBox="0 0 84 50">
  <defs>
    <style>
      .cls-1 {
        fill: #fff;
        stroke-width: 0px;
      }
    </style>
  </defs>
  <g id="_レイヤー_1-2" data-name="レイヤー 1">
    <g>
      <polygon class="cls-1" points="8.4 1.67 8.4 3.33 12.6 3.33 12.6 5 16.8 5 16.8 6.67 21 6.67 21 8.33 25.2 8.33 25.2 10 29.4 10 29.4 11.67 33.6 11.67 33.6 13.33 37.8 13.33 37.8 18.33 42 18.33 46.2 18.33 46.2 13.33 50.4 13.33 50.4 11.67 54.6 11.67 54.6 10 58.8 10 58.8 8.33 63 8.33 63 6.67 67.2 6.67 67.2 5 71.4 5 71.4 3.33 75.6 3.33 75.6 1.67 79.8 1.67 79.8 0 4.2 0 4.2 1.67 8.4 1.67"/>
      <polygon class="cls-1" points="4.2 41.67 8.4 41.67 8.4 38.33 12.6 38.33 12.6 35 16.8 35 16.8 31.67 21 31.67 21 28.33 25.2 28.33 25.2 25 29.4 25 29.4 21.67 33.6 21.67 33.6 18.33 33.6 16.67 29.4 16.67 29.4 15 25.2 15 25.2 13.33 21 13.33 21 11.67 16.8 11.67 16.8 10 12.6 10 12.6 8.33 8.4 8.33 8.4 6.67 4.2 6.67 4.2 5 0 5 0 45 4.2 45 4.2 41.67"/>
      <polygon class="cls-1" points="75.6 46.67 75.6 43.33 71.4 43.33 71.4 40 67.2 40 67.2 36.67 63 36.67 63 33.33 58.8 33.33 58.8 30 54.6 30 54.6 26.67 50.4 26.67 50.4 23.33 46.2 23.33 46.2 26.67 42 26.67 37.8 26.67 37.8 23.33 33.6 23.33 33.6 26.67 29.4 26.67 29.4 30 25.2 30 25.2 33.33 21 33.33 21 36.67 16.8 36.67 16.8 40 12.6 40 12.6 43.33 8.4 43.33 8.4 46.67 4.2 46.67 4.2 50 79.8 50 79.8 46.67 75.6 46.67"/>
      <polygon class="cls-1" points="79.8 6.67 75.6 6.67 75.6 8.33 71.4 8.33 71.4 10 67.2 10 67.2 11.67 63 11.67 63 13.33 58.8 13.33 58.8 15 54.6 15 54.6 16.67 50.4 16.67 50.4 18.33 50.4 21.67 54.6 21.67 54.6 25 58.8 25 58.8 28.33 63 28.33 63 31.67 67.2 31.67 67.2 35 71.4 35 71.4 38.33 75.6 38.33 75.6 41.67 79.8 41.67 79.8 45 84 45 84 5 79.8 5 79.8 6.67"/>
    </g>
  </g>
</svg>