<svg display="none">
  <defs>
    <symbol id="logo" viewBox="0 0 13502 210">
    <g id="text">
    <path d="m251.57,51.7h105.84v26.46h-39.06v120.54h-27.72v-120.54h-39.06v-26.46Z"/>
    <path d="m452.17,167.2h-49.98l-7.14,31.5h-28.98l35.07-147h52.08l35.07,147h-28.98l-7.14-31.5Zm-44.1-26.46h38.01l-17.01-75.18h-3.78l-17.22,75.18Z"/>
    <path d="m513.99,51.7h98.28v26.46h-35.28v94.08h35.28v26.46h-98.28v-26.46h35.28v-94.08h-35.28v-26.46Z"/>
    <path d="m671.55,198.7h-27.72V51.7h27.72v60.27h6.09l38.85-60.27h31.29v1.26l-45.36,70.35v3.78l47.88,70.35v1.26h-32.55l-40.11-60.27h-6.09v60.27Z"/>
    <path d="m777.35,51.7h98.28v26.46h-35.28v94.08h35.28v26.46h-98.28v-26.46h35.28v-94.08h-35.28v-26.46Z"/>
    <path d="m1049.72,167.2h-49.98l-7.14,31.5h-28.98l35.07-147h52.08l35.07,147h-28.98l-7.14-31.5Zm-44.1-26.46h38.01l-17.01-75.18h-3.78l-17.22,75.18Z"/>
    <path d="m1109.09,172.24h13.86v-94.08h-13.86v-26.46h64.47c7,0,13.19.98,18.58,2.94,5.39,1.96,9.94,4.62,13.65,7.98,3.71,3.36,6.51,7.39,8.4,12.08,1.89,4.69,2.83,9.76,2.83,15.22v2.52c0,8.4-2.35,15.12-7.03,20.16-4.69,5.04-10.61,8.54-17.75,10.5v3.78c7.14,1.96,13.05,5.5,17.75,10.61,4.69,5.11,7.03,11.87,7.03,20.26v2.52c0,5.46-.94,10.54-2.83,15.22-1.89,4.69-4.69,8.75-8.4,12.18-3.71,3.43-8.26,6.13-13.65,8.08-5.39,1.96-11.59,2.94-18.58,2.94h-64.47v-26.46Zm41.58-60.48h20.16c5.88,0,10.64-1.22,14.28-3.67,3.64-2.45,5.46-6.62,5.46-12.5v-1.26c0-5.88-1.82-10.04-5.46-12.5-3.64-2.45-8.4-3.67-14.28-3.67h-20.16v33.6Zm0,60.48h20.16c5.88,0,10.64-1.26,14.28-3.78,3.64-2.52,5.46-6.72,5.46-12.6v-1.26c0-5.88-1.82-10.08-5.46-12.6-3.64-2.52-8.4-3.78-14.28-3.78h-20.16v34.02Z"/>
    <path d="m1248.17,51.7h92.82v26.46h-65.1v33.6h62.58v26.46h-62.58v34.02h67.62v26.46h-95.34V51.7Z"/>
    <path d="m9.92,41V10.5h136.7v30.5h-45.57v152.5h-45.57V41H9.92Z"/>
    <path d="m56.22,193.5V41h45.57v61h45.57v-61h45.57v152.5h-45.57v-61h-45.57v61h-45.57ZM101.79,41V10.5h45.57v30.5h-45.57Z"/>
    </g>
    <g id="mark">
        <rect x="9.99" y="10.5" width="183" height="183"/>
    </g>
  </symbol>
  </defs>
</svg>