<?xml version="1.0" encoding="UTF-8"?>
<svg id="_レイヤー_1" data-name="レイヤー 1" xmlns="http://www.w3.org/2000/svg" viewBox="0 0 1258.68 350.88">
  <defs>
    <style>
      .cls-1,.cls-2 {
        stroke-width: 0px;
        fill:#fff;
      }
      .cls-2 {
        fill: #0058b3;
      }
    </style>
  </defs>
  <path class="cls-1" d="m120.12,149.94h-48.3l-6.72-111.72v-20.16h-5.04v20.16l-6.72,111.72H5.04L0,2.94h25.2l3.36,111.72v18.9h5.04v-18.9L40.32,2.94h44.52l6.72,111.72v18.9h5.04v-18.9l3.36-111.72h25.2l-5.04,147Z"/>
  <path class="cls-1" d="m153.07,2.94h92.82v26.46h-65.1v33.6h62.58v26.46h-62.58v34.02h67.62v26.46h-95.34V2.94Z">
      <animate
      attributeName="visibility"
      dur="8"
      begin="0s"
      repeatCount="indefinite"
      values="visible;hidden"
      />
  </path>
  <path visibility="hidden" class="cls-2" d="m160.56,153.17V1.67h75.75v25.25h-50.5v25.25h25.25v25.25h-25.25v50.5h50.5v25.25h-75.75Z">
        <animate
      attributeName="visibility"
      dur="8"
      begin="0s"
      repeatCount="indefinite"
      values="hidden;visible"
      />
  </path>
  <path class="cls-1" d="m279.87,2.94h98.28v26.46h-35.28v94.08h35.28v26.46h-98.28v-26.46h35.28V29.4h-35.28V2.94Z"/>
  <path class="cls-1" d="m459.25,127.68c5.32,0,9.69-.8,13.12-2.42,3.43-1.61,6.09-3.78,7.98-6.51,1.89-2.73,3.18-5.88,3.88-9.45.7-3.57,1.05-7.25,1.05-11.03v-3.78h27.72v3.78c0,17.5-4.59,30.98-13.75,40.43-9.17,9.45-22.51,14.17-40,14.17s-30.1-5.11-39.9-15.33c-9.8-10.22-14.7-25.13-14.7-44.73v-32.76c0-9.38,1.26-17.81,3.78-25.31,2.52-7.49,6.16-13.79,10.92-18.9,4.76-5.11,10.5-9.03,17.22-11.76s14.28-4.09,22.68-4.09,16.38,1.26,23.1,3.78c6.72,2.52,12.35,6.16,16.91,10.92,4.55,4.76,7.98,10.5,10.29,17.22s3.46,14.28,3.46,22.68v3.78h-27.72v-3.78c0-3.5-.42-7-1.26-10.5-.84-3.5-2.24-6.65-4.2-9.45-1.96-2.8-4.62-5.07-7.98-6.83-3.36-1.75-7.56-2.62-12.6-2.62-4.62,0-8.61.88-11.97,2.62-3.36,1.75-6.16,4.13-8.4,7.14-2.24,3.01-3.89,6.51-4.94,10.5-1.05,3.99-1.58,8.16-1.58,12.5v36.96c0,4.76.49,9.14,1.47,13.12.98,3.99,2.52,7.46,4.62,10.4s4.86,5.22,8.29,6.83c3.43,1.61,7.59,2.42,12.5,2.42Z">
    <animate
      attributeName="visibility"
      dur="8"
      begin="1s"
      repeatCount="indefinite"
      values="visible;hidden"
      />
  </path>
  <path visibility="hidden" class="cls-2" d="m424.56,126.92V25.92h25.25v101h-25.25Zm25.25-101V.67h50.5v25.25h-50.5Zm0,126.25v-25.25h50.5v25.25h-50.5Z;">
      <animate
      attributeName="visibility"
      dur="8"
      begin="1s"
      repeatCount="indefinite"
      values="hidden;visible"
      />
  </path>
  <path class="cls-1" d="m539.55,60.06c0-19.04,4.79-33.81,14.38-44.31,9.59-10.5,22.85-15.75,39.79-15.75s30.2,5.25,39.79,15.75c9.59,10.5,14.38,25.27,14.38,44.31v32.76c0,19.6-4.8,34.51-14.38,44.73-9.59,10.22-22.86,15.33-39.79,15.33s-30.21-5.11-39.79-15.33c-9.59-10.22-14.38-25.13-14.38-44.73v-32.76Zm54.18,67.62c5.04,0,9.24-.8,12.6-2.42,3.36-1.61,6.09-3.89,8.19-6.83,2.1-2.94,3.57-6.44,4.41-10.5.84-4.06,1.26-8.54,1.26-13.44v-36.12c0-4.62-.49-8.96-1.47-13.02-.98-4.06-2.52-7.56-4.62-10.5s-4.83-5.28-8.19-7.04c-3.36-1.75-7.42-2.62-12.18-2.62s-8.82.88-12.18,2.62c-3.36,1.75-6.09,4.1-8.19,7.04-2.1,2.94-3.64,6.44-4.62,10.5-.98,4.06-1.47,8.4-1.47,13.02v36.12c0,4.9.42,9.38,1.26,13.44.84,4.06,2.31,7.56,4.41,10.5,2.1,2.94,4.83,5.22,8.19,6.83,3.36,1.61,7.56,2.42,12.6,2.42Z"/>
  <path class="cls-1" d="m673.55,2.94h48.72l8.4,110.46v21.42h5.04v-21.42l8.4-110.46h48.72v147h-25.2V51.66l2.52-33.6h-5.04l-10.92,131.88h-41.58l-11.34-131.88h-5.04l2.52,33.6v98.28h-25.2V2.94Z"/>
  <path class="cls-1" d="m823.22,2.94h92.82v26.46h-65.1v33.6h62.58v26.46h-62.58v34.02h67.62v26.46h-95.34V2.94Z"/>
  <path class="cls-1" d="m1019.78,2.94h105.84v26.46h-39.06v120.54h-27.72V29.4h-39.06V2.94Z"/>
  <path class="cls-1" d="m1150.32,60.06c0-19.04,4.79-33.81,14.38-44.31,9.59-10.5,22.85-15.75,39.79-15.75s30.2,5.25,39.79,15.75c9.59,10.5,14.38,25.27,14.38,44.31v32.76c0,19.6-4.8,34.51-14.38,44.73-9.59,10.22-22.86,15.33-39.79,15.33s-30.21-5.11-39.79-15.33c-9.59-10.22-14.38-25.13-14.38-44.73v-32.76Zm54.18,67.62c5.04,0,9.24-.8,12.6-2.42,3.36-1.61,6.09-3.89,8.19-6.83,2.1-2.94,3.57-6.44,4.41-10.5.84-4.06,1.26-8.54,1.26-13.44v-36.12c0-4.62-.49-8.96-1.47-13.02-.98-4.06-2.52-7.56-4.62-10.5-2.1-2.94-4.83-5.28-8.19-7.04-3.36-1.75-7.42-2.62-12.18-2.62s-8.82.88-12.18,2.62c-3.36,1.75-6.09,4.1-8.19,7.04-2.1,2.94-3.64,6.44-4.62,10.5-.98,4.06-1.47,8.4-1.47,13.02v36.12c0,4.9.42,9.38,1.26,13.44.84,4.06,2.31,7.56,4.41,10.5,2.1,2.94,4.83,5.22,8.19,6.83,3.36,1.61,7.56,2.42,12.6,2.42Z">
      <animate
      attributeName="visibility"
      dur="8"
      begin="2s"
      repeatCount="indefinite"
      values="visible;hidden"
      />
  </path>
  <path visibility="hidden" class="cls-2" d="m1152.56,126.92V25.92h25.25v101h-25.25Zm25.25-101V.67h25.25v25.25h-25.25Zm0,126.25v-25.25h25.25v25.25h-25.25Zm25.25-25.25V25.92h25.25v101h-25.25Z">
      <animate
      attributeName="visibility"
      dur="8"
      begin="2s"
      repeatCount="indefinite"
      values="hidden;visible"
      />
  </path>
  <path class="cls-1" d="m71.47,200.94h48.72l8.4,110.46v21.42h5.04v-21.42l8.4-110.46h48.72v147h-25.2v-98.28l2.52-33.6h-5.04l-10.92,131.88h-41.58l-11.34-131.88h-5.04l2.52,33.6v98.28h-25.2v-147Z"/>
  <path class="cls-1" d="m259.78,296.28h-6.3l-42.21-95.34h30.24l30.24,70.14h3.78l30.24-70.14h30.24l-42.21,95.34h-6.3v51.66h-27.72v-51.66Z"/>
  <path class="cls-1" d="m501.28,245.88c0-5.88-2.28-10.99-6.83-15.33-4.55-4.34-10.96-6.51-19.21-6.51-7,0-12.53,1.44-16.59,4.3-4.06,2.87-6.09,6.76-6.09,11.66,0,2.52.49,4.8,1.47,6.82.98,2.03,2.69,3.85,5.15,5.46,2.45,1.61,5.67,3.04,9.66,4.3,3.99,1.26,9.06,2.45,15.23,3.57,15.4,2.8,27.16,7.49,35.28,14.07,8.12,6.58,12.18,16.31,12.18,29.19v2.52c0,6.86-1.23,13.06-3.68,18.58-2.45,5.53-5.98,10.26-10.6,14.17-4.62,3.92-10.22,6.93-16.8,9.03-6.58,2.1-14,3.15-22.26,3.15-9.66,0-18.17-1.36-25.51-4.09-7.35-2.73-13.48-6.51-18.38-11.34-4.9-4.83-8.61-10.5-11.13-17.01-2.52-6.51-3.78-13.61-3.78-21.31v-6.3h27.72v5.04c0,8.82,2.55,15.85,7.67,21.1,5.11,5.25,13.05,7.88,23.83,7.88,8.4,0,14.63-1.82,18.69-5.46,4.06-3.64,6.09-7.98,6.09-13.02,0-2.38-.42-4.65-1.26-6.82-.84-2.17-2.31-4.13-4.41-5.88-2.1-1.75-4.97-3.32-8.61-4.72-3.64-1.4-8.26-2.59-13.86-3.57-7.42-1.26-14.21-2.9-20.37-4.94-6.16-2.03-11.52-4.73-16.06-8.08-4.55-3.36-8.08-7.56-10.6-12.6s-3.78-11.2-3.78-18.48v-1.26c0-6.02,1.22-11.58,3.67-16.69,2.45-5.11,5.88-9.56,10.29-13.34,4.41-3.78,9.73-6.72,15.96-8.82,6.23-2.1,13.19-3.15,20.9-3.15,8.68,0,16.38,1.23,23.1,3.67,6.72,2.45,12.35,5.77,16.9,9.98,4.55,4.2,7.98,9.03,10.29,14.49s3.47,11.2,3.47,17.22v7.56h-27.72v-5.04Z">
      <animate
      attributeName="visibility"
      dur="8"
      begin="3s"
      repeatCount="indefinite"
      values="visible;hidden"
      />
  </path>
  <path visibility="hidden" class="cls-2" d="m435.56,252.17v-25.25h25.25v25.25h-25.25Zm0,101v-25.25h50.5v-50.5h-25.25v-25.25h25.25v25.25h25.25v50.5h-25.25v25.25h-50.5Zm25.25-126.25v-25.25h50.5v25.25h-50.5Z">
      <animate
      attributeName="visibility"
      dur="8"
      begin="3s"
      repeatCount="indefinite"
      values="hidden;visible"
      />
  </path>
  <path class="cls-1" d="m555.65,200.94h105.84v26.46h-39.06v120.54h-27.72v-120.54h-39.06v-26.46Z"/>
  <path class="cls-1" d="m795.01,200.94v96.18c0,16.8-4.45,29.96-13.34,39.48-8.89,9.52-22.09,14.28-39.58,14.28s-30.7-4.76-39.58-14.28c-8.89-9.52-13.33-22.68-13.33-39.48v-96.18h27.72v96.18c0,8.68,2.03,15.47,6.09,20.37,4.06,4.9,10.43,7.35,19.11,7.35s15.05-2.45,19.11-7.35c4.06-4.9,6.09-11.69,6.09-20.37v-96.18h27.72Z"/>
  <path class="cls-1" d="m821.93,200.94h53.34c18.2,0,31.71,4.24,40.53,12.71,8.82,8.47,13.23,21.6,13.23,39.38v42.84c0,17.78-4.41,30.91-13.23,39.38-8.82,8.47-22.33,12.71-40.53,12.71h-53.34v-26.67h13.86v-93.87h-13.86v-26.46Zm53.34,120.54c9.66,0,16.41-2.27,20.26-6.83,3.85-4.55,5.77-11.65,5.77-21.31v-40.32c0-8.4-1.93-14.77-5.77-19.11-3.85-4.34-10.6-6.51-20.26-6.51h-11.76v94.08h11.76Z">
      <animate
      attributeName="visibility"
      dur="8"
      begin="4s"
      repeatCount="indefinite"
      values="visible;hidden"
      />
  </path>
  <path visibility="hidden" class="cls-2" d="m845.56,350.17v-151.5h50.5v25.25h-25.25v101h25.25v25.25h-50.5Zm50.5-25.25v-101h25.25v101h-25.25Z">
      <animate
      attributeName="visibility"
      dur="8"
      begin="4s"
      repeatCount="indefinite"
      values="hidden;visible"
      />
  </path>
  <path class="cls-1" d="m957,200.94h98.28v26.46h-35.28v94.08h35.28v26.46h-98.28v-26.46h35.28v-94.08h-35.28v-26.46Z"/>
  <path class="cls-1" d="m1081.78,258.06c0-19.04,4.79-33.81,14.38-44.31,9.59-10.5,22.85-15.75,39.79-15.75s30.2,5.25,39.79,15.75c9.59,10.5,14.39,25.27,14.39,44.31v32.76c0,19.6-4.8,34.51-14.39,44.73-9.59,10.22-22.86,15.33-39.79,15.33s-30.21-5.11-39.79-15.33c-9.59-10.22-14.38-25.13-14.38-44.73v-32.76Zm54.18,67.62c5.04,0,9.24-.8,12.6-2.42,3.36-1.61,6.09-3.89,8.19-6.83,2.1-2.94,3.57-6.44,4.41-10.5.84-4.06,1.26-8.54,1.26-13.44v-36.12c0-4.62-.49-8.96-1.47-13.02-.98-4.06-2.52-7.56-4.62-10.5-2.1-2.94-4.83-5.28-8.19-7.04-3.36-1.75-7.42-2.62-12.18-2.62s-8.82.88-12.18,2.62c-3.36,1.75-6.09,4.1-8.19,7.04-2.1,2.94-3.64,6.44-4.62,10.5-.98,4.06-1.47,8.4-1.47,13.02v36.12c0,4.9.42,9.38,1.26,13.44.84,4.06,2.31,7.56,4.41,10.5,2.1,2.94,4.83,5.22,8.19,6.83,3.36,1.61,7.56,2.42,12.6,2.42Z">
      <animate
      attributeName="visibility"
      dur="8"
      begin="5s"
      repeatCount="indefinite"
      values="visible;hidden"
      />
  </path>
  <path visibility="hidden" class="cls-2" d="m1085.56,325.92v-101h25.25v101h-25.25Zm25.25-101v-25.25h25.25v25.25h-25.25Zm0,126.25v-25.25h25.25v25.25h-25.25Zm25.25-25.25v-101h25.25v101h-25.25Z">
      <animate
      attributeName="visibility"
      dur="8"
      begin="5s"
      repeatCount="indefinite"
      values="hidden;visible"
      />
  </path>
</svg>