<?xml version="1.0" encoding="UTF-8"?>
<svg id="_レイヤー_1" data-name="レイヤー 1" xmlns="http://www.w3.org/2000/svg" viewBox="0 0 166.31 166.81">
  <defs>
    <style>
      .cls-1 {
        fill: #020926;
        stroke-width: 0px;
      }
    </style>
  </defs>
  <g>
    <path class="cls-1" d="m41.48,11.19l2.42-1.2,8.08,10.15.32-.16-3.2-12.57,2.42-1.2,3.41,13.94-4.42,2.19-9.04-11.14Z"/>
    <path class="cls-1" d="m57.93,3.92l9.01-2.33.63,2.44-3.24.84,2.25,8.67,3.23-.84.63,2.44-9.01,2.33-.63-2.44,3.23-.84-2.25-8.67-3.23.84-.63-2.44Z"/>
    <path class="cls-1" d="m74.75.42l8.78-.42.12,2.52-6.16.29.15,3.2,5.92-.28.12,2.52-5.92.28.15,3.24,6.4-.31.12,2.52-9.02.43-.67-13.98Z"/>
    <path class="cls-1" d="m99.35,15.8l-4.52-.71,1.03-10.61.3-1.9-.47-.07-.3,1.9-2.29,10.41-4.52-.71,1.71-13.9,2.36.37-1.34,10.56-.28,1.78.47.07.28-1.78,2.29-10.41,4.17.66-1.03,10.61-.28,1.78.47.07.28-1.78,1.97-10.46,2.36.37-2.65,13.75Z"/>
    <path class="cls-1" d="m117.98,21.12c.44.25.84.38,1.2.41.36.03.68-.03.96-.17.28-.14.54-.34.76-.6.22-.26.43-.55.6-.87l.18-.31,2.29,1.29-.18.31c-.82,1.45-1.83,2.36-3.03,2.71-1.2.36-2.52.13-3.96-.69-1.39-.78-2.24-1.83-2.57-3.13-.33-1.3-.04-2.77.88-4.39l1.53-2.72c.44-.78.94-1.42,1.5-1.92.56-.5,1.15-.86,1.79-1.06.63-.2,1.29-.26,1.97-.17s1.37.33,2.06.72c.72.4,1.29.87,1.73,1.39.44.52.73,1.09.88,1.69.15.61.17,1.24.04,1.91-.12.66-.38,1.35-.78,2.04l-.18.31-2.29-1.29.18-.31c.16-.29.29-.6.39-.93.09-.33.13-.66.1-.98-.03-.32-.14-.64-.34-.94-.2-.3-.5-.57-.92-.8-.38-.22-.75-.33-1.11-.34-.36-.01-.7.06-1.03.2-.33.15-.62.36-.9.64-.27.28-.51.6-.72.96l-1.73,3.07c-.22.4-.39.78-.49,1.16s-.14.74-.11,1.08c.04.34.16.66.36.95s.51.55.92.78Z"/>
    <path class="cls-1" d="m132.16,30.4l-3.56-3.12-2.48,1.81-2.07-1.81,11.72-8.35,3.71,3.25-6.71,12.73-2.07-1.81,1.47-2.7Zm-1.49-4.65l2.71,2.37,3.5-6.45-.27-.24-5.94,4.32Z"/>
    <path class="cls-1" d="m147.21,37.43c.45-.34.7-.8.77-1.4.07-.59-.13-1.2-.61-1.82-.4-.53-.83-.86-1.28-1-.45-.14-.86-.07-1.23.21-.19.15-.34.31-.43.5-.1.19-.14.42-.12.7.02.28.09.6.23.98.13.37.33.83.6,1.35.67,1.32.99,2.48.95,3.47-.03.99-.54,1.86-1.52,2.6l-.19.15c-.52.4-1.06.66-1.62.79-.56.13-1.12.14-1.68.02-.56-.12-1.11-.37-1.65-.75-.54-.38-1.04-.88-1.51-1.5-.55-.73-.94-1.45-1.15-2.16-.21-.71-.28-1.39-.19-2.04.09-.65.3-1.25.65-1.82s.82-1.07,1.4-1.51l.48-.36,1.59,2.09-.38.29c-.67.51-1.06,1.11-1.16,1.79-.11.69.15,1.44.77,2.25.48.63.98,1,1.48,1.1.51.1.95,0,1.34-.29.18-.14.33-.3.45-.49.12-.19.18-.41.19-.67s-.03-.57-.13-.92-.28-.77-.52-1.25c-.33-.63-.59-1.24-.79-1.82s-.3-1.14-.31-1.68c0-.54.11-1.05.35-1.53.24-.48.63-.93,1.19-1.35l.1-.07c.46-.35.95-.57,1.48-.68.53-.11,1.06-.11,1.6,0,.54.11,1.07.35,1.58.7.52.35.99.81,1.44,1.4.5.65.85,1.31,1.04,1.95.2.65.27,1.26.21,1.85s-.23,1.12-.51,1.61c-.28.49-.65.91-1.11,1.25l-.57.44-1.59-2.09.38-.29Z"/>
    <path class="cls-1" d="m156.09,43.41l3.79,7.93-2.27,1.09-2.66-5.56-2.89,1.38,2.55,5.35-2.27,1.09-2.55-5.35-2.92,1.4,2.76,5.78-2.27,1.09-3.89-8.15,12.63-6.03Z"/>
    <path class="cls-1" d="m154.6,66.89l5.35-1.01,1.01,5.32-5.35,1.01-1.01-5.32Z"/>
    <path class="cls-1" d="m166.31,83.44l-.18,2.7-12.83,1.88-.02.36,12.47,3.56-.18,2.7-13.76-4.07.33-4.92,14.18-2.21Z"/>
    <path class="cls-1" d="m164.35,101.24l-2.48,8.97-2.43-.67.89-3.22-8.64-2.39-.89,3.22-2.43-.67,2.48-8.97,2.43.67-.89,3.22,8.64,2.39.89-3.22,2.43.67Z"/>
    <path class="cls-1" d="m158.98,117.58l-4.01,7.82-2.24-1.15,2.82-5.49-2.85-1.46-2.71,5.27-2.24-1.15,2.71-5.27-2.88-1.48-2.92,5.7-2.24-1.15,4.12-8.03,12.46,6.39Z"/>
    <path class="cls-1" d="m133.39,131.22l2.87-3.56,8.69,6.17,1.5,1.2.3-.37-1.5-1.2-7.89-7.17,2.87-3.56,11.21,8.41-1.5,1.86-8.49-6.42-1.4-1.13-.3.37,1.4,1.13,7.89,7.17-2.64,3.29-8.69-6.17-1.4-1.13-.3.37,1.4,1.13,8.09,6.92-1.5,1.86-10.61-9.15Z"/>
    <path class="cls-1" d="m119.53,144.8c-.43.26-.75.54-.95.84s-.31.61-.33.92c-.02.31.03.63.15.96.12.33.27.64.46.95l.19.31-2.25,1.35-.19-.31c-.86-1.43-1.15-2.75-.86-3.97s1.13-2.25,2.55-3.11c1.36-.82,2.7-1.05,3.99-.69,1.3.36,2.43,1.33,3.39,2.94l1.61,2.68c.46.77.77,1.52.93,2.25.16.73.18,1.43.04,2.08s-.41,1.25-.82,1.8-.96,1.03-1.64,1.44c-.7.42-1.39.7-2.06.82-.67.12-1.31.1-1.91-.07-.6-.17-1.16-.47-1.68-.91s-.98-1-1.39-1.68l-.19-.31,2.25-1.35.19.31c.17.29.38.55.62.8.24.25.51.43.8.57.3.13.62.19.98.17.36-.02.74-.15,1.15-.4.38-.23.66-.49.84-.8s.3-.64.33-.99c.03-.36,0-.72-.11-1.1-.11-.38-.27-.74-.48-1.1l-1.81-3.02c-.23-.39-.49-.72-.76-1-.28-.28-.57-.49-.88-.62-.31-.14-.65-.19-1.01-.15-.36.04-.73.17-1.13.41Z"/>
    <path class="cls-1" d="m104.45,152.54l4.47-1.55-.35-3.06,2.59-.9,1.45,14.32-4.66,1.62-7.73-12.14,2.59-.9,1.62,2.61Zm4.77,1.01l-3.4,1.18,3.87,6.24.34-.12-.81-7.3Z"/>
    <path class="cls-1" d="m90.87,162.1c.07.55.35,1.01.83,1.37.48.36,1.11.48,1.88.38.66-.08,1.16-.29,1.51-.61s.49-.71.43-1.17c-.03-.24-.1-.45-.22-.63-.12-.18-.3-.33-.55-.45-.25-.12-.57-.22-.96-.29-.39-.07-.88-.12-1.47-.15-1.48-.08-2.64-.38-3.48-.9-.84-.52-1.34-1.39-1.5-2.61l-.03-.24c-.08-.65-.04-1.25.12-1.8.16-.55.44-1.04.82-1.47s.88-.78,1.47-1.06,1.28-.47,2.05-.57c.91-.12,1.72-.09,2.45.08.72.17,1.34.45,1.86.85.52.4.94.89,1.25,1.47.32.58.52,1.24.61,1.97l.08.59-2.6.33-.06-.48c-.11-.83-.43-1.47-.98-1.9-.54-.43-1.32-.59-2.33-.46-.79.1-1.35.35-1.69.74-.34.39-.48.83-.41,1.3.03.22.1.43.2.63.1.19.27.36.49.5.22.14.51.25.87.34.36.09.81.15,1.35.17.71.03,1.37.1,1.97.22.6.12,1.14.31,1.61.57.47.26.85.62,1.15,1.06.3.45.49,1.01.58,1.7l.02.12c.07.57.03,1.11-.14,1.62-.17.51-.44.97-.81,1.38-.37.41-.83.75-1.39,1.03-.56.27-1.2.46-1.93.55-.82.1-1.55.08-2.21-.07s-1.23-.4-1.71-.74c-.48-.34-.86-.76-1.14-1.25-.28-.49-.46-1.02-.53-1.58l-.09-.71,2.6-.33.06.48Z"/>
    <path class="cls-1" d="m81.27,166.81l-8.77-.67.19-2.51,6.15.47.24-3.19-5.91-.45.19-2.51,5.91.45.25-3.23-6.39-.49.19-2.51,9,.69-1.07,13.96Z"/>
    <path class="cls-1" d="m61.66,153.81l-1.8,5.13-5.1-1.79,1.8-5.13,5.1,1.79Z"/>
    <path class="cls-1" d="m41.44,155.61l-2.24-1.52,4.87-12.02-.3-.2-9.38,8.96-2.24-1.52,10.47-9.81,4.08,2.77-5.27,13.35Z"/>
    <path class="cls-1" d="m27.06,144.89l-6.48-6.68,1.81-1.75,2.33,2.4,6.43-6.24-2.33-2.4,1.81-1.75,6.48,6.68-1.81,1.75-2.33-2.4-6.43,6.24,2.33,2.4-1.81,1.75Z"/>
    <path class="cls-1" d="m15.69,132l-4.72-7.42,2.13-1.35,3.31,5.2,2.7-1.72-3.18-5,2.13-1.35,3.18,5,2.73-1.74-3.44-5.4,2.13-1.35,4.85,7.62-11.81,7.52Z"/>
    <path class="cls-1" d="m16.85,103.04l1.62,4.28-9.72,4.37-1.79.68.17.45,1.79-.68,10.17-3.18,1.62,4.28-12.92,5.42-.85-2.23,9.83-4.08,1.68-.64-.17-.45-1.68.64-10.17,3.18-1.5-3.94,9.72-4.37,1.68-.64-.17-.45-1.68.64-10.06,3.48-.85-2.23,13.26-4.53Z"/>
    <path class="cls-1" d="m12.16,84.25c0-.5-.09-.92-.25-1.24-.16-.32-.37-.57-.63-.75s-.56-.29-.91-.35c-.34-.06-.69-.09-1.05-.08h-.36s-.04-2.62-.04-2.62h.36c1.67-.03,2.96.38,3.87,1.23.91.85,1.38,2.11,1.41,3.77.03,1.59-.44,2.86-1.4,3.8-.96.94-2.37,1.43-4.24,1.46l-3.12.05c-.89.01-1.7-.09-2.42-.32-.72-.23-1.32-.56-1.82-1-.49-.44-.88-.98-1.15-1.61-.27-.63-.41-1.35-.42-2.14-.01-.82.09-1.55.32-2.19.23-.64.57-1.18,1.01-1.62.45-.44.99-.77,1.62-1,.64-.23,1.35-.35,2.15-.36h.36s.04,2.62.04,2.62h-.36c-.33.01-.67.06-1,.14s-.63.22-.89.41c-.26.19-.48.45-.64.77-.16.32-.24.72-.23,1.2,0,.44.1.81.27,1.13.17.32.4.58.69.79s.63.36,1.01.45c.38.09.78.14,1.19.13l3.52-.06c.45,0,.87-.06,1.25-.16s.71-.25.98-.45c.28-.2.49-.47.64-.8s.22-.72.21-1.19Z"/>
    <path class="cls-1" d="m13.04,67.27l-.9,4.65,2.82,1.23-.52,2.7-13.12-5.91.93-4.84,14.38-.61-.52,2.7-3.07.1Zm-3.26,3.63l.68-3.54-7.34.23-.07.35,6.72,2.96Z"/>
    <path class="cls-1" d="m11.55,50.71c-.52-.22-1.05-.2-1.6.04-.55.24-.97.72-1.27,1.44-.26.61-.33,1.15-.23,1.61.1.46.37.78.8.96.22.09.44.13.65.12.21-.01.44-.09.67-.25.23-.15.47-.38.73-.69.26-.3.55-.7.87-1.2.81-1.24,1.65-2.1,2.52-2.57.87-.47,1.88-.47,3.01,0l.22.09c.6.25,1.1.59,1.5,1,.4.42.68.9.86,1.45.18.55.24,1.15.18,1.8-.06.65-.23,1.34-.53,2.06-.35.84-.78,1.54-1.29,2.08-.51.54-1.06.94-1.67,1.19-.6.25-1.24.37-1.9.35s-1.33-.17-2.01-.45l-.55-.23,1.01-2.42.44.18c.78.32,1.49.36,2.13.1.65-.25,1.17-.85,1.56-1.8.31-.73.37-1.35.2-1.83-.17-.49-.48-.82-.92-1.01-.21-.09-.42-.13-.65-.14-.22,0-.45.05-.68.17s-.47.31-.73.58c-.26.27-.53.63-.82,1.08-.38.6-.77,1.14-1.18,1.6s-.83.83-1.3,1.11c-.46.27-.96.43-1.49.47-.54.04-1.12-.08-1.76-.35l-.11-.05c-.53-.22-.97-.53-1.33-.93-.36-.4-.63-.86-.8-1.39-.17-.52-.24-1.1-.19-1.72.04-.62.2-1.27.48-1.94.32-.76.7-1.39,1.16-1.88.46-.5.96-.87,1.49-1.11.54-.24,1.08-.37,1.65-.37.56,0,1.11.11,1.64.33l.66.28-1.01,2.42-.44-.18Z"/>
    <path class="cls-1" d="m12.23,40.07l4.95-7.26,2.08,1.42-3.47,5.09,2.64,1.8,3.34-4.9,2.08,1.42-3.34,4.9,2.68,1.83,3.61-5.29,2.08,1.42-5.09,7.46-11.57-7.89Z"/>
    <path class="cls-1" d="m33.29,29.53l-3.57-4.1,4.08-3.55,3.57,4.1-4.08,3.55Z"/>

    <animateTransform  accumulate="none" additive="replace" attributeName="transform" attributeType="XML" calcMode="linear" dur="15s" fill="remove" from="0 83 83" repeatCount="indefinite" restart="always" to="360 83 83" type="rotate">
    </animateTransform>
  </g>
  <g id="_レイヤー_1-2" data-name=" レイヤー 1-2">
    <rect class="cls-1" x="69.89" y="54.51" width="11.02" height="11.02" transform="translate(-20.36 70.9) rotate(-45)"/>
    <rect class="cls-1" x="85.48" y="54.51" width="11.02" height="11.02" transform="translate(-15.79 81.92) rotate(-45)"/>
    <rect class="cls-1" x="101.07" y="54.51" width="11.02" height="11.02" transform="translate(-11.23 92.95) rotate(-45)"/>
    <rect class="cls-1" x="101.07" y="70.1" width="11.02" height="11.02" transform="translate(-22.25 97.52) rotate(-45)"/>
    <rect class="cls-1" x="101.07" y="85.7" width="11.02" height="11.02" transform="translate(-33.28 102.08) rotate(-45)"/>
    <rect class="cls-1" x="47.84" y="85.7" width="55.12" height="11.02" transform="translate(-42.41 80.03) rotate(-45)"/>
  </g>
</svg>