<?xml version="1.0" encoding="UTF-8"?>
<svg id="_レイヤー_1" data-name="レイヤー 1" xmlns="http://www.w3.org/2000/svg" viewBox="0 0 1060 760">
  <defs>
    <style>
      .cls-1, .cls-2, .cls-3, .cls-4, .cls-5 {
        stroke-width: 0px;
      }

      .owl_line{
        fill:#fff;
      }

      .cls-2 {
        fill: #5c380b;
      }

      .cls-3 {
        fill: #c9af79;
      }

      .cls-4 {
        fill: #848484;
      }

      .cls-5 {
        fill: #fff000;
      }
    </style>
  </defs>
  <g>
    <rect class="cls-5" x="160" y="720" width="40" height="40"/>
    <rect class="cls-5" x="220" y="710" width="40" height="50"/>
    <rect class="cls-5" x="280" y="720" width="40" height="40"/>
    <polygon class="cls-2" points="240 640 200 640 200 680 200 720 240 720 280 720 280 680 280 640 240 640"/>
  </g>
  <polygon class="cls-3" points="720 600 720 560 720 520 680 520 640 520 640 480 640 440 600 440 560 440 560 400 560 360 520 360 480 360 480 320 480 280 440 280 400 280 400 320 340 320 300 320 260 320 260 360 240 360 240 400 200 400 200 360 180 360 180 320 120 320 80 320 40 320 40 360 40 400 40 440 40 480 40 520 40 560 80 560 80 600 120 600 120 640 160 640 160 680 760 680 760 640 760 600 720 600"/>
  <polygon class="cls-5" points="240 280 200 280 160 280 160 320 180 320 180 360 200 360 200 400 240 400 240 360 260 360 260 320 280 320 280 280 240 280"/>
  <polygon class="cls-2" points="400 160 280 160 280 120 240 120 240 80 200 80 200 120 160 120 160 160 40 160 0 160 0 200 40 200 160 200 160 240 200 240 200 280 240 280 240 240 280 240 280 200 400 200 440 200 440 160 400 160"/>
  <g>
    <rect class="cls-4" x="240" y="240" width="40" height="40"/>
    <polygon class="cls-4" points="360 200 320 200 280 200 280 240 320 240 360 240 360 280 320 280 280 280 280 320 320 320 360 320 400 320 400 280 400 240 400 200 360 200"/>
  </g>
  <g>
    <rect class="cls-4" x="160" y="240" width="40" height="40"/>
    <polygon class="cls-4" points="80 280 80 240 120 240 160 240 160 200 120 200 80 200 40 200 40 240 40 280 40 320 80 320 120 320 160 320 160 280 120 280 80 280"/>
  </g>
  <g>
    <rect class="cls-5" x="80" y="240" width="80" height="40"/>
    <rect class="cls-1" x="100" y="240" width="40" height="40"/>
  </g>
  <g>
    <rect class="cls-5" x="280" y="240" width="80" height="40"/>
    <rect class="cls-1" x="300" y="240" width="40" height="40"/>
  </g>
  <polygon class="cls-2" points="680 520 680 480 640 480 640 440 600 440 600 400 560 400 560 360 520 360 480 360 480 320 440 320 400 320 400 560 440 560 480 560 480 600 520 600 560 600 560 640 600 640 640 640 640 680 680 680 720 680 720 640 720 600 720 560 720 520 680 520">
      <animate attributeName="points"
      dur="1s"
      keyTimes="0;0.5;1"
      values="680 520 680 480 640 480 640 440 600 440 600 400 560 400 560 360 520 360 480 360 480 320 440 320 400 320 400 560 440 560 480 560 480 600 520 600 560 600 560 640 600 640 640 640 640 680 680 680 720 680 720 640 720 600 720 560 720 520 680 520;
              680 160 680 200 640 200 640 240 600 240 600 280 560 280 560 320 520 320 480 320 480 360 440 360 400 360 400 120 440 120 480 120 480 80 520 80 560 80 560 40 600 40 640 40 640 0 680 0 720 0 720 40 720 80 720 120 720 160 680 160;
              680 520 680 480 640 480 640 440 600 440 600 400 560 400 560 360 520 360 480 360 480 320 440 320 400 320 400 560 440 560 480 560 480 600 520 600 560 600 560 640 600 640 640 640 640 680 680 680 720 680 720 640 720 600 720 560 720 520 680 520"
      repeatCount="indefinite" />
  </polygon>
  <rect class="cls-2" x="400" y="320" width="80" height="40"/>
  <rect class="owl_line" x="810" y="648" width="100" height="32">
                                <animate
                        attributeName="x"
                        values="810;910"
                        dur="1s"
                        repeatCount="indefinite"
                        />
						<animate
                        attributeName="width"
                        values="100;200"
                        dur="1s"
                        repeatCount="indefinite"
                        />
</rect>
  <rect class="owl_line" x="860" y="606" width="100" height="32">
                                <animate
                        attributeName="x"
                        values="860;960"
                        dur="1s"
                        repeatCount="indefinite"
                        />
						<animate
                        attributeName="width"
                        values="100;200"
                        dur="1s"
                        repeatCount="indefinite"
                        />
</rect>
  <rect class="owl_line" x="810" y="564" width="100" height="32">
                              <animate
                        attributeName="x"
                        values="810;910"
                        dur="1s"
                        repeatCount="indefinite"
                        />
						<animate
                        attributeName="width"
                        values="100;200"
                        dur="1s"
                        repeatCount="indefinite"
                        />
</rect>
</svg>