<?xml version="1.0" encoding="UTF-8"?>
<svg id="_レイヤー_2" data-name="レイヤー 2" xmlns="http://www.w3.org/2000/svg" viewBox="0 0 320 192">
  <defs>
    <style>
      .cls-1, .cls-2, .cls-3, .cls-4 {
        stroke-width: 0px;
      }

      .cls-2 {
        fill: #4395c8;
      }

      .cls-3 {
        fill: #e6c71e;
      }

      .cls-4 {
        fill: #003a84;
      }
    </style>
  </defs>
    <rect class="cls-1" x="96" y="160" width="32" height="32"/>
    <rect class="cls-1" x="128" y="160" width="32" height="32"/>
    <rect class="cls-1" x="160" y="160" width="32" height="32"/>
    <rect class="cls-1" x="192" y="160" width="32" height="32"/>
    <polygon class="cls-4" points="224 32 224 0 192 0 160 0 128 0 96 0 96 32 64 32 64 64 64 96 64 128 64 160 96 160 96 192 128 192 160 192 192 192 224 192 224 160 256 160 256 128 256 96 256 64 256 32 224 32"/>
    <polygon class="cls-2" points="288 80 256 80 224 80 192 80 160 80 128 80 96 80 64 80 32 80 0 80 0 112 32 112 64 112 96 112 128 112 160 112 192 112 224 112 256 112 288 112 320 112 320 80 288 80"/>
    <rect class="cls-3" y="80" width="32" height="32">
                <animate
            attributeName="x"
            dur="5"
            repeatCount="indefinite"
            values="0;32;64;96;128;160;192;224;256;288;"
            />
            </rect>
</svg>