<?xml version="1.0" encoding="utf-8"?>
<!-- Generator: Adobe Illustrator 28.2.0, SVG Export Plug-In . SVG Version: 6.00 Build 0)  -->
<svg version="1.1" id="レイヤー_1" xmlns="http://www.w3.org/2000/svg" xmlns:xlink="http://www.w3.org/1999/xlink" x="0px"
	 y="0px" viewBox="0 0 54 54" style="enable-background:new 0 0 54 54;" xml:space="preserve">
<style type="text/css">
	.st0{fill:#5A23E2;}
</style>
<polygon class="st0" points="48,24 48,21 42,21 42,18 36,18 36,12 33,12 33,6 30,6 30,0 24,0 24,6 21,6 21,12 18,12 18,18 12,18 
	12,21 6,21 6,24 0,24 0,30 6,30 6,33 12,33 12,36 18,36 18,42 21,42 21,48 24,48 24,54 30,54 30,48 33,48 33,42 36,42 36,36 42,36 
	42,33 48,33 48,30 54,30 54,24 "/>
</svg>
