<?xml version="1.0" encoding="UTF-8"?>
<svg xmlns="http://www.w3.org/2000/svg" viewBox="0 0 65 65">
  <defs>
    <style>
      .cls-1 {
        fill: #e6c71e;
        stroke-width: 0px;
      }
    </style>
  </defs>
    <polygon class="cls-1" points="48 24 48 21 42 21 42 18 36 18 36 12 33 12 33 6 30 6 30 0 24 0 24 6 21 6 21 12 18 12 18 18 12 18 12 21 6 21 6 24 0 24 0 30 6 30 6 33 12 33 12 36 18 36 18 42 21 42 21 48 24 48 24 54 30 54 30 48 33 48 33 42 36 42 36 36 42 36 42 33 48 33 48 30 54 30 54 24 48 24">
    <animateTransform
      attributeName="transform"
      attributeType="XML"
      type="scale"
      values="1;1.2;1"
      dur="3s"
      repeatCount="indefinite"/>
  </polygon>
</svg>