<?xml version="1.0" encoding="UTF-8"?>
<svg id="_レイヤー_2" data-name="レイヤー 2" xmlns="http://www.w3.org/2000/svg" viewBox="0 0 264.87 348.92">
  <defs>
    <style>
      .cls-1 {
        fill: #020926;
        stroke-width: 0px;
      }
    </style>
  </defs>
  <g id="_レイヤー_1-2" data-name="レイヤー 1">
    <g>
      <path class="cls-1" d="M14.21,128.03c.16.18.24.43.24.73v15.14c0,.3-.08.55-.25.73s-.4.28-.71.28-.57-.14-.79-.41l-9.96-13.32v12.72c0,.3-.08.55-.25.73s-.4.28-.68.28-.51-.09-.67-.28c-.16-.18-.24-.43-.24-.73v-15.14c0-.3.08-.55.25-.73s.4-.28.71-.28c.32,0,.59.14.82.41l9.94,13.32v-12.72c0-.3.08-.55.25-.73.17-.18.4-.28.68-.28s.51.09.67.28Z"/>
      <path class="cls-1" d="M27.92,133.13c.17.18.25.41.25.7v10.15c0,.27-.08.5-.25.67-.17.18-.4.26-.71.26-.29,0-.52-.08-.68-.25s-.25-.39-.25-.66v-1.2c-.37.7-.88,1.24-1.55,1.61s-1.41.55-2.24.55c-1.39,0-2.44-.39-3.14-1.16-.7-.78-1.06-1.92-1.06-3.44v-6.53c0-.29.09-.52.26-.7.18-.18.42-.26.72-.26s.54.09.71.26c.17.18.25.41.25.7v6.48c0,1.04.21,1.8.62,2.29.42.49,1.07.73,1.97.73,1.02,0,1.85-.33,2.47-1,.62-.66.94-1.54.94-2.63v-5.88c0-.29.09-.52.26-.7.18-.18.42-.26.72-.26s.54.09.71.26Z"/>
      <path class="cls-1" d="M41.88,137.45v6.5c0,.3-.08.54-.25.71s-.4.25-.71.25-.54-.08-.72-.25c-.18-.17-.26-.4-.26-.71v-6.38c0-1.09-.21-1.88-.64-2.38s-1.1-.74-2.03-.74c-1.07,0-1.93.33-2.57.98-.64.66-.96,1.54-.96,2.66v5.86c0,.3-.08.54-.25.71s-.4.25-.71.25-.54-.08-.72-.25c-.18-.17-.26-.4-.26-.71v-10.13c0-.29.09-.52.26-.7.18-.18.42-.26.72-.26.29,0,.52.09.68.26.17.18.25.4.25.67v1.22c.38-.72.92-1.27,1.61-1.64.69-.38,1.47-.56,2.35-.56,2.8,0,4.2,1.54,4.2,4.63Z"/>
      <path class="cls-1" d="M45.48,130.01c-.24-.22-.36-.52-.36-.89s.12-.64.36-.86c.24-.22.55-.34.94-.34s.7.11.94.34c.24.22.36.51.36.86s-.12.66-.36.89c-.24.22-.55.34-.94.34s-.7-.11-.94-.34ZM45.71,144.66c-.18-.17-.28-.4-.28-.71v-10.13c0-.3.09-.54.28-.71.18-.17.42-.25.71-.25s.52.08.7.25c.18.17.26.4.26.71v10.13c0,.32-.09.56-.26.72-.18.16-.41.24-.7.24s-.52-.08-.71-.25Z"/>
      <path class="cls-1" d="M57.24,144.15c0,.27-.1.48-.3.61-.2.14-.5.19-.9.16l-.65-.05c-1.28-.1-2.22-.48-2.83-1.15s-.91-1.69-.91-3.05v-6.02h-1.61c-.27,0-.48-.07-.64-.2-.15-.14-.23-.32-.23-.54,0-.24.08-.43.23-.58.15-.14.36-.22.64-.22h1.61v-2.71c0-.3.09-.54.26-.71.18-.17.42-.25.72-.25.29,0,.52.08.7.25.18.17.26.4.26.71v2.71h2.66c.26,0,.46.07.61.22.15.14.23.34.23.58,0,.22-.08.4-.23.54-.15.14-.36.2-.61.2h-2.66v6.12c0,.88.18,1.52.54,1.91.36.39.9.61,1.62.66l.65.05c.56.05.84.3.84.77Z"/>
      <path class="cls-1" d="M61.09,144.22c-.84-.5-1.49-1.2-1.94-2.12-.46-.92-.68-1.99-.68-3.2s.23-2.28.68-3.2c.46-.92,1.1-1.63,1.94-2.12.84-.5,1.81-.74,2.92-.74s2.08.25,2.93.74c.85.5,1.5,1.2,1.96,2.12.46.92.68,1.99.68,3.2s-.23,2.28-.68,3.2c-.46.92-1.11,1.63-1.96,2.12-.85.5-1.82.74-2.93.74s-2.08-.25-2.92-.74ZM66.66,142.22c.62-.76.92-1.87.92-3.32s-.31-2.52-.94-3.3c-.62-.78-1.5-1.16-2.64-1.16s-2.02.39-2.64,1.16c-.62.78-.94,1.88-.94,3.3s.31,2.54.92,3.31c.62.77,1.5,1.15,2.65,1.15s2.04-.38,2.65-1.14Z"/>
    </g>
    <g>
      <path class="cls-1" d="M18.45,330.85c-1.13.02-1.82.74-2.57,2.98l-4.63,13.73c-.22.62-.84.96-1.44.96-.53,0-1.1-.24-1.32-.79l-5.76-15.17c-.96-2.52-2.47-1.08-2.47-2.42,0-.34.19-.65.6-.65h4.58c.46,0,.7.36.7.72,0,1.1-1.54.22-1.54,1.3,0,.29.05.53.24,1.01l5.04,13.39h.36l4.44-13.44c.14-.43.26-.72.26-.96,0-.26-.1-.62-.94-.65-.38,0-.62-.34-.62-.65,0-.36.24-.72.67-.72h4.34c.48,0,.7.34.7.7,0,.31-.22.65-.65.67Z"/>
      <path class="cls-1" d="M26.85,348.28h-5.59c-.29,0-.48-.31-.48-.62,0-1.3,1.63-.14,1.63-1.9v-13.71c0-1.68-1.63-.62-1.63-1.85,0-.34.19-.7.6-.7h5.3c5.78,0,9.72,2.79,9.72,9.5,0,5.54-2.78,9.27-9.55,9.27ZM26.68,330.83h-1.27c-.86,0-1.1.55-1.1,1.15v13.83c0,.55.29,1.15,1.1,1.15h1.2c5.52,0,7.7-2.98,7.7-8.11,0-5.45-3.14-8.02-7.63-8.02Z"/>
      <path class="cls-1" d="M52.24,347.87c-.1.34-.22.41-.5.41h-12.46c-.41,0-.62-.34-.62-.67,0-1.18,1.61-.26,1.61-1.87v-13.75c0-1.75-1.58-.62-1.58-1.87,0-.31.14-.62.48-.62h4.08c.34,0,.48.34.48.65,0,1.25-1.51.14-1.51,1.85v13.85c0,.53.24,1.08.91,1.08h5.09c4.1,0,2.74-3.31,4.25-3.31.36,0,.7.22.7.62,0,.22-.91,3.65-.91,3.65Z"/>
      <path class="cls-1" d="M76.26,341.05l-1.2-.94c3.74-2.14,6.82-6.17,7.22-8.21l-17.4.1c-1.03,0-1.34-.53-1.34-1.15,0-.86.62-1.25,1.49-1.25.72,0,1.18.41,1.3,1.03l17.45-.1c.6,0,.91.31.91.77,0,2.33-4.27,7.32-8.42,9.75ZM64.31,348.92l-.74-1.15c7.1-1.78,9.1-7.08,9.1-10.8v-.84c-.46-.1-.96-.5-.96-1.01,0-.77.82-1.22,1.92-1.22.7,0,1.08.36,1.08,1.06v1.97c0,4.87-3,10.2-10.39,12Z"/>
      <path class="cls-1" d="M106.67,342.2c-.72,0-1.3-.53-1.3-1.18v-.19c-2.04-1.2-6.91-3.07-11.28-3.96v11.76h-2.02v-17.4c-.43-.14-.79-.58-.79-1.1s.38-1.2,1.46-1.2c.96,0,1.34.55,1.34,1.15v5.4c5.4,1.01,10.18,2.74,12.62,3.84.86.41,1.25.94,1.25,1.51,0,.48-.29,1.37-1.3,1.37ZM104.8,336.25c-1.61-1.54-3.05-4.1-3.05-5.16,0-.5.36-.79.82-.79.53,0,.89.41.89.96,0,.17-.05.34-.12.5.34,1.06,1.61,2.83,2.42,3.7l-.96.79ZM107.3,335.03c-1.46-1.3-2.93-3.89-2.93-4.94,0-.5.38-.77.84-.77.53,0,.86.38.86.94,0,.17-.05.34-.12.53.36,1.03,1.63,2.81,2.28,3.46l-.94.79Z"/>
      <path class="cls-1" d="M130.12,348.64c-.89,0-1.34-.77-1.34-1.34-1.63-.67-8.5-2.04-16.25-3.1l.43-1.54c8.11.96,14.11,2.14,17.09,2.95.94.26,1.39.94,1.39,1.58,0,.12-.02,1.44-1.32,1.44ZM130.62,334.28l-16.56-2.57c-.86-.14-1.2-.62-1.2-1.2s.31-1.34,1.27-1.34c.74,0,1.61.29,1.61,1.34l15.12,2.33-.24,1.44ZM128.82,340.38l-13.44-2.62c-.79-.14-1.15-.62-1.15-1.18s.36-1.3,1.25-1.3c.77,0,1.66.26,1.66,1.34l11.95,2.3-.26,1.44Z"/>
      <path class="cls-1" d="M136.93,339.68c-.94,0-1.34-.6-1.34-1.37,0-.86.5-1.32,1.46-1.32.72,0,1.2.34,1.32,1.06h18.29v1.63h-19.73Z"/>
      <path class="cls-1" d="M167.25,337.21c-2.52-3.14-4.08-4.82-4.8-5.42-.17.12-.41.19-.65.19h-.1c-.84,0-1.13-.67-1.13-1.1,0-.6.7-1.34,1.44-1.34,1.37,0,5.76,5.71,6.53,6.67l-1.3,1.01ZM163.43,348.16c-.24.07-.46.12-.67.12-1.3,0-1.73-1.1-1.73-1.58s.38-1.18,1.27-1.18c.36,0,.79.17,1.18.58,7.7-2.33,13.32-6.43,16.32-13.9l1.32.86c-2.93,7.42-8.64,12.24-17.69,15.1Z"/>
    </g>
    <g>
      <path class="cls-1" d="M58.47,207.55c-.15,4.95-.15,11.4-.15,19.95,6.6-1.5,13.8-2.4,21.45-2.4,3,0,5.85.15,8.7.45.15-.9.45-1.8.6-2.7-1.65-1.5-2.25-3-2.25-4.65,0-2.55,1.65-5.55,6.6-5.55,4.05,0,7.95,1.35,7.95,6.75,0,1.95-.75,5.55-1.5,8.1,22.65,5.55,36.3,20.4,36.3,38.4,0,22.5-17.1,36.3-47.1,43.2l-3.9-7.05c27.45-7.05,37.95-19.8,37.95-36,0-10.35-7.2-24.3-25.65-30-12.6,40.65-41.7,62.55-65.4,62.55-13.95,0-25.2-8.55-25.2-22.65,0-16.95,15.15-35.7,39.75-45v-23.4H9.12c-5.85,0-8.4-2.55-8.4-6.9,0-5.25,3.3-8.1,9.15-8.1,4.65,0,7.65,2.1,8.7,6.6h28.2c.3-7.65-.75-23.55,10.5-23.55,5.85,0,8.25,3.75,8.25,7.2s-2.1,5.85-5.7,6.45c-.6,2.4-.9,5.1-1.05,9.9h82.5v8.4H58.47ZM46.62,240.55c-17.1,8.55-26.85,22.95-26.85,34.95s7.05,14.4,12.45,14.4c4.65,0,9.6-1.35,14.55-3.6-.15-18.6-.15-33.6-.15-45.75ZM78.57,233.35c-7.35,0-14.1,1.05-20.25,2.7v43.05c11.85-9.75,22.65-25.35,28.2-45.3-2.55-.3-5.25-.45-7.95-.45Z"/>
      <path class="cls-1" d="M191.67,227.95c-.15,4.05-.15,9.15-.15,15.9,6-1.35,12.3-2.1,19.2-2.1,2.7,0,5.25.15,7.65.45.15-.75.45-1.5.6-2.4-1.5-1.05-2.1-2.4-2.1-3.45,0-2.25,1.8-4.5,6-4.5,2.4,0,6.6.45,6.6,4.95,0,1.65-.75,4.8-1.35,6.9,19.95,4.5,31.95,16.65,31.95,30.9,0,18-14.85,29.7-41.25,34.95l-3.45-6.6c24-5.7,33.3-15.15,33.3-28.2,0-8.4-6.3-19.2-22.8-23.55-11.4,32.25-36.6,50.25-57.6,50.25-12,0-21.9-7.2-21.9-18.6,0-13.35,13.35-28.5,34.8-36.15,0-7.8,0-13.95.15-18.75h-32.85c-5.1,0-7.35-2.1-7.35-6.15s2.85-6.75,7.95-6.75c4.05,0,6.9,1.8,7.65,5.55h24.75c.15-6.6-.15-18.9,9.15-18.9,5.25,0,7.35,3.15,7.35,5.85,0,2.55-1.8,4.65-4.95,5.1-.6,1.95-.9,4.05-1.2,7.95h73.05v7.35h-73.2ZM181.17,254.95c-14.85,6.6-23.4,17.85-23.4,27.3s6.15,11.4,11.1,11.4c3.9,0,8.1-.9,12.3-2.7v-36ZM209.52,249.1c-6.45,0-12.6.9-18,2.25v33.9c10.35-7.5,19.8-19.95,24.9-35.7-2.25-.3-4.5-.45-6.9-.45Z"/>
    </g>
    <g>
      <path class="cls-1" d="M100.35,102.15c0,1.5-.58,2.75-1.73,3.75-1.15,1-2.53,1.5-4.12,1.5-2.5,0-4.25-1.2-5.25-3.6l-10.65-24.3H22.05l-10.8,24.3c-1,2.4-2.75,3.6-5.25,3.6-1.6,0-3-.53-4.2-1.58-1.2-1.05-1.8-2.33-1.8-3.83,0-.8.2-1.6.6-2.4L43.5,4.2c.6-1.4,1.5-2.45,2.7-3.15,1.2-.7,2.5-1.05,3.9-1.05,1.5,0,2.85.38,4.05,1.12s2.1,1.78,2.7,3.08l42.9,95.4c.4.8.6,1.65.6,2.55ZM74.1,69.3L50.25,15.45l-23.7,53.85h47.55Z"/>
      <path class="cls-1" d="M173.25,60.6v40.8c0,1.8-.52,3.25-1.57,4.35-1.05,1.1-2.48,1.65-4.27,1.65s-3.25-.55-4.35-1.65c-1.1-1.1-1.65-2.55-1.65-4.35v-7.2c-1.9,4.3-4.8,7.63-8.7,9.98-3.9,2.35-8.4,3.52-13.5,3.52-4.7,0-9.03-.95-12.98-2.85-3.95-1.9-7.08-4.55-9.38-7.95-2.3-3.4-3.45-7.15-3.45-11.25,0-5.5,1.4-9.77,4.2-12.83,2.8-3.05,7.4-5.25,13.8-6.6,6.4-1.35,15.3-2.03,26.7-2.03h3.3v-4.95c0-6-1.23-10.4-3.68-13.2-2.45-2.8-6.43-4.2-11.92-4.2-6.8,0-13.7,1.85-20.7,5.55-2.7,1.7-4.6,2.55-5.7,2.55-1.2,0-2.2-.45-3-1.35-.8-.9-1.2-2.05-1.2-3.45s.42-2.62,1.27-3.67c.85-1.05,2.22-2.12,4.12-3.23,3.5-2,7.47-3.57,11.93-4.72,4.45-1.15,8.87-1.72,13.27-1.72,18.3,0,27.45,9.6,27.45,28.8ZM155.62,92.03c3.85-4.05,5.78-9.27,5.78-15.67v-4.35h-2.7c-8.8,0-15.5.38-20.1,1.12-4.6.75-7.88,2-9.82,3.75-1.95,1.75-2.93,4.33-2.93,7.73,0,3.9,1.43,7.12,4.27,9.67,2.85,2.55,6.42,3.83,10.73,3.83,6,0,10.92-2.03,14.77-6.08Z"/>
    </g>
  </g>
</svg>