<?xml version="1.0" encoding="UTF-8"?>
<svg id="_レイヤー_2" data-name="レイヤー 2" xmlns="http://www.w3.org/2000/svg" viewBox="0 0 409.63 370.4">
  <defs>
    <style>
      .cls-1 {
        fill: #020926;
        stroke-width: 0px;
      }
    </style>
  </defs>
  <g id="_レイヤー_1-2" data-name="レイヤー 1">
    <g>
      <path class="cls-1" d="M260.23,126.65l36-103.5h12l36,103.5h-13.65l-7.95-23.7h-40.8l-7.95,23.7h-13.65ZM285.88,91.25h32.7l-16.35-48.6-16.35,48.6Z"/>
      <path class="cls-1" d="M379.78,83.3h17.85v-8.7c0-10.65-4.95-13.05-16.65-13.05-9,0-13.8.75-18,7.65l-9-6.3c5.25-8.7,12.9-12.45,27.15-12.45,19.05,0,28.5,6.15,28.5,24.15v52.05h-12v-7.35c-4.2,6.9-9.3,8.55-19.05,8.55-17.4,0-26.85-8.55-26.85-23.1,0-16.2,11.55-21.45,28.05-21.45ZM397.63,93.5h-17.85c-11.85,0-16.05,4.05-16.05,11.55,0,8.4,6,11.7,14.85,11.7,11.1,0,19.05-2.1,19.05-18.9v-4.35Z"/>
    </g>
    <g>
      <path class="cls-1" d="M79.7,100.05c-16.35,14.7-33.15,25.35-50.4,25.35-16.05,0-28.05-10.8-28.05-32.7C1.25,38.25,59.6,0,110.3,0c25.05,0,37.65,11.7,37.65,24.3,0,4.35-1.35,7.2-3.15,7.2-.6,0-1.2-.75-1.2-2.25s.45-3.3.45-5.1c0-10.5-10.65-21-33.75-21C64.1,3.15,9.95,40.95,9.95,93.15c0,18.6,8.25,28.2,20.4,28.2,16.65,0,32.7-10.5,48.75-25.2-.15-.9-.15-1.95-.15-3,0-8.85,5.55-24.9,14.1-36.15,12.9-16.8,28.2-26.1,36.15-26.1,2.7,0,4.2,1.8,4.2,4.05,0,5.7-12.6,23.1-25.05,36.45-7.2,7.65-14.55,15.3-21.9,22.35v1.35c0,10.8,5.7,15,11.7,15,7.95,0,18-8.55,28.05-23.4.45-.75.9-1.05,1.5-1.05.9,0,1.5.75,1.5,1.5,0,.6-.3,1.35-.75,2.1-10.2,15.75-21.6,24.75-31.35,24.75-7.2,0-15-3.6-17.4-13.95ZM87.35,88.2c6-5.85,12-12.15,18-18.6,12.45-13.2,24.3-30.15,24.3-34.2,0-.9-.45-1.35-1.35-1.35-3.15,0-15,7.8-27.15,25.05-7.5,10.5-11.85,21.3-13.8,29.1Z"/>
      <path class="cls-1" d="M160.4,100.05c-7.35,8.85-15.75,15.6-23.4,15.6-9,0-13.95-6.45-13.95-16.05,0-18.15,20.85-39.15,39.45-39.15,8.4,0,12.45,3,16.05,6.75,3.45-4.05,6.6-6.75,8.55-6.75,1.35,0,1.8.9,1.8,2.4,0,5.25-10.95,19.5-19.8,29.1-2.1,4.35-2.7,7.8-2.7,11.1,0,5.25,2.55,7.35,6.15,7.35,7.8,0,17.7-8.55,27.9-23.7.45-.75,1.05-1.05,1.5-1.05.9,0,1.5.75,1.5,1.65,0,2.55-16.65,26.85-32.55,26.85-5.55,0-10.65-3.75-10.65-11.85,0-.75,0-1.35.15-2.25ZM138.65,111.9c7.5,0,16.35-9.45,24.3-19.8,2.7-6.45,7.2-14.1,11.7-20.1-1.5-4.5-5.1-8.85-12-8.85-15.15,0-32.1,21.45-32.1,36.75,0,8.1,2.55,12,8.1,12Z"/>
    </g>
    <g>
      <path class="cls-1" d="M259.92,167.79v-16.56h5.28c3.67,0,6,2.06,6,7.42v1.73c0,5.35-2.33,7.42-6,7.42h-5.28ZM269.14,160.37v-1.73c0-4.1-1.39-5.54-3.94-5.54h-3.22v12.82h3.22c2.54,0,3.94-1.44,3.94-5.54Z"/>
      <path class="cls-1" d="M276.74,167.79h-2.06v-16.56h2.06v16.56Z"/>
      <path class="cls-1" d="M292.3,151.23v16.56h-2.02l-7.15-12.53v12.53h-2.06v-16.56h1.97l7.2,12.65v-12.65h2.06Z"/>
      <path class="cls-1" d="M310.97,167.79h-9.72v-1.73l5.83-6.89c1.13-1.32,1.87-2.45,1.87-3.7,0-1.73-1.32-2.59-2.69-2.59-1.49,0-2.67.89-2.71,2.59h-2.04c0-2.74,2.16-4.44,4.75-4.44s4.75,1.71,4.75,4.54c0,1.97-1.44,3.55-2.5,4.82l-4.56,5.52h7.01v1.87Z"/>
      <path class="cls-1" d="M323.09,163.21c0,3.05-2.26,4.78-4.75,4.78s-4.75-1.73-4.75-4.8v-7.34c0-3.07,2.26-4.8,4.75-4.8s4.75,1.73,4.75,4.78v7.39ZM318.33,152.91c-1.51,0-2.71,1.13-2.71,2.9v7.39c0,1.78,1.2,2.9,2.71,2.9s2.69-1.13,2.69-2.9v-7.39c0-1.78-1.2-2.9-2.69-2.9Z"/>
      <path class="cls-1" d="M331.75,167.79h-2.06v-14.19l-2.38,1.7v-2.26l2.38-1.82h2.06v16.56Z"/>
      <path class="cls-1" d="M344.69,151.23l-5.47,12h4.78v-4.87h2.06v4.87h1.51v1.87h-1.51v2.69h-2.06v-2.69h-7.18v-1.51l5.83-12.36h2.04Z"/>
    </g>
    <g>
      <path class="cls-1" d="M6.38,173.07c-.19,0-.26-.29-.14-.65.7-1.94,1.58-3.98,2.74-6.12-.98.34-1.97.53-2.98.53-3.5,0-6-1.9-6-5.59,0-7.66,9.17-14.45,16.58-14.45,2.9,0,4.18,1.34,4.18,2.9,0,3.46-5.11,5.26-6.86,5.26-.29,0-.43-.1-.43-.22,0-.17.21-.22.62-.29,2.59-.6,5.98-2.11,5.98-4.7,0-1.32-1.13-2.33-3.48-2.33-6.55,0-15.05,6.55-15.05,13.9,0,3.12,1.8,4.92,4.63,4.92,1.1,0,2.16-.24,3.19-.65.6-1.1,1.27-2.23,2.02-3.38,3.38-5.28,5.23-6.14,6.26-6.14.53,0,.86.31.86.82,0,1.66-3.48,6.46-7.9,8.74-1.25,2.18-2.4,4.49-3.38,6.55-.36.72-.58.91-.84.91ZM11.14,164.67c3.91-2.38,6.67-6.77,6.67-7.56,0-.17-.07-.29-.24-.29-.43,0-1.37.65-3.53,3.46-.98,1.27-1.97,2.81-2.9,4.39Z"/>
      <path class="cls-1" d="M25.8,162.77c-1.18,1.42-2.52,2.5-3.74,2.5-1.44,0-2.23-1.03-2.23-2.57,0-2.9,3.34-6.26,6.31-6.26,1.34,0,1.99.48,2.57,1.08.55-.65,1.06-1.08,1.37-1.08.21,0,.29.14.29.38,0,.84-1.75,3.12-3.17,4.66-.34.7-.43,1.25-.43,1.78,0,.84.41,1.18.98,1.18,1.25,0,2.83-1.37,4.46-3.79.07-.12.17-.17.24-.17.14,0,.24.12.24.26,0,.41-2.66,4.3-5.21,4.3-.89,0-1.7-.6-1.7-1.9,0-.12,0-.22.02-.36ZM22.32,164.67c1.2,0,2.62-1.51,3.89-3.17.43-1.03,1.15-2.26,1.87-3.22-.24-.72-.82-1.42-1.92-1.42-2.42,0-5.14,3.43-5.14,5.88,0,1.3.41,1.92,1.29,1.92Z"/>
      <path class="cls-1" d="M38.54,165.03c-.89,0-1.66-.6-1.66-1.9v-.24c-1.01,1.25-2.23,2.11-3.41,2.11-1.06,0-1.97-.65-1.97-1.92,0-1.73,1.46-3.98,2.64-5.3.5-.55.77-.7,1.13-.7.26,0,.46.14.46.38,0,.19-.17.43-.38.7-1.63,1.87-2.76,3.58-2.76,4.97,0,.89.36,1.34,1.1,1.34.96,0,2.23-.98,3.38-2.47.38-1.25,1.25-2.64,2.11-3.77.67-.86,1.39-1.8,1.9-1.8.21,0,.36.12.36.38,0,.24-.17.65-.53,1.18-.6.94-1.61,2.3-2.79,3.82-.19.48-.29.84-.29,1.44,0,.84.36,1.18.96,1.18,1.27,0,2.83-1.37,4.46-3.79.07-.12.17-.17.24-.17.14,0,.24.12.24.26,0,.36-2.62,4.3-5.21,4.3Z"/>
      <path class="cls-1" d="M44.33,165.03c-.89,0-1.7-.6-1.7-1.9,0-2.35,2.93-6.5,4.54-8.81.05-.05.07-.12.12-.17-1.15,0-2.11,0-2.9.02-.48,0-.74-.07-.74-.26,0-.22.22-.31.67-.34.79-.05,1.97-.05,3.43-.05,1.42-1.92,2.57-3,3.05-3,.14,0,.22.1.22.24,0,.41-.62,1.51-1.44,2.81.94.02,1.95.05,3,.1.46.02.62.12.62.29,0,.14-.26.22-.67.22-1.2,0-2.3-.02-3.34-.02-.05.1-.12.17-.17.26-1.18,1.78-2.28,3.07-3.5,4.37-1.08,1.68-1.92,3.12-1.92,4.44,0,.86.41,1.18,1.03,1.18,1.25-.02,2.78-1.32,4.44-3.77.07-.12.17-.17.24-.17.14,0,.22.1.22.24,0,.48-2.64,4.32-5.19,4.32Z"/>
      <path class="cls-1" d="M52.54,165.03c-1.13,0-1.85-.6-1.85-1.75,0-1.7,1.68-3.14,1.68-4.44,0-.55-.5-.72-.98-.96-1.99,3.67-4.3,6.24-4.87,6.24-.17,0-.26-.07-.26-.19,0-.07.05-.17.17-.26,1.46-1.15,3.1-3.65,4.54-6.07-.29-.22-.48-.53-.48-1.08,0-.79.65-1.46,1.1-1.46.34,0,.53.26.53.67,0,.46-.19.96-.5,1.54.96.46,1.85.62,1.85,1.68,0,1.44-1.71,2.76-1.71,4.44,0,.7.38,1.01,1.03,1.01,1.22,0,2.86-1.32,4.49-3.74.07-.12.17-.17.24-.17.14,0,.24.12.24.26,0,.36-2.62,4.3-5.21,4.3Z"/>
      <path class="cls-1" d="M61.01,165.37c-2.57,0-4.06-1.3-4.06-3.14,0-2.78,3.24-5.78,6.48-5.78,1.37,0,2.09.67,2.09,1.68,0,1.85-2.4,3.7-5.35,3.7-.67,0-1.34-.1-1.9-.31-.05.26-.07.5-.07.77,0,1.46,1.08,2.52,2.95,2.52,2.66,0,4.34-1.54,6.12-4.15.07-.12.17-.17.24-.17.17,0,.24.12.24.24,0,.29-.86,1.34-1.54,2.09-1.13,1.3-2.81,2.57-5.21,2.57ZM58.39,161.05c.43.14.89.19,1.34.19,2.52,0,4.75-1.68,4.75-3.34,0-.7-.41-.98-1.18-.98-1.85,0-4.25,1.87-4.92,4.13Z"/>
      <path class="cls-1" d="M72.77,162.77c-1.18,1.42-2.52,2.5-3.74,2.5-1.44,0-2.23-1.03-2.23-2.57,0-2.9,3.34-6.26,6.31-6.26,1.34,0,1.99.48,2.57,1.08.55-.65,1.06-1.08,1.37-1.08.21,0,.29.14.29.38,0,.84-1.75,3.12-3.17,4.66-.34.7-.43,1.25-.43,1.78,0,.84.41,1.18.98,1.18,1.25,0,2.83-1.37,4.46-3.79.07-.12.17-.17.24-.17.14,0,.24.12.24.26,0,.41-2.66,4.3-5.21,4.3-.89,0-1.7-.6-1.7-1.9,0-.12,0-.22.02-.36ZM69.29,164.67c1.2,0,2.62-1.51,3.89-3.17.43-1.03,1.15-2.26,1.87-3.22-.24-.72-.82-1.42-1.92-1.42-2.42,0-5.14,3.43-5.14,5.88,0,1.3.41,1.92,1.29,1.92Z"/>
      <path class="cls-1" d="M85.51,165.03c-.89,0-1.66-.6-1.66-1.9v-.24c-1.01,1.25-2.23,2.11-3.41,2.11-1.06,0-1.97-.65-1.97-1.92,0-1.73,1.46-3.98,2.64-5.3.5-.55.77-.7,1.13-.7.26,0,.46.14.46.38,0,.19-.17.43-.38.7-1.63,1.87-2.76,3.58-2.76,4.97,0,.89.36,1.34,1.1,1.34.96,0,2.23-.98,3.38-2.47.38-1.25,1.25-2.64,2.11-3.77.67-.86,1.39-1.8,1.9-1.8.21,0,.36.12.36.38,0,.24-.17.65-.53,1.18-.6.94-1.61,2.3-2.79,3.82-.19.48-.29.84-.29,1.44,0,.84.36,1.18.96,1.18,1.27,0,2.83-1.37,4.46-3.79.07-.12.17-.17.24-.17.14,0,.24.12.24.26,0,.36-2.62,4.3-5.21,4.3Z"/>
      <path class="cls-1" d="M92.81,162.42c-1.82,1.8-2.54,2.88-2.83,2.88-.14,0-.21-.1-.21-.24,0-.48,1.46-1.9,2.93-3.26-.17-1.34-.19-2.38-.14-3.65-2.04,3.34-4.2,6-4.87,6-.14,0-.26-.07-.26-.22,0-.07.05-.17.17-.26,1.54-1.22,3.53-4.08,5.02-6.62.1-.17.29-.36.6-.36.48,0,.5.38.5.65-.02.89-.17,1.92,0,3.58,1.71-1.49,3.67-3.14,5.21-4.2.34-.24.62-.36.79-.36.12,0,.19.07.19.14,0,.14-.14.34-.5.6-1.85,1.27-3.91,2.95-5.62,4.46l.02.1c.24,1.66.91,2.71,1.97,2.71,1.13.02,2.57-1.3,4.2-3.72.07-.12.17-.17.24-.17.14,0,.24.12.24.26,0,.36-2.62,4.3-4.87,4.3-1.3,0-2.38-.94-2.76-2.62Z"/>
    </g>
    <g>
      <path class="cls-1" d="M2.75,358.01c4.03-.7,9.55-2.95,11.38-4.63l1.22,1.61c-.38.17-.43.19-1.03.53-3.86,2.09-7.15,3.26-11.57,4.08v3.5s0,.07-.02.14v.29c0,1.68.1,2.23.5,2.64.31.31.84.5,1.82.62.74.1,1.87.14,2.83.14,1.49,0,3.62-.14,5.5-.38,1.03-.14,1.49-.24,2.38-.48l.14,1.9q-.46.05-2.26.24c-1.54.17-4.71.34-6.36.34-2.83,0-4.42-.29-5.26-.98-.58-.48-.86-1.18-.98-2.3-.02-.41-.05-.89-.05-1.87v-11.07c0-.98-.02-1.39-.1-1.99h1.97c-.1.62-.12.98-.12,2.02v5.66Z"/>
      <path class="cls-1" d="M23.19,356.19c.86.12,1.37.14,2.81.14h12.31c.89,0,1.15-.02,1.56-.17l.89,1.03c-.22.34-.26.46-.67,1.51-2.04,5.59-5.35,8.67-11.57,10.75-.29-.7-.46-.96-1.03-1.66,3.21-.91,5.33-1.99,7.13-3.65,1.7-1.56,2.78-3.34,3.89-6.29h-12.53c-1.27,0-1.97.02-2.78.12v-1.8ZM25.26,350.62c.7.14,1.18.17,2.52.17h8.02c1.34,0,1.82-.02,2.52-.17v1.85c-.65-.1-1.22-.12-2.5-.12h-8.06c-1.27,0-1.85.02-2.5.12v-1.85Z"/>
      <path class="cls-1" d="M53.6,351.89c-.22-1.2-.29-1.49-.53-2.04l1.9-.34c.02.6.02.74.26,2.06l.48,2.64,4.34-.67c1.42-.26,1.56-.29,2.11-.48l.34,1.73c-.46.05-.6.05-.94.1-.14.02-.53.1-1.2.19l-4.37.7.91,4.82,5.95-.96c1.42-.24,1.82-.34,2.38-.53l.34,1.78c-.5.02-.6.05-1.06.1-.22.05-.46.1-.74.14l-.55.07-6.02.96.98,5.33c.22,1.18.31,1.56.53,2.26l-1.92.38c-.02-.62-.07-1.03-.29-2.3l-.98-5.38-6.43,1.01c-1.3.22-1.54.26-2.3.5l-.31-1.82h.14c.62,0,1.13-.05,2.23-.22l6.38-1.03-.87-4.85-4.94.77c-1.39.24-1.82.34-2.4.53l-.34-1.82c.7,0,1.34-.07,2.5-.24l4.9-.79-.48-2.59ZM62.55,349.33c1.08,1.3,1.75,2.3,2.47,3.72l-1.22.72c-.58-1.27-1.73-3.05-2.45-3.82l1.2-.62ZM65.27,348.03c1.08,1.32,1.68,2.21,2.47,3.72l-1.2.7c-.5-1.13-1.51-2.69-2.45-3.77l1.18-.65Z"/>
      <path class="cls-1" d="M87.56,351.1q-.19.36-.6,1.39c-1.63,4.13-3.29,7.01-5.47,9.46-2.35,2.69-5.04,4.63-9.05,6.65-.38-.74-.58-1.01-1.22-1.68,5.42-2.3,9.07-5.47,11.83-10.34,1.27-2.26,2.3-4.78,2.52-6.14l1.99.67Z"/>
      <path class="cls-1" d="M110.65,354.77c.89,0,1.46-.02,1.94-.1-.07.65-.1,1.18-.1,2.09v11.5c0,1.49-.65,1.87-3.1,1.87-.5,0-1.3-.02-2.33-.07-.07-.58-.14-.91-.41-1.51,1.06.12,2.38.22,3.14.22.22,0,.67-.05.77-.07.24-.07.36-.29.36-.67v-3.65h-13.3c-.46,2.35-1.39,4.15-3.05,6.02-.36-.36-.7-.58-1.44-.96,1.61-1.66,2.3-2.83,2.79-4.63.41-1.54.62-4.13.62-7.39,0-.82,0-1.18-.05-1.78-.94.77-1.42,1.1-2.38,1.7-.31-.53-.41-.65-.98-1.18,2.38-1.37,4.51-3.22,6.05-5.28.84-1.08,1.25-1.8,1.39-2.4l1.75.48c-.22.31-.29.38-.5.74-.26.38-.31.46-.62.89h4.34c1.01,0,1.63-.02,2.23-.12l.84.82c-.29.29-.29.31-.94,1.18-.62.84-1.32,1.68-1.97,2.3h4.92ZM103.98,354.77c.79-.79,1.7-1.92,2.3-2.86h-6.1c-.96,1.2-1.58,1.87-2.64,2.83.53.02.74.02,1.25.02h5.19ZM103.57,363.01v-2.9h-5.52c-.05,1.18-.1,1.8-.21,2.9h5.74ZM98.1,356.09v2.66h5.47v-2.66h-5.47ZM110.94,356.09h-5.9v2.66h5.9v-2.66ZM110.94,360.1h-5.9v2.9h5.9v-2.9Z"/>
      <path class="cls-1" d="M121.74,367.18l-1.1.02c-.82,0-.89.02-1.46.1v-1.92c.74.14,1.1.17,2.62.17h11.43v-11.57h-10.92c-1.56,0-1.99.02-2.76.12v-1.92c.77.14,1.18.17,2.76.17h10.83c1.01-.02,1.63-.05,1.9-.05v14.14c.02,1.56.05,1.78.12,2.21h-1.92v-1.46h-11.47ZM134.63,349.08c1.06,1.3,1.73,2.3,2.45,3.72l-1.2.72c-.7-1.46-1.58-2.86-2.45-3.82l1.2-.62ZM137.31,347.79c1.1,1.32,1.68,2.21,2.5,3.72l-1.2.7c-.53-1.13-1.54-2.69-2.47-3.77l1.18-.65Z"/>
      <path class="cls-1" d="M149.72,368.65c.14-.86.19-1.56.19-2.69v-12.89c0-.98-.05-1.73-.19-2.74.86.05,1.54.07,2.64.07h4.9c3.7,0,5.78,1.9,5.78,5.23,0,3.53-2.16,5.57-5.91,5.57h-5.35v4.73c0,1.15.05,1.9.19,2.71h-2.26ZM157.14,359.55c2.54,0,3.98-1.37,3.98-3.82s-1.39-3.67-3.98-3.67h-5.35v7.49h5.35Z"/>
      <path class="cls-1" d="M173.24,357.56c-.91-.29-1.34-.36-1.94-.36-1.22,0-2.23.5-2.95,1.46-.58.74-.79,1.32-.89,2.4v4.9c0,1.08.05,1.75.17,2.69h-2.16c.12-1.1.17-1.73.17-2.71v-7.51c0-1.2-.05-1.85-.17-2.71h1.99v1.37c0,.19,0,.55-.02.72.46-.74.82-1.13,1.32-1.46.91-.6,1.73-.84,2.88-.84.72,0,1.13.05,2.14.22l-.53,1.85Z"/>
      <path class="cls-1" d="M175.18,362.19c0-4.15,2.5-6.79,6.41-6.79s6.38,2.64,6.38,6.77-2.5,6.79-6.36,6.79-6.43-2.62-6.43-6.77ZM177.03,362.14c0,3.26,1.75,5.26,4.56,5.26s4.54-1.99,4.54-5.23-1.73-5.26-4.49-5.26-4.61,1.99-4.61,5.23Z"/>
    </g>
    <g>
      <path class="cls-1" d="M5.3,218.95c6.3,1.8,14.25,2.4,28.05,2.4.45,0,1.05,0,3.75-.15q.15-3.6.75-11.25c.15-1.65.45-7.5.45-8.55,0-.3,0-1.2-.15-2.25l11.7.75c-1.35,4.2-2.1,9.3-3.15,21,24.45-1.2,45.75-4.35,57.15-8.4l.6,10.5c-1.95.3-2.4.3-5.25.75-16.35,3-39.15,5.55-53.1,6q-.9,12.75-1.05,20.1c7.65-2.1,14.25-3,22.2-3,3.15,0,4.95.15,8.7.45,1.8-4.5,3-9,3.6-13.5l10.35,3.15c-.45.9-2.1,4.95-4.65,12,20.7,4.8,32.25,17.55,32.25,35.1,0,14.7-8.1,26.55-23.55,34.65-8.55,4.5-17.1,6.9-30.6,8.55-1.35-4.35-2.1-6-4.8-10.05,8.85-.3,15.3-1.5,22.5-4.05,16.35-5.7,25.8-16.65,25.8-30s-8.55-21.9-24.75-26.1c-8.7,20.25-16.8,33.15-28.5,45-11.55,12-22.95,18.15-33.45,18.15-11.25,0-19.35-9.45-19.35-22.8,0-18.45,13.05-35.25,34.8-44.7.15-10.95.15-11.7.9-22.65h-6c-1.5,0-8.25-.3-20.25-.75-1.35-.15-2.4-.15-2.7-.15-.6,0-1.35,0-2.4.15l.15-10.35ZM19.7,274.45c-5.85,6.9-9.15,14.85-9.15,22.35,0,8.25,4.35,13.65,10.8,13.65,5.55,0,10.5-2.25,17.25-7.65-2.1-11.55-3-22.5-3-40.65-7.35,4.05-11.7,7.5-15.9,12.3ZM47.15,296.65c1.5-2.4,1.65-2.7,2.85-3.9,9.75-11.25,16.05-21.75,22.95-37.5-4.8-.3-5.55-.3-7.2-.3-6.9,0-13.95,1.2-20.85,3.45.15,19.35.3,21.9,1.65,34.35.15.9.15,1.2.15,2.1v1.65l.45.15Z"/>
      <path class="cls-1" d="M147.95,239.35c4.8,1.2,11.1,1.65,22.5,1.65h2.85q.15-2.25.75-9.45c.3-3.3.45-4.95.45-6.15,0-.45,0-.9-.15-1.65l9.9.75c-.9,3.15-1.5,7.05-2.4,16.35,16.8-.6,37.35-3.6,45.75-6.75l.45,9.15q-1.95.15-11.25,1.8c-10.05,1.65-24.3,3.15-35.4,3.45-.45,5.7-.75,9.9-.9,15.75,6-1.65,11.7-2.4,18.15-2.4,1.65,0,3.3.15,6.3.3,1.5-3.9,2.4-7.35,2.85-10.5l9.15,2.85c-.9,1.5-1.95,4.05-3.75,9.15,6.6,1.8,10.35,3.45,14.55,6.45,7.05,4.8,11.4,13.05,11.4,22.05,0,12.75-8.55,24.15-22.5,29.55-6.75,2.7-14.4,4.8-21.6,5.7-1.5-4.05-2.1-5.25-4.2-8.4,24.75-2.25,39.15-12.45,39.15-27.6,0-10.2-6.15-16.5-19.8-20.4-8.1,18.75-15,29.4-24.6,38.25-9,8.4-17.1,12.3-25.35,12.3-9.6,0-16.35-7.35-16.35-18.15,0-7.5,3.15-15.9,8.7-22.65,4.95-6.15,10.65-10.2,19.5-13.8,0-6.9.15-9.15.75-18.15h-2.7c-3,0-12.6-.3-15.9-.45-1.8-.15-3.15-.15-3.9-.15-.45,0-1.35,0-2.55.15l.15-9ZM157.7,287.8c-3.3,4.95-5.1,10.2-5.1,14.4,0,6.9,3.15,10.8,8.55,10.8,3.75,0,9.15-2.25,13.2-5.55-1.5-8.4-2.25-18.45-2.25-32.25-6.75,3.45-10.8,7.2-14.4,12.6ZM180.35,275.5c0,5.85.9,20.55,1.35,23.85.15.6.3,1.65.3,2.55h.3c0-.15.15-.3.3-.45q.3-.75,1.05-1.5c7.05-7.65,11.55-15,18.75-30.6-2.4-.3-3.45-.3-5.1-.3-5.55,0-10.95.9-16.95,2.7v3.75Z"/>
    </g>
  </g>
</svg>