<?xml version="1.0" encoding="UTF-8"?>
<svg id="_レイヤー_2" data-name="レイヤー 2" xmlns="http://www.w3.org/2000/svg" viewBox="0 0 232.82 348.32">
  <defs>
    <style>
      .cls-1 {
        fill: #fff;
        stroke-width: 0px;
      }
    </style>
  </defs>
  <g id="_レイヤー_1-2" data-name="レイヤー 1">
    <g>
      <path class="cls-1" d="M23.1,96.15c-.7,2-.8,3.7-.3,5.1.5,1.4,1.32,2.47,2.48,3.22,1.15.75,2.33,1.12,3.52,1.12h1.35v1.5H0v-1.5h1.35c2.3,0,4.67-.72,7.12-2.17,2.45-1.45,4.47-3.87,6.07-7.28h8.55ZM55.35,0l1.35,10.5L19.05,106.65h-9L48.45,15.45c1.1-2.5,2.02-4.65,2.77-6.45.75-1.8,1.4-3.55,1.95-5.25.55-1.7.83-2.95.83-3.75h1.35ZM76.5,66.15v4.5H29.55v-4.5h46.95ZM55.35,0l44.4,106.2h-12.75L52.35,14.25l3-14.25ZM83.25,96.15h12.3c1.5,3.4,3.5,5.83,6,7.28,2.5,1.45,4.9,2.17,7.2,2.17h1.2v1.5h-33.75v-1.5h1.35c1.9,0,3.6-.83,5.1-2.47,1.5-1.65,1.7-3.98.6-6.98Z"/>
      <path class="cls-1" d="M129.75,96.15c-1.1,3-.95,5.33.45,6.98,1.4,1.65,3,2.47,4.8,2.47h1.2v1.5h-28.65v-1.5h1.2c2.1,0,4.25-.72,6.45-2.17,2.2-1.45,4.1-3.87,5.7-7.28h8.85ZM158.7,15l1.05,10.35-34.35,81.3h-9.45l35.55-76.2c1.1-2.4,2.02-4.47,2.77-6.22.75-1.75,1.42-3.47,2.02-5.17.6-1.7.95-3.05,1.05-4.05h1.35ZM176.4,72.15v4.5h-39.75v-4.5h39.75ZM158.7,15l41.25,91.2h-11.85l-31.95-77.85,2.55-13.35ZM184.05,96.15h11.4c1.5,3.4,3.35,5.83,5.55,7.28,2.2,1.45,4.3,2.17,6.3,2.17h1.2v1.5h-30.75v-1.5h1.2c1.7,0,3.25-.83,4.65-2.47,1.4-1.65,1.55-3.98.45-6.98Z"/>
    </g>
    <g>
      <path class="cls-1" d="M15.69,141.24l-.29,3.77c-.42.69-.94,1.3-1.57,1.84-.63.54-1.38.96-2.23,1.27-.86.31-1.84.47-2.94.47-1.66-.02-3.14-.38-4.44-1.1-1.3-.72-2.31-1.73-3.04-3.04-.73-1.3-1.09-2.84-1.09-4.62s.36-3.27,1.08-4.57c.72-1.3,1.73-2.32,3.04-3.05,1.3-.73,2.84-1.09,4.6-1.09,1.18,0,2.25.16,3.2.47.95.31,1.78.7,2.48,1.16l.48,3.38h-.22c-.35-1.41-1.07-2.48-2.16-3.2-1.09-.73-2.35-1.09-3.79-1.09s-2.63.33-3.66,1c-1.03.66-1.83,1.59-2.4,2.78-.57,1.19-.85,2.59-.85,4.19s.28,3,.85,4.2,1.36,2.14,2.38,2.81c1.02.67,2.2,1.02,3.54,1.06,1.14,0,2.19-.21,3.16-.64.97-.42,1.78-1.12,2.44-2.09.66-.97,1.07-2.27,1.25-3.9h.19Z"/>
      <path class="cls-1" d="M20.25,135.38h-.07c-.02-.37-.18-.68-.49-.92s-.69-.37-1.14-.37h-.34v-.24h2.04v1.54ZM20.25,146.71v1.54h-2.04v-.24h.34c.45,0,.83-.13,1.14-.38s.48-.56.49-.91h.07ZM21.69,133.84v14.4h-1.51v-14.4h1.51ZM21.62,135.38v-1.54h2.04l-.02.24h-.31c-.45,0-.83.12-1.14.37s-.48.56-.49.92h-.07ZM21.62,146.71h.07c.02.35.18.66.49.91s.69.38,1.14.38h.31l.02.24h-2.04v-1.54Z"/>
      <path class="cls-1" d="M27.59,146.76v1.49h-1.8v-.24h.41c.37,0,.68-.12.94-.36.26-.24.38-.54.38-.89h.07ZM27.54,133.49l1.03,1.34.02,13.42h-1.08v-11.76c0-.82-.07-1.82-.22-3h.24ZM27.54,133.49l13.3,12.53.24,2.57-13.3-12.6-.24-2.5ZM28.6,146.76c0,.35.13.65.4.89.26.24.57.36.92.36h.41v.24h-1.8v-1.49h.07ZM40.02,135.33c-.02-.35-.15-.65-.41-.89-.26-.24-.57-.36-.94-.36h-.41v-.24h1.8v1.49h-.05ZM41.08,133.84v11.66c0,.51.02,1,.05,1.48s.09,1,.17,1.6h-.22l-1.06-1.27v-13.46h1.06ZM41.01,135.33v-1.49h1.8v.24h-.41c-.35,0-.66.12-.92.36s-.4.54-.4.89h-.07Z"/>
      <path class="cls-1" d="M56.13,133.51v.22l-9.6,14.52h-1.68v-.22l8.95-13.49h-8.59v-.72h8.21c.34,0,.7-.02,1.08-.05.38-.03.73-.07,1.03-.12.3-.05.5-.1.6-.14ZM45.21,133.44c.14.05.37.1.67.16.3.06.64.1,1,.14s.7.07,1.02.08l-2.69.24v-.62ZM45.21,134.49h1.46v.05c-.35.02-.64.14-.86.37-.22.23-.34.52-.34.88v.36h-.26v-1.66ZM56.34,147.53l-.17.72h-9.77v-.72h9.94ZM57.64,144.81l-1.3,3.43h-3.6l.82-.72c.78-.02,1.41-.14,1.88-.36.47-.22.86-.54,1.16-.95.3-.41.57-.88.79-1.4h.24Z"/>
      <path class="cls-1" d="M61.34,135.36h-.05c-.02-.37-.15-.67-.41-.91-.26-.24-.58-.36-.98-.36h-.34v-.24h2.09l-.31,1.51ZM61.34,146.71l.31,1.54h-2.09v-.24h.34c.4,0,.73-.13.98-.38.26-.26.39-.56.41-.91h.05ZM62.82,133.84v14.4h-1.54v-14.4h1.54ZM69.26,133.84v.74h-6.48v-.74h6.48ZM68.15,140.69v.72h-5.38v-.72h5.38ZM69.28,147.5l-.05.74h-6.46v-.74h6.5ZM70.62,144.81l-1.32,3.43h-3.65l.82-.74c.8,0,1.44-.12,1.93-.35.49-.23.88-.55,1.19-.96.3-.41.57-.87.79-1.38h.24ZM69.26,133.46v.62l-2.74-.24c.5,0,1.02-.04,1.58-.13s.94-.17,1.15-.25ZM68.15,139.37v1.37h-1.25v-.05c.34,0,.58-.1.74-.3.16-.2.24-.44.24-.71v-.31h.26ZM68.15,141.36v1.37h-.26v-.31c0-.27-.08-.51-.24-.71-.16-.2-.41-.3-.74-.3v-.05h1.25ZM69.26,134.52v1.66h-.26v-.36c0-.34-.11-.62-.32-.86-.22-.24-.51-.36-.88-.36v-.07h1.46Z"/>
      <path class="cls-1" d="M74.44,135.38h-.05c-.02-.37-.16-.68-.43-.92-.27-.25-.61-.37-1.01-.37h-.29v-.24h1.78v1.54ZM74.44,146.71l.31,1.54h-2.09v-.24h.34c.4,0,.73-.13.98-.38.26-.26.39-.56.41-.91h.05ZM75.93,133.84v14.4h-1.54v-14.4h1.54ZM75.86,135.38v-1.54h1.78v.24h-.29c-.38,0-.72.12-1,.37-.28.25-.42.56-.42.92h-.07ZM82.38,147.5l-.05.74h-6.46v-.74h6.5ZM83.73,144.81l-1.32,3.43h-3.65l.82-.74c.8,0,1.44-.12,1.93-.35.49-.23.88-.55,1.19-.96.3-.41.57-.87.79-1.38h.24Z"/>
    </g>
    <g>
      <path class="cls-1" d="M8.12,201.15c5.85,6.75,10.95,8.85,21,8.85,2.85,0,4.65-.15,8.7-.75.9-6.75,1.65-14.1,1.65-16.65,0-5.4-2.4-7.8-9.75-10.05,1.65-1.35,2.4-1.65,4.35-1.65,3.3,0,9,1.5,13.05,3.45,3.75,1.95,5.55,3.75,5.55,6.15q0,1.35-1.95,3.9c-1.8,2.55-2.85,5.4-4.65,13.5,14.25-3,23.1-6.45,28.2-10.65,1.65-1.5,2.25-1.65,3.75-1.65,2.1,0,5.4.6,7.05,1.2,1.5.6,2.4,1.8,2.4,3.3,0,2.7-3,4.5-12.9,7.95-7.5,2.55-19.05,5.25-30.15,7.05-1.35,6.75-2.55,15.9-2.85,22.65,8.55-2.85,15.9-4.35,24-4.8v-.9c0-2.85-1.2-4.95-4.8-8.25.75-.15,1.35-.3,1.65-.3,3.9,0,8.25,4.05,9.6,9,13.35,1.5,21.6,4.5,29.1,10.65,6.75,5.85,10.2,13.65,10.2,23.7,0,22.8-23.25,39.9-58.5,42.9l-.45-2.4c30.45-7.5,47.4-23.1,47.4-43.95,0-9.15-3.9-16.65-10.95-21.3-4.2-2.7-9.3-4.2-17.4-5.25-2.25,7.65-4.65,12.75-9.45,20.55-5.25,8.25-9.75,13.8-16.05,19.5q1.95,3.75,3.75,6.3c1.05,1.65,1.65,3.6,1.65,6.3,0,4.05-1.35,6.9-3.45,6.9-2.55,0-5.1-4.05-8.7-13.2-9.6,8.7-19.95,14.25-25.95,14.25-3.6,0-5.25-1.65-7.2-6.9-1.05-2.55-1.35-3.15-2.85-5.7-2.25-3.6-2.85-5.7-2.85-9,0-7.8,4.65-15.6,14.1-23.55,5.55-4.5,11.4-8.1,20.25-12q.15-2.25.9-11.1c.15-2.55.45-4.95,1.35-13.35-2.85.15-4.2.3-5.7.3-11.85,0-18.9-3.9-25.05-13.8l1.95-1.2ZM13.37,264.15c-3.15,4.8-4.65,9.45-4.65,14.1,0,5.55,2.25,9.15,5.7,9.15,4.8,0,14.1-5.1,22.35-12.15-1.8-9.75-2.25-14.7-2.25-24.15v-5.4c-11.25,6.6-16.5,11.1-21.15,18.45ZM41.27,247.5c0,8.1.75,15.6,2.1,21.9,11.7-12.15,17.1-20.1,21.45-32.4-8.55.75-14.25,2.1-23.55,5.7v4.8Z"/>
      <path class="cls-1" d="M148.07,221.4c5.25,5.1,8.85,6.6,15.9,6.6,3.3,0,6.15-.3,9.3-.75.15-1.35.3-2.4.45-3,.75-6.6.75-7.2.75-9.3,0-2.55-.6-4.2-1.8-5.55q-1.2-1.35-6.6-2.85c1.8-1.65,2.7-1.95,4.95-1.95,3.6,0,9.9,1.8,12.75,3.45,1.65,1.05,2.85,2.85,2.85,4.2q0,1.05-2.25,4.2c-1.65,2.55-2.1,3.9-3.9,9.75,11.85-2.55,18.75-5.1,22.8-8.55,1.35-1.2,1.95-1.5,3-1.5,3.9,0,8.7,2.7,8.7,4.8,0,1.35-2.1,2.85-6.3,4.35-7.2,2.85-19.5,6-29.7,7.65-1.35,6.3-1.95,10.65-2.25,17.4,8.1-2.1,12.75-3,19.2-3.45-.3-2.7-1.2-4.2-3.75-6.75.75-.15,1.2-.15,1.8-.15,2.4,0,5.55,2.85,7.5,6.9,9,1.2,14.4,2.85,19.5,6.3,7.65,5.25,11.85,12.75,11.85,21.45,0,12.45-7.95,22.5-22.8,28.95-6.9,2.85-13.35,4.35-23.7,5.4l-.45-2.4c23.85-5.7,36.75-17.7,36.75-33.9,0-12.75-7.5-20.4-21.45-21.6-1.5,4.5-3.6,8.4-7.65,14.85-3.6,5.55-6.9,9.45-13.65,16.65q.6,1.35,2.1,3.9c.75,1.2,1.35,3.45,1.35,5.55,0,3.45-1.35,5.85-3.15,5.85-2.55,0-4.65-3.15-6.9-9.75-7.8,6.45-15.3,10.35-19.65,10.35-2.25,0-3.75-.75-4.8-2.55-.75-1.05-.75-1.2-2.55-4.95-.3-.9-1.95-4.05-2.4-4.95-1.05-1.95-1.5-3.3-1.5-5.1,0-4.5,3.15-10.2,8.85-15.9,4.5-4.65,9.9-7.95,19.2-12.45.45-6.9,1.05-13.65,1.8-19.5-2.1.3-3,.3-4.35.3-4.95,0-8.4-.6-11.4-1.65-4.8-2.1-7.35-4.35-9.9-9l1.5-1.35ZM149.87,282.75c0,3.9,2.1,6.9,4.95,6.9,3.75,0,9.3-3,16.8-9-1.05-6.6-1.5-11.7-1.5-19.05v-3.9c-13.2,7.8-20.25,16.65-20.25,25.05ZM177.62,275.55c8.55-8.1,13.65-15.15,17.7-24.45-7.35.45-13.05,1.8-18.9,4.2,0,10.8.3,15.3,1.2,20.25Z"/>
    </g>
    <g>
      <path class="cls-1" d="M1.47,330.7c.59,0,1.61.29,2.22.62.51.29.75.57.75.92,0,.13-.02.26-.11.46-.31.73-.46,1.65-.62,3.61.31.24.53.31,1.03.31.86,0,2.6-.33,4.25-.84.99-.29,1.56-.55,2.16-.95.11-.09.37-.18.46-.18.66,0,1.72.68,1.72,1.1,0,.33-.29.51-1.06.68-2.79.64-5.35,1.01-6.84,1.01-.68,0-1.3-.2-1.76-.57-.09,2.33-.13,3.26-.13,3.74,0,2.66.59,3.28,3.08,3.28,2,0,3.83-.24,5.19-.73.33-.11.46-.13.62-.13.59,0,1.54.75,1.54,1.19,0,.31-.22.48-.77.59-.95.2-3.3.37-5.06.37-2.82,0-4.2-.42-4.99-1.56-.44-.59-.66-1.34-.75-2.55-.02-.53-.04-1.52-.04-3.19v-1.01c.02-.99.02-1.67.02-2,0-1.89-.07-2.55-.26-2.95-.24-.48-.68-.77-1.5-1.03.26-.18.35-.2.86-.2Z"/>
      <path class="cls-1" d="M25.23,347.2c2.18-1.67,3.56-3.04,5.02-4.91,1.78-2.27,3.1-4.67,3.7-6.71-2.13.15-4.11.46-6.4,1.01-1.39.33-1.83.46-2.29.68-.35.18-.44.2-.66.2-.77,0-2.02-1.58-2.02-2.55,0-.15.02-.22.13-.37.51.88,1.1,1.28,1.91,1.28.86,0,4.58-.46,7.44-.95,1.19-.2,1.36-.24,1.8-.51.15-.09.26-.13.35-.13.2,0,.53.22,1.03.66.62.57.88.92.88,1.21,0,.18-.11.35-.33.55-.31.22-.44.42-.81,1.14-2.38,4.49-5.92,8.05-9.55,9.66l-.2-.26ZM24.94,330.17c.75.86,1.41,1.19,2.35,1.19,1.47,0,4.14-.57,4.97-1.06.18-.09.29-.13.46-.13.62,0,1.72.77,1.72,1.21,0,.26-.2.4-.84.48-2.62.4-4.42.57-5.61.57-1.65,0-2.31-.42-3.37-2.07l.31-.2Z"/>
      <path class="cls-1" d="M43.82,334.59c.79.51,1.45.73,2.27.73.86,0,2.31-.31,3.79-.81-.81-3.54-1.17-4.07-2.9-4.18.35-.31.59-.4,1.28-.4.57,0,1.28.09,1.78.22.57.15.86.42.86.77,0,.04,0,.13-.02.22-.07.31-.09.46-.09.68,0,.57.07,1.08.26,2.31,2.07-.75,2.46-.92,3.23-1.47.29-.24.35-.26.53-.26.35,0,.7.09,1.06.22.33.15.48.31.48.51,0,.18-.13.35-.33.46q-.24.13-2.05.73c-.95.31-1.85.59-2.73.84.24,1.25.51,2.51.77,3.52,2.77-.77,3.92-1.19,4.75-1.69.24-.13.29-.15.46-.15.86,0,1.96.53,1.96.95,0,.15-.09.29-.24.35-.2.07-.26.07-1.54.22-.95.09-3.45.66-5.19,1.17l.79,3.12c.46,1.87.57,2.22.79,3.04.18.7.24,1.01.24,1.32,0,.48-.18.73-.51.73-.53,0-1.63-1.21-1.63-1.78t.04-.33c0-.15.02-.42.02-.55,0-.77-.22-2.09-.84-5.19-1.28.35-4.05,1.45-4.55,1.8-.44.24-.75.37-.97.37-.81,0-2.33-1.3-2.33-2,0-.07.02-.13.07-.24.51.51,1.1.79,1.63.79.62,0,1.23-.13,2.84-.64.64-.2,1.06-.33,1.25-.4l1.87-.57c-.37-1.72-.64-2.84-.79-3.5-2.27.62-2.84.73-3.61.73-1.03,0-2.07-.48-2.88-1.36l.18-.24ZM56.05,329.33c.81.46,1.41.88,1.94,1.36.79.73,1.1,1.23,1.1,1.76s-.29.92-.68.92q-.29,0-.97-1.43c-.4-.77-1.08-1.74-1.67-2.31l.29-.31ZM58.3,328.06c.79.35,1.43.75,2.11,1.25.84.64,1.12,1.1,1.12,1.69,0,.53-.22.9-.55.9-.2,0-.33-.11-.51-.42-.77-1.39-1.19-1.96-2.4-3.12l.22-.31Z"/>
      <path class="cls-1" d="M66.19,346.23c2.73-2.05,5.21-4.84,7.35-8.32,1.72-2.77,2.66-4.86,2.66-5.85,0-.66-.33-1.12-1.21-1.72.18-.07.29-.09.48-.09.42,0,1.32.44,2.09,1.01.66.51.99.92.99,1.28,0,.26-.07.37-.37.68-.31.33-.55.68-1.01,1.52-3.12,5.68-6.67,9.59-10.76,11.82l-.22-.33Z"/>
      <path class="cls-1" d="M87.78,342.95q-.04.37-1.23.42c-.2-.02-.26-.09-.31-.33.07-2.18.09-3.5.09-7.08,0-4.31-.02-5.33-.09-6.82.75.42.97.57,1.67,1.06h3.78c.37-.4.48-.53.86-.9.55.42.7.55,1.21.99.15.13.2.2.2.26,0,.11-.15.22-.7.55v8.67c0,.4,0,.92.02,2.51-.04.4-.22.46-1.17.46-.2,0-.29-.07-.31-.26v-1.3h-4.03v1.78ZM91.8,330.7h-4.03v4.66h4.03v-4.66ZM87.78,335.87v4.8h4.03v-4.8h-4.03ZM96.64,340.22c-.29,1.52-.79,2.68-1.74,3.96-1.23,1.72-2.44,2.71-4.8,3.94l-.18-.33c1.67-1.12,2.49-1.87,3.43-3.12,1.8-2.46,2.25-4.67,2.25-11.57,0-1.63-.02-2.75-.11-4.49.75.42.97.57,1.67,1.1h5.28c.37-.42.48-.55.86-.97.64.48.84.62,1.41,1.08.13.13.2.2.2.26,0,.11-.33.37-.77.62v11.33q.02,1.14.04,2.16c0,.97,0,.99.02,1.78,0,.66-.09.95-.35,1.23-.35.37-.88.55-2.29.77-.37-1.21-.68-1.36-3.04-1.58v-.42c1.52.07,1.74.09,3.63.13h.07c.29,0,.33-.07.33-.4v-5.48h-5.92ZM96.99,335.12c-.04,2.42-.13,3.72-.26,4.6h5.83v-4.6h-5.57ZM102.58,334.61v-4.42h-5.54c.02.51.02.88.02,1.14s0,.53-.04,3.28h5.57Z"/>
      <path class="cls-1" d="M113.47,343.55h1.54c.46-.57.59-.75,1.06-1.28.68.59.9.79,1.58,1.45.04.09.09.15.09.22s-.09.11-.24.11h-4.03v.31q0,2.73.02,3.65c-.02.24-.29.31-1.32.31-.2,0-.26-.04-.26-.18.04-1.78.04-2.44.04-3.7v-.4h-2.9c-.62,0-.97.04-1.63.18l-.13-.86c.62.13.99.18,1.76.18h2.9v-2.93h-2.05v1.08c0,.15-.02.18-.18.22-.2.07-.66.11-.92.11-.22,0-.26-.04-.26-.2v-.04c.02-.75.04-1.25.04-1.43,0-5.37,0-5.81-.13-6.91.77.42.99.55,1.69.99h1.8v-2.79h-2.9c-.64,0-1.06.04-1.52.13l-.15-.81c.59.15.92.18,1.67.18h2.9v-.86c0-1.08,0-1.3-.09-2.09,2.2.29,2.49.35,2.49.57,0,.15-.2.26-.88.48v1.89h1.98c.46-.59.62-.77,1.1-1.36.7.66.92.86,1.61,1.54.09.11.13.18.13.22,0,.07-.07.11-.13.11h-4.69v2.79h1.8c.37-.44.51-.57.86-.99.53.42.68.55,1.17.99.18.15.22.22.22.29,0,.11-.18.29-.66.57v1.76c0,1.58.02,2.46.09,4.2v.04c0,.22-.48.35-1.19.35-.24,0-.31-.04-.31-.18v-.86h-1.98v2.93ZM115.45,337.1v-2.16h-5.54v2.16h5.54ZM109.91,337.61v2.51h5.54v-2.51h-5.54ZM120.25,340.11c-.22,1.72-.79,3.3-1.63,4.73-.73,1.23-1.47,2.05-3.17,3.43l-.22-.26c1.8-1.96,2.68-3.46,3.26-5.52.48-1.85.62-3.67.62-9.24,0-2.55-.02-3.19-.09-4.4.77.37,1.01.48,1.74.92h3.78c.35-.44.46-.57.81-.99.53.42.7.55,1.21.99.18.15.24.24.24.33,0,.11-.18.29-.62.57v11.22c0,2.02,0,2.38.09,4.29-.02.64-.13.9-.55,1.21-.44.31-.86.46-1.69.62-.13-.59-.29-.79-.75-1.01-.51-.26-1.21-.44-2.55-.64l.02-.31c1.47.09,2,.11,3.7.13h.04c.15,0,.2-.04.2-.22v-5.85h-4.45ZM120.53,335.1c-.02,2.33-.07,2.86-.22,4.51h4.38v-4.51h-4.16ZM124.69,334.59v-4.31h-4.14v1.32l-.02,2.99h4.16Z"/>
      <path class="cls-1" d="M140.22,343.17c0,2.02.13,2.2,1.85,2.24v.55h-5.5v-.55c1.56-.04,1.69-.2,1.69-2.24v-10.36c0-2.05-.11-2.2-1.69-2.27v-.53h6.05c1.58,0,2.9.22,3.72.59,1.45.68,2.18,1.96,2.18,3.83,0,2.11-.86,3.46-2.66,4.09-.9.33-2.51.53-4.2.53h-1.43v4.11ZM141.79,338.4c1.72,0,2.9-.31,3.59-.92.64-.59,1.01-1.65,1.01-2.95,0-2.57-1.39-3.85-4.18-3.85h-1.98v7.72h1.56Z"/>
      <path class="cls-1" d="M153.4,334.61c.04,1.1.07,1.39.07,1.85v.7c.73-1.67,1.91-2.62,3.21-2.62.95,0,1.67.59,1.67,1.36,0,.55-.46.9-1.17.9-.48,0-.68-.13-.81-.55-.13-.48-.26-.62-.62-.62-.57,0-1.19.48-1.65,1.32-.4.73-.59,1.63-.59,2.79v3.45c0,2.07.11,2.22,1.58,2.27v.48h-5.04v-.48c1.47-.04,1.61-.22,1.61-2.27v-5.9c0-1.65-.26-1.98-1.52-1.98v-.48l3.26-.24Z"/>
      <path class="cls-1" d="M161.01,336.02c.92-.95,2.31-1.47,3.83-1.47,3.21,0,5.33,2.27,5.33,5.72,0,3.67-2.11,5.98-5.46,5.98s-5.3-2.27-5.3-5.68c0-1.83.59-3.52,1.61-4.55ZM164.77,345.73c2.16,0,3.34-1.87,3.34-5.26s-1.23-5.41-3.39-5.41-3.28,1.87-3.28,5.24,1.21,5.44,3.32,5.44Z"/>
      <path class="cls-1" d="M174.76,342.23c0,1.76.07,2.24.31,2.6.26.4.73.57,1.61.59v.55h-4.84v-.55c.84,0,1.3-.18,1.58-.59.31-.42.44-1.28.44-2.97v-8.87c0-2.16-.15-2.38-1.8-2.44v-.53h3.89l9.18,13.16v-9.04c0-1.98-.07-2.62-.33-2.97-.29-.4-.77-.57-1.67-.62v-.53h4.91v.53c-1.65.09-2,.68-2,3.28v12.21h-1.25l-10.01-14.41v10.61Z"/>
    </g>
  </g>
</svg>