<?xml version="1.0" encoding="UTF-8"?>
<svg id="_レイヤー_2" data-name="レイヤー 2" xmlns="http://www.w3.org/2000/svg" viewBox="0 0 244.17 351.52">
  <defs>
    <style>
      .cls-1 {
        fill: #020926;
        stroke-width: 0px;
      }
    </style>
  </defs>
  <g id="_レイヤー_1-2" data-name="レイヤー 1">
    <g>
      <path class="cls-1" d="m69.21,78.74H24.54l-10.03,27.91H0L40.72,0h12.3l40.8,106.64h-14.43l-10.18-27.91Zm-40.43-11.5h36.25l-18.16-49.88-18.09,49.88Z"/>
      <path class="cls-1" d="m154.98,106.64c-.78-1.56-1.42-4.35-1.9-8.35-6.3,6.54-13.82,9.81-22.56,9.81-7.81,0-14.22-2.21-19.23-6.63-5.01-4.42-7.51-10.02-7.51-16.81,0-8.25,3.14-14.66,9.41-19.23,6.27-4.56,15.1-6.85,26.48-6.85h13.18v-6.23c0-4.74-1.42-8.51-4.25-11.32-2.83-2.81-7.01-4.21-12.52-4.21-4.83,0-8.89,1.22-12.16,3.66-3.27,2.44-4.91,5.4-4.91,8.86h-13.62c0-3.96,1.4-7.78,4.21-11.46,2.81-3.69,6.62-6.6,11.43-8.75,4.81-2.15,10.09-3.22,15.86-3.22,9.13,0,16.28,2.28,21.46,6.85,5.17,4.57,7.86,10.85,8.06,18.86v36.47c0,7.28.93,13.06,2.78,17.36v1.17h-14.21Zm-22.49-10.33c4.25,0,8.28-1.1,12.08-3.3s6.57-5.05,8.28-8.57v-16.26h-10.62c-16.6,0-24.9,4.86-24.9,14.58,0,4.25,1.42,7.57,4.25,9.96,2.83,2.39,6.47,3.59,10.91,3.59Z"/>
    </g>
    <g>
      <path class="cls-1" d="m6.34,142.88H2.33v6.9H.07v-17.06h5.65c1.92,0,3.4.44,4.44,1.31s1.55,2.15,1.55,3.82c0,1.06-.29,1.99-.86,2.78s-1.37,1.38-2.4,1.77l4.01,7.24v.14h-2.41l-3.7-6.9Zm-4.01-1.84h3.46c1.12,0,2.01-.29,2.67-.87.66-.58.99-1.35.99-2.32,0-1.06-.31-1.87-.94-2.43s-1.54-.85-2.72-.86h-3.45v6.48Z"/>
      <path class="cls-1" d="m13.94,143.33c0-1.24.24-2.36.73-3.35s1.17-1.76,2.04-2.3,1.87-.81,2.98-.81c1.73,0,3.12.6,4.19,1.79s1.6,2.79,1.6,4.77v.15c0,1.23-.24,2.34-.71,3.32s-1.15,1.74-2.03,2.29-1.89.82-3.03.82c-1.72,0-3.11-.6-4.18-1.79s-1.6-2.78-1.6-4.75v-.15Zm2.18.26c0,1.41.33,2.54.98,3.39s1.53,1.28,2.62,1.28,1.98-.43,2.62-1.29.97-2.07.97-3.63c0-1.39-.33-2.52-.99-3.38s-1.54-1.29-2.63-1.29-1.93.43-2.59,1.28-.98,2.07-.98,3.66Z"/>
      <path class="cls-1" d="m38.94,143.59c0,1.94-.45,3.49-1.34,4.67s-2.09,1.76-3.59,1.76c-1.6,0-2.84-.57-3.71-1.7l-.11,1.46h-1.99v-18h2.17v6.71c.88-1.09,2.08-1.63,3.62-1.63s2.75.58,3.63,1.75,1.32,2.76,1.32,4.78v.19Zm-2.17-.25c0-1.48-.29-2.62-.86-3.42s-1.39-1.21-2.46-1.21c-1.43,0-2.46.66-3.08,1.99v5.48c.66,1.33,1.7,1.99,3.11,1.99,1.04,0,1.85-.4,2.43-1.21s.87-2.02.87-3.63Z"/>
      <path class="cls-1" d="m41.09,143.33c0-1.24.24-2.36.73-3.35s1.17-1.76,2.04-2.3,1.87-.81,2.98-.81c1.73,0,3.12.6,4.19,1.79s1.6,2.79,1.6,4.77v.15c0,1.23-.24,2.34-.71,3.32s-1.15,1.74-2.03,2.29-1.89.82-3.03.82c-1.72,0-3.11-.6-4.18-1.79s-1.6-2.78-1.6-4.75v-.15Zm2.18.26c0,1.41.33,2.54.98,3.39s1.53,1.28,2.62,1.28,1.98-.43,2.62-1.29.97-2.07.97-3.63c0-1.39-.33-2.52-.99-3.38s-1.54-1.29-2.63-1.29-1.93.43-2.59,1.28-.98,2.07-.98,3.66Z"/>
      <path class="cls-1" d="m58.3,134.04v3.07h2.37v1.68h-2.37v7.87c0,.51.11.89.32,1.14.21.25.57.38,1.08.38.25,0,.59-.05,1.03-.14v1.75c-.57.15-1.12.23-1.66.23-.97,0-1.7-.29-2.19-.88s-.74-1.42-.74-2.5v-7.86h-2.31v-1.68h2.31v-3.07h2.17Z"/>
      <path class="cls-1" d="m62.62,143.33c0-1.24.24-2.36.73-3.35s1.17-1.76,2.04-2.3,1.87-.81,2.98-.81c1.73,0,3.12.6,4.19,1.79s1.6,2.79,1.6,4.77v.15c0,1.23-.24,2.34-.71,3.32s-1.15,1.74-2.03,2.29-1.89.82-3.03.82c-1.72,0-3.11-.6-4.18-1.79s-1.6-2.78-1.6-4.75v-.15Zm2.18.26c0,1.41.33,2.54.98,3.39s1.53,1.28,2.62,1.28,1.98-.43,2.62-1.29.97-2.07.97-3.63c0-1.39-.33-2.52-.99-3.38s-1.54-1.29-2.63-1.29-1.93.43-2.59,1.28-.98,2.07-.98,3.66Z"/>
    </g>
    <g>
      <path class="cls-1" d="m93.72,226.44c-.3.6-.63,1.43-.97,2.48-.35,1.05-.7,2.1-1.05,3.15-.35,1.05-.67,2.03-.97,2.93-3,9.2-6.6,17.62-10.8,25.27-4.2,7.65-8.75,14.45-13.65,20.4-4.9,5.95-9.95,10.93-15.15,14.92-4.9,3.7-10.2,6.8-15.9,9.3-5.7,2.5-11.2,3.75-16.5,3.75-3.2,0-6.15-.7-8.85-2.1-2.7-1.4-4.85-3.5-6.45-6.3-1.6-2.8-2.4-6.3-2.4-10.5,0-5.1,1.1-10.17,3.3-15.23,2.2-5.05,5.22-9.83,9.08-14.33,3.85-4.5,8.25-8.52,13.2-12.07,4.95-3.55,10.22-6.42,15.83-8.62,4.9-1.8,10.22-3.25,15.97-4.35,5.75-1.1,11.03-1.65,15.83-1.65,9.5,0,17.7,1.65,24.6,4.95,6.9,3.3,12.23,7.78,15.98,13.43,3.75,5.65,5.62,11.98,5.62,18.97,0,5.4-.93,10.55-2.78,15.45-1.85,4.9-4.75,9.38-8.7,13.42-3.95,4.05-9.03,7.53-15.22,10.42-6.2,2.9-13.65,5.05-22.35,6.45l-6.45-10.05c9.1-.9,16.9-3,23.4-6.3,6.5-3.3,11.55-7.5,15.15-12.6,3.6-5.1,5.4-10.9,5.4-17.4,0-4.9-1.35-9.4-4.05-13.5-2.7-4.1-6.62-7.43-11.77-9.98-5.15-2.55-11.48-3.83-18.98-3.83-6.3,0-12.13.75-17.47,2.25-5.35,1.5-9.93,3.1-13.72,4.8-5.6,2.5-10.73,5.85-15.38,10.05-4.65,4.2-8.33,8.73-11.03,13.58-2.7,4.85-4.05,9.58-4.05,14.17,0,3.1.72,5.43,2.17,6.97,1.45,1.55,3.57,2.33,6.38,2.33,3.7,0,7.88-1.05,12.53-3.15,4.65-2.1,9.42-5.3,14.32-9.6,6.7-5.8,12.92-12.9,18.68-21.3,5.75-8.4,10.32-18.7,13.72-30.9.2-.8.4-1.7.6-2.7.2-1,.42-2.05.68-3.15.25-1.1.38-2.05.38-2.85l11.85,3Zm-62.55-17.55c8.8,0,17.5-.25,26.1-.75,8.6-.5,16.88-1.25,24.83-2.25,7.95-1,15.42-2.3,22.42-3.9l.15,11.1c-5.4.9-11.23,1.72-17.48,2.47-6.25.75-12.62,1.4-19.12,1.95-6.5.55-12.9.98-19.2,1.28-6.3.3-12.25.45-17.85.45-2.1,0-4.65-.08-7.65-.23-3-.15-6-.3-9-.45-3-.15-5.55-.27-7.65-.38l-.3-11.25c1.8.3,4.25.6,7.35.9,3.1.3,6.25.55,9.45.75,3.2.2,5.85.3,7.95.3Zm24.3-18.6c-.4.9-.73,1.98-.97,3.22-.25,1.25-.53,2.43-.83,3.53-.8,4.1-1.6,9.3-2.4,15.6-.8,6.3-1.45,13.03-1.95,20.17-.5,7.15-.75,14.18-.75,21.08,0,6.4.42,12.65,1.28,18.75.85,6.1,1.95,11.92,3.3,17.48,1.35,5.55,2.78,10.68,4.28,15.38l-10.8,3.3c-1.5-4.5-2.9-9.72-4.2-15.67-1.3-5.95-2.35-12.2-3.15-18.75-.8-6.55-1.2-12.98-1.2-19.28,0-5.2.17-10.5.53-15.9.35-5.4.77-10.67,1.28-15.82.5-5.15.97-9.98,1.42-14.48s.87-8.4,1.27-11.7c.1-1.3.2-2.6.3-3.9.1-1.3.1-2.4,0-3.3l12.6.3Z"/>
      <path class="cls-1" d="m221.67,240.39c-.2.5-.45,1.23-.75,2.17-.3.95-.63,1.9-.98,2.85-.35.95-.62,1.78-.82,2.47-3.8,11.5-8.53,21.4-14.18,29.7-5.65,8.3-11.88,15.15-18.67,20.55-4.2,3.1-8.75,5.68-13.65,7.73-4.9,2.05-9.35,3.07-13.35,3.07-2.9,0-5.53-.55-7.88-1.65-2.35-1.1-4.2-2.8-5.55-5.1-1.35-2.3-2.03-5.3-2.03-9,0-6.2,1.67-12.1,5.03-17.7,3.35-5.6,7.7-10.55,13.05-14.85,5.35-4.3,10.97-7.55,16.88-9.75,4.2-1.7,8.65-2.97,13.35-3.83,4.7-.85,9.05-1.27,13.05-1.27,8.4,0,15.47,1.42,21.22,4.27,5.75,2.85,10.15,6.7,13.2,11.55,3.05,4.85,4.58,10.27,4.58,16.27,0,5.5-1.38,10.85-4.12,16.05-2.75,5.2-7.15,9.73-13.2,13.58-6.05,3.85-14.08,6.62-24.08,8.33l-5.85-9.3c7.4-.8,13.82-2.52,19.27-5.17,5.45-2.65,9.68-6.08,12.68-10.28s4.5-8.9,4.5-14.1c0-4.2-1.12-8-3.38-11.4-2.25-3.4-5.48-6.08-9.68-8.03-4.2-1.95-9.35-2.92-15.45-2.92-5.1,0-9.85.58-14.25,1.73-4.4,1.15-8.15,2.47-11.25,3.97-4.4,1.9-8.58,4.53-12.53,7.88-3.95,3.35-7.12,7.05-9.53,11.1-2.4,4.05-3.6,8.18-3.6,12.38,0,2.4.7,4.2,2.1,5.4,1.4,1.2,3.15,1.8,5.25,1.8,2.8,0,6.12-.87,9.98-2.62,3.85-1.75,7.67-4.22,11.47-7.42,5.5-4.8,10.65-10.7,15.45-17.7,4.8-7,8.6-15.45,11.4-25.35.3-.6.55-1.42.75-2.48.2-1.05.4-2.07.6-3.07.2-1,.35-1.8.45-2.4l10.5,2.55Zm-52.5-14.85c10.3,0,20.77-.45,31.42-1.35,10.65-.9,20.67-2.35,30.08-4.35l.3,10.05c-4.4.7-9.22,1.35-14.47,1.95s-10.65,1.12-16.2,1.58-11,.83-16.35,1.12c-5.35.3-10.27.45-14.77.45-1.8,0-4-.05-6.6-.15-2.6-.1-5.15-.22-7.65-.38-2.5-.15-4.6-.27-6.3-.38l-.3-10.2c1.4.2,3.45.45,6.15.75s5.42.53,8.17.67c2.75.15,4.92.23,6.53.23Zm21.15-15.6c-.2.7-.43,1.58-.67,2.62-.25,1.05-.48,2.13-.67,3.23-.7,3.2-1.4,7.35-2.1,12.45-.7,5.1-1.3,10.57-1.8,16.42-.5,5.85-.75,11.58-.75,17.17,0,9,.77,17.15,2.33,24.45,1.55,7.3,3.23,13.85,5.03,19.65l-9.9,2.85c-1.3-3.7-2.5-8.03-3.6-12.98-1.1-4.95-2-10.25-2.7-15.9-.7-5.65-1.05-11.27-1.05-16.88,0-6.1.22-12.1.67-18,.45-5.9,1-11.4,1.65-16.5.65-5.1,1.12-9.35,1.42-12.75.1-1,.17-2.07.22-3.23.05-1.15.08-2.12.08-2.92l11.85.3Z"/>
    </g>
    <g>
      <path class="cls-1" d="m8.08,351.23v-16.13h2.07l5.9,10.16,1.74,3.32h.11c-.07-.81-.14-1.65-.2-2.53s-.09-1.74-.09-2.57v-8.38h1.94v16.13h-2.09l-5.87-10.19-1.74-3.3h-.09c.04.81.09,1.63.15,2.48s.09,1.69.09,2.54v8.47h-1.91Z"/>
      <path class="cls-1" d="m28.43,351.52c-.97,0-1.88-.25-2.73-.74s-1.53-1.2-2.04-2.13c-.51-.93-.76-2.06-.76-3.38s.25-2.47.76-3.4c.51-.93,1.18-1.65,2.04-2.14s1.76-.75,2.73-.75c.73,0,1.43.14,2.1.42s1.26.69,1.77,1.23c.51.54.92,1.2,1.21,1.98.29.78.44,1.67.44,2.66,0,1.32-.26,2.45-.77,3.38-.51.93-1.19,1.64-2.02,2.13s-1.75.74-2.73.74Zm0-1.67c.69,0,1.29-.19,1.81-.57.52-.38.93-.92,1.22-1.61.29-.69.44-1.49.44-2.4s-.15-1.73-.44-2.42c-.29-.69-.7-1.22-1.22-1.61-.52-.38-1.13-.57-1.81-.57s-1.29.19-1.82.57c-.52.38-.92.92-1.21,1.61s-.43,1.5-.43,2.42.14,1.71.43,2.4c.29.69.69,1.23,1.21,1.61.52.38,1.13.57,1.82.57Z"/>
      <path class="cls-1" d="m40.86,351.52c-.84,0-1.5-.17-2-.5-.5-.33-.86-.8-1.07-1.4-.21-.6-.32-1.3-.32-2.09v-6.62h-1.78v-1.52l1.89-.11.22-3.37h1.67v3.37h3.26v1.63h-3.26v6.69c0,.72.14,1.28.41,1.68.27.4.75.61,1.44.61.22,0,.45-.03.7-.1.25-.07.47-.14.66-.23l.4,1.52c-.34.12-.7.22-1.08.31-.38.09-.76.13-1.14.13Z"/>
      <path class="cls-1" d="m50.05,351.52c-.97,0-1.88-.25-2.73-.74s-1.53-1.2-2.04-2.13-.76-2.06-.76-3.38.25-2.47.76-3.4c.51-.93,1.18-1.65,2.04-2.14s1.76-.75,2.73-.75c.73,0,1.43.14,2.1.42.67.28,1.26.69,1.77,1.23.51.54.92,1.2,1.21,1.98s.44,1.67.44,2.66c0,1.32-.26,2.45-.77,3.38s-1.19,1.64-2.02,2.13-1.75.74-2.73.74Zm0-1.67c.69,0,1.29-.19,1.82-.57.52-.38.93-.92,1.22-1.61.29-.69.44-1.49.44-2.4s-.15-1.73-.44-2.42c-.29-.69-.7-1.22-1.22-1.61-.52-.38-1.13-.57-1.82-.57s-1.29.19-1.81.57c-.52.38-.92.92-1.21,1.61-.29.69-.43,1.5-.43,2.42s.14,1.71.43,2.4c.29.69.69,1.23,1.21,1.61.52.38,1.12.57,1.81.57Z"/>
      <path class="cls-1" d="m68.34,351.52c-1.14,0-2.2-.21-3.16-.64-.96-.43-1.79-1-2.47-1.74l1.21-1.41c.57.6,1.25,1.09,2.02,1.45.78.37,1.58.55,2.42.55,1.07,0,1.9-.24,2.5-.73.59-.48.89-1.12.89-1.89,0-.57-.12-1.03-.36-1.36-.24-.34-.56-.62-.97-.85-.4-.23-.86-.45-1.38-.67l-2.31-1.01c-.5-.22-1-.5-1.51-.84-.51-.34-.93-.78-1.27-1.32-.34-.54-.51-1.2-.51-1.98,0-.84.22-1.57.66-2.21.44-.64,1.04-1.14,1.8-1.51.76-.37,1.64-.55,2.62-.55s1.86.18,2.67.55c.81.37,1.5.84,2.06,1.43l-1.06,1.3c-.5-.46-1.04-.82-1.64-1.09s-1.27-.41-2.04-.41c-.91,0-1.64.21-2.19.63-.55.42-.82.99-.82,1.71,0,.53.13.96.41,1.3.27.34.61.61,1.02.81.41.21.83.4,1.25.59l2.29.99c.62.26,1.18.58,1.68.95.51.37.91.82,1.2,1.36.29.54.44,1.21.44,2,0,.85-.22,1.62-.66,2.32-.44.7-1.07,1.25-1.89,1.65s-1.8.61-2.93.61Z"/>
      <path class="cls-1" d="m79.53,351.52c-.66,0-1.25-.13-1.78-.4-.53-.26-.94-.65-1.24-1.15-.3-.51-.45-1.12-.45-1.84,0-1.31.58-2.31,1.75-3,1.17-.7,3.03-1.18,5.58-1.46,0-.51-.07-1-.21-1.46s-.38-.84-.74-1.12c-.35-.29-.86-.43-1.52-.43s-1.34.14-1.95.41-1.15.56-1.64.87l-.77-1.39c.37-.23.79-.47,1.28-.71.48-.24,1.01-.44,1.58-.6s1.18-.24,1.83-.24c.97,0,1.76.21,2.37.62.61.41,1.06.98,1.34,1.71.29.73.43,1.59.43,2.58v7.35h-1.65l-.18-1.43h-.07c-.56.47-1.17.87-1.84,1.21-.67.34-1.38.51-2.12.51Zm.57-1.63c.57,0,1.12-.13,1.64-.4.52-.26,1.07-.65,1.64-1.17v-3.32c-1.33.15-2.4.36-3.19.63s-1.36.6-1.69.99c-.34.39-.51.85-.51,1.38,0,.69.21,1.18.62,1.46.41.29.91.43,1.5.43Z"/>
      <path class="cls-1" d="m89.17,351.23v-11.95h1.65l.2,1.74h.04c.57-.57,1.18-1.06,1.82-1.45.64-.4,1.37-.59,2.19-.59,1.26,0,2.19.4,2.77,1.2.59.8.88,1.96.88,3.49v7.57h-2v-7.3c0-1.13-.18-1.94-.54-2.44-.36-.5-.93-.75-1.73-.75-.62,0-1.17.15-1.65.46-.48.31-1.02.76-1.61,1.36v8.67h-2.02Z"/>
      <path class="cls-1" d="m105.71,351.52c-.84,0-1.65-.16-2.43-.47-.79-.32-1.46-.71-2.01-1.18l.97-1.34c.53.43,1.07.77,1.63,1.03s1.2.4,1.91.4c.79,0,1.38-.18,1.77-.54.39-.36.58-.8.58-1.33,0-.41-.14-.75-.41-1.02-.27-.27-.62-.51-1.03-.7s-.85-.38-1.29-.54c-.56-.22-1.1-.46-1.64-.74-.54-.27-.98-.62-1.32-1.06s-.52-.99-.52-1.66.16-1.22.48-1.73.79-.91,1.41-1.21,1.36-.45,2.22-.45c.73,0,1.42.13,2.06.4.64.26,1.18.59,1.64.97l-.97,1.25c-.41-.29-.83-.54-1.27-.75s-.91-.31-1.44-.31c-.76,0-1.32.17-1.68.52s-.54.75-.54,1.22c0,.37.12.67.36.92.24.25.56.46.96.63.4.17.81.34,1.25.52.44.16.88.34,1.31.53.43.19.82.42,1.17.68.34.26.62.59.84.98.21.39.32.87.32,1.44,0,.65-.17,1.24-.5,1.78-.33.54-.81.97-1.45,1.29-.64.31-1.43.47-2.39.47Z"/>
      <path class="cls-1" d="m121,351.52c-1.03,0-1.9-.22-2.63-.65-.73-.43-1.33-1.07-1.82-1.9l1.45-1.06c.37.66.78,1.13,1.24,1.41.46.28.98.42,1.55.42.88,0,1.53-.27,1.96-.8s.64-1.41.64-2.63v-11.2h2.05v11.4c0,.92-.15,1.77-.46,2.53-.31.76-.79,1.37-1.44,1.82-.65.45-1.5.67-2.54.67Z"/>
      <path class="cls-1" d="m129.78,351.23v-16.13h4.6c1.2,0,2.26.15,3.17.45.91.3,1.61.8,2.11,1.48.5.69.75,1.62.75,2.79s-.25,2.06-.75,2.79-1.2,1.28-2.09,1.64-1.93.54-3.1.54h-2.66v6.42h-2.02Zm2.02-8.07h2.4c1.41,0,2.46-.26,3.15-.79.69-.53,1.03-1.37,1.03-2.53s-.36-1.98-1.07-2.42c-.71-.44-1.78-.66-3.2-.66h-2.31v6.4Z"/>
    </g>
  </g>
</svg>